<?xml version="1.0" encoding="UTF-8" standalone="no"?>
<!-- Generator: Adobe Illustrator 22.1.0, SVG Export Plug-In . SVG Version: 6.00 Build 0)  -->

<svg
   xmlns:osb="http://www.openswatchbook.org/uri/2009/osb"
   xmlns:dc="http://purl.org/dc/elements/1.1/"
   xmlns:cc="http://creativecommons.org/ns#"
   xmlns:rdf="http://www.w3.org/1999/02/22-rdf-syntax-ns#"
   xmlns:svg="http://www.w3.org/2000/svg"
   xmlns="http://www.w3.org/2000/svg"
   xmlns:xlink="http://www.w3.org/1999/xlink"
   xmlns:sodipodi="http://sodipodi.sourceforge.net/DTD/sodipodi-0.dtd"
   xmlns:inkscape="http://www.inkscape.org/namespaces/inkscape"
   version="1.1"
   id="Layer_1"
   x="0px"
   y="0px"
   viewBox="0 0 500 500"
   style="enable-background:new 0 0 500 500;"
   xml:space="preserve"
   sodipodi:docname="unicorn.svg"
   inkscape:version="0.92.1 r15371"><metadata
     id="metadata17"><rdf:RDF><cc:Work
         rdf:about=""><dc:format>image/svg+xml</dc:format><dc:type
           rdf:resource="http://purl.org/dc/dcmitype/StillImage" /></cc:Work></rdf:RDF></metadata><defs
     id="defs15"><linearGradient
       id="uniPurp"
       osb:paint="solid"><stop
         style="stop-color:#c242da;stop-opacity:1;"
         offset="0"
         id="stop4644" /></linearGradient><linearGradient
       inkscape:collect="always"
       xlink:href="#uniPurp"
       id="linearGradient4648"
       x1="317.59674"
       y1="184.86671"
       x2="320.74518"
       y2="184.86671"
       gradientUnits="userSpaceOnUse" /></defs><sodipodi:namedview
     pagecolor="#ffffff"
     bordercolor="#666666"
     borderopacity="1"
     objecttolerance="10"
     gridtolerance="10"
     guidetolerance="10"
     inkscape:pageopacity="0"
     inkscape:pageshadow="2"
     inkscape:window-width="1920"
     inkscape:window-height="1001"
     id="namedview13"
     showgrid="false"
     inkscape:zoom="2.8284271"
     inkscape:cx="301.58774"
     inkscape:cy="185.14415"
     inkscape:window-x="-9"
     inkscape:window-y="-9"
     inkscape:window-maximized="1"
     inkscape:current-layer="g10" /><g
     id="g10"><path
       id="path2"
       style="fill:#000000"
       d="m 146,16.199219 c -1,0.2 -1.80039,0.70039 -2.40039,1.40039 -0.1,0.1 -0.0988,0.200391 -0.29883,0.400391 L 143,18.599609 c -0.2,0.5 -0.20078,0.901172 -0.30078,1.201172 v 0.298828 0.201172 c 0,0.2 0.10117,0.79961 0.20117,1.09961 l 0.40039,1.298828 c 0.4,1.2 0.7,2.3 1,3.5 L 144.5,27 c 0.2,0.9 0.49922,1.799219 0.69922,2.699219 0.3,1.1 0.50117,2.2 0.70117,3.5 0.1,0.5 0.0992,1.00039 0.19922,1.40039 0.1,0.7 0.20078,1.500782 0.30078,2.300782 0.3,1.6 0.89883,2.998828 1.79883,4.298828 0.6,1 1.40156,1.700781 2.10156,2.300781 v 0.5 0.199219 c 0,0.2 -2.9e-4,0.50039 0.0996,0.90039 L 150.59961,46 v 0.09961 c 0.1,0.3 0.20117,0.501172 0.20117,0.701172 l 0.0996,0.09961 c 0.1,0.3 0.20039,0.60039 0.40039,0.90039 L 151.40039,48 c 0.2,0.4 0.39961,0.8 0.59961,1 l 0.0996,0.199219 c 0.1,0.2 0.30039,0.401562 0.40039,0.601562 L 152.69922,50 c 0.3,0.4 0.7,0.799609 1,1.099609 0.5,0.5 1.00039,0.901172 1.40039,1.201172 0.5,0.4 1.09961,0.79961 1.59961,1.09961 0,1 0.001,1.898828 0.20117,2.798828 0.1,0.7 0.29961,1.401172 0.59961,2.201172 0.3,0.7 0.6,1.4 1,2 0.1,0.2 0.30039,0.399218 0.40039,0.699218 l 0.19922,0.201172 c 0.2,0.3 0.39961,0.499219 0.59961,0.699219 l 0.20117,0.199219 c 0.5,0.5 0.99922,1.101562 1.69922,1.601562 l 0.80078,0.59961 L 163.30078,65 c 0.3,0.2 0.49883,0.3 0.79883,0.5 0.5,2.4 1.40117,4.6 2.70117,6.5 0.2,0.3 0.39922,0.600391 0.69922,0.900391 l 0.19922,0.199218 c 0.2,0.2 0.3,0.39961 0.5,0.59961 0.5,0.6 1.10156,1 1.60156,1.5 l 0.0996,0.101562 c 0.5,0.4 0.99961,0.69961 1.59961,1.09961 l 0.59961,0.298828 c 0,0.2 -2.9e-4,0.401562 0.0996,0.601562 0,0.5 0.20078,1 0.30078,1.5 0,0.2 0.0996,0.3 0.0996,0.5 0.1,0.3 0.20078,0.598828 0.30078,0.798828 0,0.1 0.0996,0.200782 0.0996,0.300782 l 0.30078,0.90039 0.0996,0.199219 c 0.2,0.4 0.39961,0.799609 0.59961,1.099609 l 0.30078,0.5 0.0996,0.201172 c 0.3,0.4 0.49883,0.7 0.79883,1 l 0.40039,0.398438 c 0.4,0.5 0.79961,0.801562 1.09961,1.101562 0.1,0.1 0.3,0.198438 0.5,0.398438 l 0.70117,0.601562 1.40039,0.898438 c 0,0.7 -2.9e-4,1.401562 0.0996,2.101562 -7.7,1.5 -14.79961,3.89961 -21.09961,7.09961 -15.5,7.799999 -25.70156,20.099999 -30.60156,36.499999 -0.5,1.6 -1.3,4.1 -2,6 -3,0.2 -5.59922,-0.50078 -7.69922,-1.80078 -5.2,-3.3 -7.09961,-10.6 -6.59961,-14.5 l 0.69922,-4.69922 -4.5,1.5 c -6.3,2.1 -12.399219,10.5 -14.699219,20.5 -1.5,6.2 -2.601172,18.10039 6.798828,27.40039 2.100001,2.1 4.500001,3.99961 7.000001,5.59961 -4.3,4.3 -8.798829,6.99883 -12.798829,7.79883 -0.7,0.1 -1.300391,0.20117 -1.900391,0.20117 -1.2,0 -2.900391,-0.29961 -3.900391,-1.59961 -1.4,-1.8 -1.198828,-5.30078 0.701172,-9.30078 l 1.398438,-2.90039 -3.09961,-1.09961 c -3.6,-1.3 -7.698828,-0.0992 -10.798828,3.30078 -4.8,5.1 -7.6,15.59844 -3.5,24.89844 2.5,5.7 9.60001,15.20078 29.499999,16.80078 -2.799989,3.1 -5.399999,6.09961 -7.999999,9.09961 -4.7,5.5 -1.501562,12.00078 1.398438,17.80078 1.2,2.4 2.501172,5 3.201172,7.5 1.299999,4.4 5.598829,8.49922 11.798829,11.19922 4.1,1.8 8.4,2.70117 12.5,2.70117 3.2,0 6.10078,-0.60117 8.30078,-1.70117 3.9,-2 7.8,-5.3 11.5,-8.5 4.2,-3.6 8.90078,-7.59961 11.80078,-7.59961 h 1.39844 0.20117 c 22.5,0.4 41.29922,-1.49961 56.19922,-5.59961 -8.8,10.9 -21.59961,32.79883 -22.59961,56.29883 -0.9,22.1 8.50039,40.90117 27.90039,55.70117 9.6,24.9 2.69922,37 -2.30078,42 -4.2,4.3 -9.39883,5.79883 -12.79883,5.79883 -1.1,0 -2.10078,-0.2 -2.80078,-0.5 l -5.5,-2.09961 0.59961,5.80078 c 1,9 8.89961,19.00039 19.59961,24.90039 4.8,2.6 13.8,4.5 21.5,4.5 3.3,0 7.20117,-0.20039 11.20117,-1.40039 -0.7,12.2 2.29922,23.09883 8.69922,30.79883 6.9,8.4 17.00117,12.70039 30.20117,12.90039 l 8.79883,0.0996 L 288.90039,465 c -6.5,-6.5 -8.80039,-14.19922 -6.40039,-21.69922 2.6,-8 10.20078,-14.20156 19.30078,-15.60156 32.5,-5.2 76.69961,-17.39883 88.09961,-61.79883 7.4,4.4 16.60039,7 21.90039,7 11.1,-0.1 20.39844,-4.00078 26.89844,-11.30078 8.3,-8.4 10.20039,-19.49961 9.40039,-27.09961 -1.4,-13.8 -10.29922,-25.90039 -18.69922,-25.40039 l -3.90039,0.20117 0.59961,3.89844 c 1,6.3 -0.30039,11.10156 -3.40039,12.60156 -2.5,1.2 -6.29961,0.19844 -10.09961,-2.60156 2.6,-2.3 4.9,-4.79844 7,-7.39844 13.9,-17.5 17.89961,-40.20156 11.09961,-64.10156 l -1.5,-5.5 -4.29883,3.70117 c -6.3,5.5 -16.89961,11.40039 -27.59961,11.40039 -1.4,0 -2.80117,-0.10078 -4.20117,-0.30078 -9,-1.4 -16.7,-7.5 -23,-18 -0.5,-0.8 -0.89883,-1.69961 -1.29883,-2.59961 9,8.7 21.09961,13.40039 29.59961,13.40039 0.8,0 1.49922,-0.10156 2.19922,-0.10156 0.2,0 0.50117,2.9e-4 0.70117,-0.0996 21.4,-1.6 32.19922,-12.30039 32.19922,-31.90039 0,-10.5 -12.1,-26.69922 -20,-26.69922 h -0.30078 l -3.89844,0.19922 0.59961,3.90039 c 1.2,7.5 0.49922,12.50039 -0.80078,13.40039 -1.5,1.1 -3.9,0.99961 -6.5,-0.40039 -9.9,-5 -21.49961,-24.49922 -21.59961,-62.69922 0,-19.4 -6.90078,-35.80117 -20.30078,-48.70117 -25.9,-25.000011 -62.49961,-25.999611 -67.59961,-26.099611 -6.4,-1.6 -12.8,-2.5 -19,-2.5 -14.1,0 -25.4,4.301172 -34.5,7.701172 l -1.19922,0.398438 c -4.8,-5 -10,-11.2 -13,-19 L 223.5,56.400391 l -3.80078,3.40039 C 216.99922,62.200781 214.9,65.5 213.5,69.5 209.9,65 207.29961,60.800391 205.59961,56.400391 L 203.69922,51.599609 199.90039,55 c -2.3,2 -4.1,4.600781 -5.5,7.800781 -0.1,-0.1 -0.3,-0.200781 -0.5,-0.300781 l -1.20117,-0.800781 c -0.3,-0.2 -0.59844,-0.298438 -0.89844,-0.398438 L 191.30078,61 c 0.1,-0.9 0.19971,-1.799219 0.0996,-2.699219 v -0.101562 -0.298828 c 0,-0.3 -0.10117,-0.7 -0.20117,-1 L 191,56.300781 190.69922,55.5 c 0,-0.1 -0.0996,-0.199219 -0.0996,-0.199219 -0.1,-0.2 -0.20039,-0.50039 -0.40039,-0.90039 L 190,54.099609 c -0.2,-0.3 -0.39961,-0.7 -0.59961,-1 l -0.70117,-0.90039 -0.0996,-0.09961 L 188,51.5 187.80078,51.300781 c -0.3,-0.3 -0.50078,-0.501172 -0.80078,-0.701172 -0.1,-0.1 -0.20078,-0.09922 -0.30078,-0.199218 -0.3,-0.3 -0.7,-0.501172 -1,-0.701172 -0.6,-0.4 -1.3,-0.799219 -2,-1.199219 -0.1,-0.1 -0.3,-0.199219 -0.5,-0.199219 V 48.199219 48 c -0.1,-0.5 -0.19883,-0.899219 -0.29883,-1.199219 l -0.0996,-0.201172 c 0,-0.1 -0.10156,-0.198828 -0.10156,-0.298828 -0.1,-0.3 -0.19844,-0.6 -0.39844,-1 -0.1,-0.2 -0.20078,-0.3 -0.30078,-0.5 -0.3,-0.5 -0.5,-1 -1,-1.5 -0.1,-0.1 -0.30039,-0.3 -0.40039,-0.5 -0.3,-0.4 -0.69961,-0.901172 -1.09961,-1.201172 l -0.40039,-0.40039 c -0.4,-0.3 -0.79922,-0.7 -1.19922,-1 l -2,-1.298828 c -0.2,-0.2 -0.50078,-0.3 -0.80078,-0.5 l -1.5,-0.701172 C 173.29962,36.799219 172.9004,35.9 172.4004,35 l -0.0996,-0.09961 c -0.2,-0.3 -0.4,-0.600782 -0.5,-0.800782 -0.5,-0.9 -1.10078,-1.8 -1.80078,-2.5 l -0.30078,-0.40039 c -0.7,-0.9 -1.49844,-1.89961 -2.39844,-2.59961 l -1.40039,-1.298828 c -0.6,-0.6 -1.09961,-1.10039 -1.59961,-1.40039 l -3,-2.300782 c -0.7,-0.6 -1.50117,-1.00039 -2.20117,-1.40039 -0.4,-0.2 -0.69922,-0.399219 -1.19922,-0.699219 -0.4,-0.2 -0.69961,-0.499219 -1.09961,-0.699219 C 156.10058,20.300791 155.3,19.9 154.5,19.5 l -6.09961,-3 L 147,16.199219 h -0.80078 z m 3,6.701172 c 14.8,7.3 18.69922,14.799609 19.69922,17.599609 -3.2,0.9 -5.99844,1.400391 -8.39844,1.400391 -6.7,-0.1 -8.40156,-3.701172 -8.60156,-6.701172 -0.3,-3.6 -1.69922,-8.998828 -2.69922,-12.298828 z m 21.19922,19.798828 c 7.7,3.2 7.90078,7.10039 7.80078,8.40039 -5.8,2.5 -15.20039,0.0012 -16.40039,-0.298828 -4,-2.2 -5.29922,-4.2 -5.69922,-5.5 -0.2,-0.6 -0.0996,-1.2 -0.0996,-1.5 1.2,0.4 2.7,0.59961 4.5,0.59961 2.8,0 6.09844,-0.601172 9.89844,-1.701172 z m 9.40039,10.5 c 3.3,1.4 5.3,3.101172 6,5.201172 0.6,1.7 0.10078,3.20039 -0.19922,3.90039 -0.3,0 -0.60078,0.09883 -0.80078,0.298828 -5.6,1.4 -15.39961,-0.20039 -16.59961,-0.40039 -5.9,-2.3 -6.20039,-6.59961 -5.90039,-8.59961 1.9,0.5 5.50039,1.201172 9.40039,1.201172 2.8,0 5.69961,-0.401562 8.09961,-1.601562 z M 202,63.5 c 2.1,4.8 6.6,10.9 11,16 -0.2,1.7 -0.30078,3.399219 -0.30078,5.199219 l -0.29883,-0.59961 -1.20117,-1.798828 -1.39844,-1.701172 c -0.5,-0.5 -1.00156,-1 -1.60156,-1.5 -0.3,-0.3 -0.49883,-0.499218 -0.79883,-0.699218 L 206.5,77.699219 205.59961,77 c -0.3,-0.2 -0.6,-0.399609 -1,-0.599609 l -1.5,-0.800782 c -0.3,-0.7 -0.69961,-1.3 -1.09961,-2 C 201.8,73.199609 201.50078,72.9 201.30078,72.5 201.00078,72.1 200.8,71.800391 200.5,71.400391 l -0.80078,-1 c -0.3,-0.3 -0.49883,-0.7 -0.79883,-1 l -0.59961,-0.701172 C 199.20078,66.399219 200.6,65.4 202,63.5 Z m -33,1.599609 c 2.1,0.3 5.79961,0.800782 9.59961,0.800782 2.4,0 4.80078,-0.200782 6.80078,-0.800782 7.8,2.8 11.99922,8.401172 13.69922,11.201172 -5.8,0.2 -16.09961,-0.701172 -23.09961,-2.701172 -5,-1.5 -6.5,-6.1 -7,-8.5 z M 222.40039,69.5 c 4.4,9.3 8.99961,13.899609 14.09961,18.099609 19.4,16.200001 13,39.300781 13,39.300781 4.4,-6.5 5.90039,-12.30078 5.40039,-17.80078 27.5,30.7 9.50039,53.50039 -9.59961,77.40039 -10,12.5 -20.1,25.29961 -24,39.59961 -13.1,5.9 -37.00039,10.80039 -62.40039,10.40039 h -1.70117 c -4.5,0 -8.99961,1.69922 -14.09961,6.19922 -3.5,3 -8.59961,6.90156 -12.09961,8.60156 -4.1,2 -9.99922,3.29961 -16.19922,0.59961 -5,-2.1 -8.70117,-4.20039 -9.70117,-7.40039 -0.9,-2.8 -2.2,-5.49961 -3.5,-8.09961 -0.6,-1.3 -1.19922,-2.4 -1.699219,-3.5 0.199999,-0.3 0.299999,-0.6 0.499999,-1 0.2,-0.6 0.29922,-1.3 0.19922,-2 0,-0.4 -0.0992,-0.80117 -0.19922,-1.20117 -0.1,-0.4 -0.3,-0.79922 -0.499999,-1.19922 -0.2,-0.4 -0.500782,-0.7 -0.800782,-1 -0.3,-0.3 -0.60039,-0.49922 -0.90039,-0.69922 0.2,-0.9 0.600781,-1.80156 1.300781,-2.60156 19.8,-23.1 45,-44.1 51.5,-49 0.2,-0.1 0.49922,-0.19883 0.69922,-0.29883 2.5,1.1 5.30078,1.69922 8.30078,1.69922 9.3,0 18.79961,-5.29961 26.09961,-14.59961 6.3,-8 9.20117,-16.79961 11.70117,-24.59961 3.8,-11.4 6.69844,-20.50078 18.39844,-22.80078 L 218,113.19922 c 0.5,1.3 1.09961,2.50039 1.59961,3.40039 L 219.80078,106 c -4.1,-8.9 -6.50039,-24.4 2.59961,-36.5 z m -45.5,7 c 6.7,1.7 14.99922,2.400391 20.69922,2.400391 1.3,0 2.5,3.9e-4 3.5,-0.09961 5.1,2.2 8.10039,6.59961 9.40039,9.09961 -5.2,0.2 -19.80078,0.498828 -26.80078,-2.701172 -5.7,-2.6 -6.69883,-6.599219 -6.79883,-8.699219 z m 99.15039,3.0625 c 13.525,0.1875 30.24961,5.036719 52.34961,20.136719 34.6,23.600001 34.29961,60.701561 32.09961,94.101561 -1.3,20.2 -3.90078,39.89922 3.69922,52.69922 7.2,12 17.40156,20.8 28.10156,22.5 14.9,2.4 27.19844,-1.30078 32.39844,-7.80078 5.2,21 -0.7,36.00039 -13,51.40039 -11.8,14.7 -26.5,21.20078 -45,20.30078 -5.49373,-0.29431 -10.41233,0.0711 -15.69531,-1.80273 10e-4,0.009 -5e-4,-0.006 0.0137,0.0547 0.44588,1.65102 0.6612,2.48363 0.99609,4.41211 4.93664,1.56175 10.06186,2.54103 15.0918,2.73828 1,0.1 2,0.0996 3,0.0996 5.6,0 11.19962,-0.80078 16.59961,-2.30078 2.5,59.8 -43.19883,78 -83.79883,84.5 -11.3,1.7 -22.89961,8.70117 -26.09961,18.70117 -2.6,8 -2.60155,17.39961 2.89844,24.59961 -9.3,-0.9 -13.79883,-4.9 -18.79883,-11 -6.3,-7.6 -8.8,-17.30117 -7,-29.70117 H 254 c 12.56172,-8.07539 19.74423,-22.95914 22.16602,-39.30078 -0.5685,-0.19913 -1.33677,-0.51544 -1.84571,-0.7207 -0.67324,-0.24852 -1.3819,-0.56581 -1.95898,-0.82422 -2.05744,15.37408 -10.32709,26.99244 -22.16211,34.65039 -12,7.8 -25.59922,3.7 -31.69922,0 -8.1,-4.9 -11.39961,-8.79922 -13.59961,-14.19922 5.4,0.5 9.9,-1.40155 15.5,-7.10156 5.9,-6 13.79883,-21.49961 2.79883,-49.59961 h -0.0996 L 223,345.80078 c -9.84967,-31.74844 4.7223,-54.78816 21.31836,-69.86133 0.003,-0.0149 1.46155,-1.44856 1.11523,-1.12304 2.01739,-1.87343 3.09874,-2.81875 5.15039,-4.375 2.65164,-2.06383 4.99651,-3.42342 7.81641,-5.34375 6.1,-4 11.70039,-6.89961 15.40039,-8.59961 22,-10.4 39.19961,-33.89961 42.59961,-58.59961 0.46216,-3.43823 0.34792,-7.25822 0.42578,-9.79492 -0.18238,-3.66274 -0.60741,-6.65375 -1.2832,-10.12305 -2.7,-16.4 -11.04297,-34.98281 -32.04297,-53.38281 v 0.0996 c -10.8,-11.1 -25.69961,-21.09961 -31.09961,-24.59961 C 250.30052,95.900637 247,91.7 243,87.5 l -0.0996,-0.09961 c 9.3,-3.55 19.62539,-8.025391 33.15039,-7.837891 z m 29.54883,1.238281 c 16.1,2.6 35.20039,9.89962 49.90039,24.099609 12.3,11.9 20,26.99883 20,44.79883 0.1,40.7 13.29961,61.90156 24.59961,67.60156 4.5,2.3 9.00117,2.29844 12.20117,-0.10156 3.3,-2.4 4.99961,-6.99922 4.59961,-12.69922 3.6,1.7 7.50039,8 8.40039,16 0.6,5.3 0.69961,24.9 -23.90039,26.5 -10.9,0.7 -29.50039,-8.19961 -37.90039,-23.09961 -0.6,-9.1 -7.8e-4,-19.30039 0.69922,-29.90039 2.3,-34.4 4.80078,-73.50039 -31.69922,-98.400391 -9.8,-6.7 -18.70039,-11.498828 -26.90039,-14.798828 z m -121.5,7.298828 c 5.7,2 14.3,2.5 20.5,2.5 3.4,0 6.10078,-0.09922 7.30078,-0.199218 0.4,0.4 0.79961,0.799218 1.09961,1.199218 0.2,2.5 0.6,5.000391 1,7.400391 -12.6,2.4 -23.8,-2.700781 -24,-2.800781 -5.6,-2.1 -6.10039,-5.99961 -5.90039,-8.09961 z M 183.5,95.400391 183.59961,95.5 c 0.2,0.2 0.39961,0.499219 0.59961,0.699219 0.2,0.2 0.40117,0.401562 0.70117,0.601562 l 0.69922,0.5 0.80078,0.5 c 0.4,0.3 0.90039,0.499219 1.40039,0.699219 0,0.5 -0.10156,0.900391 -0.10156,1.400391 0,0.599999 0.10156,1.099219 0.10156,1.699219 0.1,0.6 0.19844,1.09961 0.39844,1.59961 0.2,0.5 0.50078,1 0.80078,1.5 0.3,0.4 0.7,0.90078 1,1.30078 0.4,0.4 0.80078,0.79961 1.30078,1.09961 0.2,0.2 0.49922,0.3 0.69922,0.5 -11.7,2.1 -22.29922,9.30039 -36.19922,18.90039 -3.5,2.4 -7.1,4.9 -11,7.5 -5,3.3 -9.60117,5.49922 -13.70117,6.69922 0.6,-1.8 1.30117,-3.79922 1.70117,-5.19922 4.5,-15.2 15.19961,-25.8 29.59961,-33 6.9,-3.7 14.19961,-5.899609 21.09961,-7.099609 z m 7.09961,3.90039 c 2.8,1.099999 8.80078,2.999999 16.30078,2.999999 2.4,0 4.99961,-0.20078 7.59961,-0.80078 0.7,3.4 1.59961,6.59922 2.59961,9.19922 -7.4,-2.9 -13.90039,-3.99883 -19.90039,-3.79883 -1.9,-0.4 -3.59883,-1.20117 -5.29883,-3.20117 -1,-1.2 -1.40078,-2.59844 -1.30078,-4.398439 z m 0.30078,11.099609 c -2.1,0.8 -4.30039,1.80039 -6.40039,2.90039 -2.6,1.4 -4.90039,3.09844 -6.90039,4.89844 -9,7.8 -13.79883,18.40117 -17.79883,27.20117 -3.2,7.2 -5.90156,13.00039 -9.60156,14.40039 h -0.0996 c -0.2,0.1 -0.39961,0.0992 -0.59961,0.19922 -0.1,0 -0.30039,-2.9e-4 -0.40039,0.0996 h -0.40039 -0.59961 -0.19922 c -0.6,-0.1 -1.3,-0.2 -2,-0.5 -0.1,0 -0.10117,-0.0996 -0.20117,-0.0996 -0.3,-0.1 -0.59883,-0.20039 -0.79883,-0.40039 -0.1,0 -0.20078,-0.0992 -0.30078,-0.19922 -0.3,-0.1 -0.49883,-0.3 -0.79883,-0.5 -0.1,-0.1 -0.20078,-0.10117 -0.30078,-0.20117 l -0.90039,-0.59961 c -0.1,-0.1 -0.19883,-0.0992 -0.29883,-0.19922 L 141.09961,156.5 138,154 l 1,3.80078 c 0.2,0.7 0.39922,1.49922 0.69922,2.19922 0.1,0.3 0.20039,0.60039 0.40039,0.90039 0.1,0.4 0.30039,0.7 0.40039,1 0.2,0.4 0.4,0.79922 0.5,1.19922 0.1,0.2 0.20078,0.50117 0.30078,0.70117 0.2,0.4 0.49922,0.79922 0.69922,1.19922 0.1,0.2 0.20078,0.30039 0.30078,0.40039 0.3,0.4 0.49883,0.89883 0.79883,1.29883 0.1,0.1 0.10117,0.20078 0.20117,0.30078 0.9,1.2 1.9,2.30078 3,3.30078 0.2,0.2 0.39922,0.39961 0.69922,0.59961 0.2,0.1 0.39961,0.30039 0.59961,0.40039 0.4,0.3 0.69961,0.59883 1.09961,0.79883 0.1,0 0.10156,0.0996 0.10156,0.0996 -18.5,4.3 -31.90156,2.90156 -43.60156,-7.39844 -7.600011,-6.7 -8.399611,-16.00039 -7.099611,-21.40039 1.9,-7.9 4.600391,-12 8.400391,-14.5 0.1,5.2 3.09922,11.5 9.69922,14.5 8.5,4 15.90117,3.09961 31.70117,-7.40039 3.9,-2.6 7.5,-5.19961 11,-7.59961 12.4,-8.5 21.2,-15.2 32,-18 z m 12.5,0.29883 c 3.7,0 6.59922,0.60078 8.69922,1.30078 -10.1,3.7 -14.19922,13.20078 -17.69922,23.80078 -2.5,7.6 -4.30078,15.89961 -10.30078,23.59961 -6.7,8.5 -15.39922,11.99922 -23.19922,12.19922 -8,0.2 -12.7,-1.29961 -16,-9.09961 2.2,1.3 13.19883,4.49961 19.79883,-15.90039 3.6,-11 8,-23.7 21,-31 5.8,-3.3 11.80117,-4.90039 17.70117,-4.90039 z m 59,1.30078 c 11,8.2 25.00039,20.1 28.40039,30 14.6,42.6 -15.70117,61.39922 -41.20117,78.69922 C 238.69961,228.09922 231.6,231.3 226,239.5 c -3.3,-20.6 12.50078,-33.60078 25.30078,-51.80078 16.7,-23.9 34.09961,-45.19922 11.09961,-75.69922 z m 32.29883,29 c 17.7,21.2 18.6,41.90078 16.5,56.30078 -3.3,23.5 -18.09844,45.69961 -38.89844,55.59961 -16.3,7.7 -68.40039,31.89961 -56.40039,84.09961 -15.3,-13.1 -20.8,-25.20039 -20,-43.90039 1.1,-25.7 17.20039,-48.7 23.90039,-56 -0.1,4.2 0.39922,8.5 1.69922,13 l 1.5,5.09961 2.19922,-4.89844 c 4.1,-9.2 15.70156,-17.1 28.10156,-25.5 25.3,-17.2 56.69844,-38.50078 41.39844,-83.80078 z M 113,175 c 5.1,2.2 10.69922,3.30078 16.69922,3.30078 2.9,0 5.9,-0.30078 9,-0.80078 -4,3.6 -14.79883,13.7 -27.79883,27.5 -15.199989,-0.2 -27.099999,-2.60039 -30.999999,-11.40039 -3.4,-7.7 -1.49961,-13.59922 2.40039,-17.69922 -0.1,2.8 -0.501172,5.50039 1.798828,8.40039 2.1,2.7 7.001172,3.39961 11.201172,2.59961 C 100.00078,186.00039 107.1,181.4 113,175 Z m 203.98633,5.05273 -0.002,0.002 c 0.37632,2.10343 0.53341,3.35824 0.63671,5.25976 0.1823,1.81866 0.17735,2.31461 0.0137,4.17774 21.67753,44.49121 1.21018,68.36583 -13.63477,93.10742 -9.9,16.5 -19.20078,36.60117 -13.30078,51.20117 4.6,11.3 16.20156,18.49922 29.10156,17.69922 10,-0.6 21.59883,-3.80039 26.79883,-14.90039 1.9,6.9 1.4,14.10078 -3.5,25.30078 -4.8,11 -13.69922,17.9 -27.19922,20.5 -34.6,6.8 -64.40117,-12.09961 -73.20117,-36.09961 -9.16044,-24.85012 3.80757,-63.74556 14.83984,-79.96484 -2.44216,1.34915 -2.75245,1.7587 -4.92187,3.13086 -0.0192,0.01 -2.27983,1.7661 -2.29883,1.7832 -1.61435,1.22053 -3.0598,2.58077 -4.38281,3.80859 l -0.004,0.0117 c 0.004,0.002 0.0175,0.002 0.004,0.0117 -0.005,0.004 -0.0103,0.007 -0.0156,0.01 -9.67527,17.14568 -17.11512,47.57797 -8.32031,71.71484 8.84085,16.34539 21.32379,28.72902 34.84375,35.35352 0.84045,0.39565 1.30611,0.56645 1.94141,0.81836 0.62001,0.26687 1.56434,0.64205 2.21093,0.87695 8.29763,3.20937 17.45991,5.14648 27.20703,5.14648 4.7,0 9.6,-0.50039 14.5,-1.40039 14.6,-2.9 25.2,-10.80039 30.5,-22.90039 4.35703,-9.8033 4.39412,-20.87075 3.03516,-28.95117 -9.5e-4,-0.006 -0.003,-0.012 -0.004,-0.0215 v -0.002 c -9.6e-4,-0.002 -7.5e-4,-0.004 -0.002,-0.006 -3e-4,-0.002 -0.002,-8e-4 -0.002,-0.004 -0.2037,-1.26394 -0.7041,-3.24632 -1.08594,-4.70313 h -0.002 c -0.58732,-2.0108 -1.2631,-3.65164 -1.94141,-4.81445 l -2.40039,-3.89844 -1.20117,4.39844 c -0.1375,0.67812 -0.27266,1.07617 -0.47266,1.63867 -0.44378,1.38799 -1.12319,2.79797 -1.77929,3.92383 -4.84641,8.82312 -14.33295,13.34349 -22.74805,13.9375 -8.8,0.6 -19.8,-3 -24.5,-14.5 -5.2,-12.7 2.60039,-25.59844 12.40039,-41.89844 1.4175,-2.79564 3.81608,-6.08469 5.25448,-8.81887 0.006,-0.002 0.0101,0.001 0.0156,0 14.47752,-25.012 28.00328,-56.18544 3.61914,-100.92969 z m -3.85352,102.26758 c -1.8019,2.99157 -3.26002,5.1951 -4.29116,7.07384 0.45754,8.37582 3.5442,17.34559 9.45703,24.90625 6.2544,8.04138 15.2682,13.22181 24.5957,17.60156 0.8295,-1.61259 1.27944,-2.67433 1.57227,-3.62304 -8.60732,-4.19607 -16.42069,-10.25017 -22.26758,-17.88086 -7.08113,-9.09064 -10.21265,-19.00402 -9.06836,-28.07813 z M 431.90039,315 c 4.4,1.8 8.09961,10.09922 9.09961,19.69922 0.6,6.2 -4.19961,28.5 -26.59961,30 -6.3,0.4 -15.29961,-1.2 -24.09961,-6 1.2,-7.2 1.49844,-15.29922 0.89844,-24.19922 5.7,-2.1 11.00039,-4.99922 15.90039,-8.69922 6.2,5.6 12.89961,7.5 18.09961,5 4.9,-2.4 7.30117,-8.20078 6.70117,-15.80078 z"
       inkscape:connector-curvature="0"
       sodipodi:nodetypes="ccccccscccccccccccscccccccccccscccccccccccccccccccccccccccccccccsccccccccccsccccsccccccccsccsccsccccccsccccsccccccccccccccccccccscccsscssccccccccscccccccccccsccccscccccccccccccscccccccscsccccccccccccccccccccccccccccccccccsccccccccscccccccccccccccccccccscccccccccccsccccccccccsccccsccccccccsccccccccccccccccscccccccccccccccccccccccccccccccccccccccccccccscccccccsccccscscccccccccccscccccccccccccccccccccccccccccccssccccccccccccccccscccccccsccccccccccccccccccscccccccccccscccccccccccccccccsccccccccccccccccccccccccccccccccccccc" /><path
       d="M126.5,227c-0.7,0.1-1.5,0.3-2.3,0.8c-0.4,0.2-0.8,0.5-1.2,0.8c-0.4,0.3-0.8,0.7-1.1,1.1c-0.4,0.4-0.6,0.9-0.8,1.4   c-0.2,0.5-0.3,1.1-0.3,1.6c0,0.3,0,0.5,0,0.8c0,0.2,0.1,0.5,0.1,0.7c0.1,0.4,0.2,0.8,0.4,1.2c0.3,0.7,0.7,1.2,0.9,1.5   c0.3,0.3,0.5,0.5,0.5,0.5s0.1-0.3,0.1-0.7c0-0.2,0.1-0.4,0.1-0.7c0-0.3,0.1-0.6,0.2-0.9c0-0.3,0.1-0.6,0.2-0.9   c0-0.2,0.1-0.3,0.1-0.5c0.1-0.1,0.1-0.3,0.2-0.4c0.1-0.3,0.3-0.6,0.4-0.8c0.2-0.3,0.3-0.5,0.5-0.8c0.2-0.3,0.4-0.5,0.7-0.8   c0.3-0.2,0.5-0.5,0.8-0.7c0.5-0.5,1.1-1,1.6-1.5c0.5-0.5,0.9-0.9,1.2-1.3c0.1-0.2,0.2-0.4,0.2-0.4c0-0.1,0.1-0.2,0.1-0.2   s-0.3,0.1-0.7,0.1C127.8,226.8,127.2,226.8,126.5,227z"
       id="path4" /><path
       d="M203.3,144.3c0.3,0.3,0.6,0.5,0.9,0.8c0.3,0.3,0.7,0.5,1.1,0.8c0.8,0.5,1.8,0.9,2.9,1.2c1.1,0.3,2.3,0.3,3.5,0.2   c2.4-0.2,4.8-1,7-1.6c2.2-0.7,4.4-1,6.3-1.3c0.9-0.2,1.8-0.4,2.7-0.5c0.8-0.1,1.7-0.2,2.4-0.3c0.4,0,0.8,0,1.1-0.1   c0.4,0,0.7,0,1.1,0c0.7,0,1.3,0,1.8,0c1,0.1,1.7,0,1.7,0l0.2-0.5c0,0-0.4-0.5-1.2-1.3c-0.4-0.4-1-0.8-1.6-1.2   c-0.7-0.4-1.5-0.8-2.4-1.1c-1-0.3-2-0.5-3.2-0.6c-1.2-0.1-2.4,0-3.6,0.2c-2.4,0.5-4.6,1.8-6.7,2.7c-2.1,1-4.1,1.9-6,2.5   c-1.9,0.5-3.7,0.5-5.2,0c-0.4-0.1-0.7-0.3-1.1-0.4c-0.3-0.1-0.6-0.3-0.9-0.5c-0.6-0.3-1-0.7-1.4-1c-0.8-0.7-1.2-1.1-1.2-1.1   l-0.4,0.3c0,0,0.3,0.5,0.9,1.3C202.4,143.3,202.8,143.8,203.3,144.3z"
       id="path6" /><path
       id="path8"
       d="m 247.69922,154.19922 c -2.7,1.3 -10.29961,3.80039 -14.59961,1.90039 -6.8,0.1 -9.59883,3.70078 -14.29883,5.80078 -7.6,3.4 -20.10078,4.89883 -29.30078,2.29883 1.2,0.7 2.39922,1.30039 3.69922,1.90039 -0.0135,0.14829 -0.0684,0.26535 -0.14649,0.36328 0.15308,0.0724 0.26182,0.13485 0.76954,0.34961 0.015,0.0127 0.0329,0.0232 0.0488,0.0352 0.72057,0.15165 1.16227,0.33968 1.89063,0.74414 -0.0797,-0.0469 -0.17547,-0.0728 -0.23828,-0.14063 -0.024,-0.0259 0.0721,-0.0154 0.10547,-0.004 0.32331,0.11157 0.63825,0.24719 0.95703,0.37109 0.4355,0.16927 0.80161,0.46699 1.24023,0.61523 -0.0729,-0.0398 -0.29368,-0.15503 -0.21875,-0.11914 3.17433,1.5207 0.83725,0.49574 0.80078,0.3125 -0.0217,-0.10912 0.22298,-0.0139 0.33399,-0.0215 0.14229,-0.01 0.28354,-0.0208 0.42578,-0.0312 0.21507,-0.0107 0.4313,-0.0231 0.64648,-0.0312 1.39519,-0.0528 1.88178,0.2275 2.91211,1.13476 0.0601,0.006 0.11369,0.006 0.17578,0.0137 0.12447,0.0181 0.44582,-0.0235 0.36914,0.0762 -0.0218,0.0283 -0.1267,0.0453 -0.0918,0.0527 0.60069,0.12716 1.34567,-0.96101 2.02929,-0.54687 0.20455,0.01 1.50994,0.0255 1.62891,0.10937 0.31601,-0.16435 0.6329,-0.32743 0.96484,-0.45508 0.12192,-0.0469 0.26196,0.004 0.39258,0.004 0.68892,-0.002 1.37364,-0.0574 2.0625,-0.0586 0.56934,0.0293 1.32292,0.003 1.875,0.20312 0.0184,0.007 -0.56242,0.55281 -0.41015,0.65039 0.29015,-0.372 0.48385,-0.84578 0.87109,-1.11523 0.82953,-0.57723 1.80085,-0.52023 2.7168,-0.3418 0.0601,-0.0405 0.10659,-0.0773 0.46093,-0.24023 0.12602,-0.0579 0.26592,-0.0819 0.39063,-0.14258 0.4671,-0.22743 0.87387,-0.53906 1.37695,-0.69336 0.21041,-0.13915 0.27995,-0.0896 1.27539,-0.4043 0.26223,-0.28372 0.45988,-0.82612 0.90039,-0.41797 0.21943,-0.051 1.25864,-0.29503 1.3125,-0.29101 0.027,0.002 0.0255,0.0107 0.0156,0.0234 0.30647,-0.27374 0.1459,-0.19756 0.9668,-0.64258 1.36812,-0.33555 0.89642,-0.35479 1.9375,-0.26758 0.17216,0.0144 0.34396,0.0333 0.51562,0.0527 0.25749,-0.33648 0.63434,-0.51956 1.51563,-0.84179 0.2062,-0.0754 0.42578,-0.19418 0.64062,-0.16602 0.39635,-0.3601 0.49581,-0.4628 1.24805,-0.76953 0.0712,-0.029 0.15388,-0.0198 0.22656,-0.0449 0.21473,-0.0741 0.41309,-0.19424 0.63281,-0.25195 0.0366,-0.01 0.0647,0.0788 0.0977,0.0605 0.23243,-0.12841 0.42982,-0.31251 0.64453,-0.46875 0.15815,-0.0929 0.29159,-0.26748 0.47461,-0.27929 0.0995,-0.006 -0.12438,0.16209 -0.15234,0.25781 -0.078,0.26719 -0.30993,1.05422 -0.16211,0.81836 0.24762,-0.39509 0.23636,-0.91248 0.47265,-1.31446 0.47567,-0.80922 1.18345,-0.87797 2.00586,-1.18945 0.92431,-0.007 1.8495,-0.0222 2.77344,0.0137 0.6266,0.0132 2.36237,-0.0947 2.37891,-0.0703 0.0343,0.0506 0.0486,0.0664 0.082,0.11523 4.42311,-1.4488 8.44556,-3.24524 10.35742,-6.91601 z m -21.27734,10.21289 c -0.0469,0.0212 -0.10246,0.0445 -0.13086,0.0625 0.0179,0.002 0.0368,0.002 0.0547,0.004 0.0428,-0.0371 0.0388,-0.0335 0.0762,-0.0664 z m -2.12891,1.08984 c -0.009,0.0244 -0.0534,0.12484 -0.0644,0.1543 0.0215,-0.046 0.0447,-0.0991 0.0664,-0.14063 3.5e-4,-0.005 -0.003,-0.008 -0.002,-0.0137 z m -3.27735,0.625 c -0.0649,0.0478 -0.21028,0.12085 -0.26562,0.17578 -0.0136,0.0135 -0.021,0.0685 -0.006,0.0566 0.23219,-0.18126 0.17886,-0.15116 0.27148,-0.23243 z m -30.8164,0.47266 c 0.21221,0.16977 0.44606,0.31274 0.69531,0.4375 0.033,-0.0925 0.063,-0.18643 0.0996,-0.27734 -0.31168,-0.0485 -0.59452,-0.11006 -0.79492,-0.16016 z m 28.59961,0.20312 c -0.12371,0.0452 -0.38781,0.143 -0.25391,0.14063 0.096,-0.002 0.1773,-0.0615 0.25391,-0.14063 z m -3.50977,1.47852 c -0.007,0.0319 -1.04189,0.12259 -0.33008,0.12891 0.24926,-0.0611 0.25029,-0.0733 0.33008,-0.12891 z m -8.62695,1.19141 c -0.0358,0.008 -0.0792,0.0129 -0.0996,0.0273 -0.0221,0.0156 -0.0396,0.0375 -0.0606,0.0547 0.0534,-0.0272 0.1069,-0.0544 0.16016,-0.082 z" /><path
       style="fill:#000000;stroke-width:0.17677669"
       d="m 296.75111,388.58804 c -7.1274,-0.73401 -13.90019,-2.39509 -20.86307,-5.11682 -3.34247,-1.30654 -5.04824,-2.14249 -8.03992,-3.94019 -11.23878,-6.75333 -21.43232,-17.48999 -28.81867,-30.35415 -1.38123,-2.40558 -1.75507,-3.31919 -2.64127,-6.45489 -2.98341,-10.5564 -3.40852,-22.76907 -1.24123,-35.65781 1.7362,-10.32506 4.85551,-20.07073 9.22896,-28.83408 1.36107,-2.72727 1.51576,-2.95624 2.83634,-4.19855 0.76822,-0.72269 2.27066,-1.99959 3.33876,-2.83756 1.88772,-1.481 6.34472,-4.53778 6.45525,-4.42725 0.0302,0.0302 -0.58607,1.12261 -1.36953,2.42753 -7.47598,12.45183 -13.55302,30.8435 -15.44578,46.74541 -0.85427,7.17707 -0.85129,14.62471 0.008,20.59449 0.82516,5.73109 2.72355,11.4713 5.39092,16.30073 7.39521,13.38944 20.7772,23.67984 36.84208,28.33057 7.33486,2.12343 15.40152,3.03982 22.86372,2.5974 15.53089,-0.92079 25.71723,-5.07236 32.63228,-13.29967 2.41069,-2.86817 4.0523,-5.66533 5.81977,-9.91638 3.67687,-8.8435 4.70694,-15.63182 3.36558,-22.17965 -0.42012,-2.05078 -0.45712,-2.06801 -1.23974,-0.57735 -4.22791,8.05287 -13.64239,12.97137 -25.96198,13.56358 -7.25263,0.34864 -13.14244,-1.2041 -18.76795,-4.94782 -2.3204,-1.54419 -5.86359,-4.99213 -7.39692,-7.19804 -1.96091,-2.82107 -3.57523,-6.50804 -4.22784,-9.65605 -1.84948,-8.92133 0.83577,-20.73042 7.93873,-34.91267 2.86863,-5.7277 5.43074,-10.14701 12.18592,-21.01913 4.75125,-7.64689 7.11895,-11.77184 9.45257,-16.46803 1.92622,-3.87632 3.94816,-8.73118 4.96553,-11.92266 1.33959,-4.20231 2.43833,-9.56086 2.82726,-13.78858 0.23217,-2.52376 0.22873,-8.80901 -0.006,-11.4021 -0.80019,-8.83065 -3.50226,-18.29173 -8.0576,-28.21311 -0.98826,-2.1524 -1.14869,-2.63556 -1.04993,-3.16204 l 0.11659,-0.62143 h 1.50268 1.50269 l 0.71242,1.5468 c 4.4836,9.73458 7.60129,21.381 8.45886,31.59883 0.23355,2.78261 0.2309,10.07812 -0.005,12.93927 -0.7624,9.25896 -3.18375,18.55975 -7.44654,28.60325 -2.30817,5.43826 -6.96021,14.35299 -10.65473,20.41771 -10.50589,17.24588 -14.19057,24.14881 -16.28671,30.51172 -1.12129,3.40369 -1.49186,5.37585 -1.61073,8.57219 -0.15929,4.28334 0.50926,7.48978 2.32252,11.13894 1.21565,2.44648 2.32685,3.98375 4.3378,6.00109 3.3131,3.3236 6.95367,5.26843 11.9861,6.40306 1.488,0.33549 2.23613,0.38665 5.60624,0.38334 4.44002,-0.004 5.85295,-0.22608 9.53825,-1.49683 6.67069,-2.30015 11.79177,-6.46306 15.10754,-12.28088 1.16089,-2.03687 1.79421,-3.69329 2.68957,-7.03441 0.39627,-1.47874 0.74083,-2.7106 0.76568,-2.73745 0.0713,-0.077 2.29798,3.64719 2.88296,4.8218 1.0876,2.18381 2.23205,6.53935 2.81019,10.69499 0.43592,3.13338 0.43756,11.04748 0.003,14.14213 -2.03427,14.48436 -9.24261,24.97418 -21.32505,31.03297 -5.27644,2.64589 -10.19767,4.0314 -17.95215,5.05415 -3.58882,0.47336 -12.50199,0.6028 -16.08668,0.23363 z"
       id="path159"
       inkscape:connector-curvature="0" /><path
       style="fill:#000000;stroke-width:0.17677669"
       d="m 298.43049,388.74972 c -8.21348,-0.73113 -15.69278,-2.50955 -23.18675,-5.51333 -13.6638,-5.47677 -27.11646,-18.18005 -36.39779,-34.37024 -1.34525,-2.34663 -2.17184,-4.65032 -3.16425,-8.81873 -4.35696,-18.3004 -1.01641,-42.26352 8.5901,-61.6204 1.41391,-2.849 1.59245,-3.12019 2.82489,-4.29089 1.91001,-1.81432 4.76621,-4.0521 7.47543,-5.85686 1.3028,-0.86786 2.3952,-1.55147 2.42754,-1.51913 0.0324,0.0324 -0.57752,1.12692 -1.35525,2.43238 -6.90412,11.58889 -12.61592,28.03685 -14.9138,42.94646 -0.73892,4.79442 -1.00304,7.79531 -1.11247,12.63953 -0.25308,11.20348 1.32523,18.9692 5.50106,27.06677 8.09958,15.7063 24.71044,27.33975 44.1189,30.89876 4.33271,0.79448 7.31883,1.04786 12.37437,1.04996 5.03806,0.002 8.03972,-0.244 12.64545,-1.03671 11.99586,-2.06464 20.20496,-6.8791 25.73872,-15.09521 3.26276,-4.84429 6.25806,-12.62087 7.33017,-19.03104 0.39538,-2.36394 0.39999,-6.8718 0.009,-9.00328 -0.3784,-2.06401 -0.62997,-2.94728 -0.8081,-2.8372 -0.0789,0.0488 -0.52148,0.76219 -0.9835,1.58538 -4.31279,7.68427 -13.49675,12.35651 -25.51704,12.98151 -7.22096,0.37546 -13.175,-1.17089 -18.76585,-4.87377 -2.39362,-1.58532 -6.0919,-5.16268 -7.54455,-7.29786 -2.18546,-3.21232 -3.77129,-7.06046 -4.40744,-10.69499 -0.45025,-2.57247 -0.41501,-7.36109 0.0781,-10.60661 1.54701,-10.18293 6.66734,-22.13265 16.05836,-37.47666 1.07111,-1.75008 3.30051,-5.36959 4.95422,-8.04334 7.15991,-11.57626 10.80865,-18.74403 13.2921,-26.11169 1.60957,-4.77513 2.77053,-10.22296 3.20853,-15.05609 0.2712,-2.99258 0.12136,-10.63867 -0.26369,-13.45621 -1.1938,-8.73526 -3.55789,-16.53395 -7.91604,-26.11357 -0.8951,-1.96751 -1.04473,-2.43576 -0.94619,-2.96101 l 0.11705,-0.62391 h 1.50601 1.50601 l 0.67342,1.45841 c 3.93421,8.52019 6.86231,18.65904 8.15574,28.24008 0.53505,3.96333 0.67002,12.84173 0.26067,17.14734 -1.49566,15.7316 -7.14302,30.43139 -19.45739,50.64652 -9.04233,14.84379 -12.84162,22.03513 -14.85376,28.11532 -1.25562,3.79419 -1.58283,5.7945 -1.57469,9.6265 0.006,2.82138 0.0639,3.50093 0.42181,4.94975 1.09279,4.42358 3.12542,8.08559 6.18779,11.14796 3.28741,3.2874 7.27377,5.36978 12.38963,6.47204 2.28496,0.49231 8.43629,0.44496 10.83459,-0.0834 7.87821,-1.73564 14.18011,-5.89218 18.14535,-11.96813 1.50395,-2.30451 2.40658,-4.36969 3.28373,-7.51301 0.44766,-1.60425 0.87234,-3.10864 0.94372,-3.34309 0.11658,-0.38287 0.24017,-0.24666 1.21385,1.33779 2.07624,3.37863 2.89508,5.43592 3.82362,9.60669 0.85938,3.8601 1.06719,6.05668 1.07035,11.31371 0.002,3.69185 -0.0717,5.39296 -0.30741,7.07107 -2.14577,15.27828 -10.01553,26.08123 -23.28917,31.96945 -4.7037,2.08658 -9.61778,3.33356 -16.51836,4.19162 -2.19417,0.27284 -11.8977,0.49756 -13.87697,0.32136 z"
       id="path4636"
       inkscape:connector-curvature="0" /><path
       style="fill:#000000;stroke-width:0.17677669"
       d="m 298.43049,388.74972 c -8.21348,-0.73113 -15.69278,-2.50955 -23.18675,-5.51333 -13.6638,-5.47677 -27.11646,-18.18005 -36.39779,-34.37024 -1.34525,-2.34663 -2.17184,-4.65032 -3.16425,-8.81873 -4.35696,-18.3004 -1.01641,-42.26352 8.5901,-61.6204 1.41391,-2.849 1.59245,-3.12019 2.82489,-4.29089 1.91001,-1.81432 4.76621,-4.0521 7.47543,-5.85686 1.3028,-0.86786 2.3952,-1.55147 2.42754,-1.51913 0.0324,0.0324 -0.57752,1.12692 -1.35525,2.43238 -6.90412,11.58889 -12.61592,28.03685 -14.9138,42.94646 -0.73892,4.79442 -1.00304,7.79531 -1.11247,12.63953 -0.25308,11.20348 1.32523,18.9692 5.50106,27.06677 8.09958,15.7063 24.71044,27.33975 44.1189,30.89876 4.33271,0.79448 7.31883,1.04786 12.37437,1.04996 5.03806,0.002 8.03972,-0.244 12.64545,-1.03671 11.99586,-2.06464 20.20496,-6.8791 25.73872,-15.09521 3.26276,-4.84429 6.25806,-12.62087 7.33017,-19.03104 0.39538,-2.36394 0.39999,-6.8718 0.009,-9.00328 -0.3784,-2.06401 -0.62997,-2.94728 -0.8081,-2.8372 -0.0789,0.0488 -0.52148,0.76219 -0.9835,1.58538 -4.31279,7.68427 -13.49675,12.35651 -25.51704,12.98151 -7.22096,0.37546 -13.175,-1.17089 -18.76585,-4.87377 -2.39362,-1.58532 -6.0919,-5.16268 -7.54455,-7.29786 -2.18546,-3.21232 -3.77129,-7.06046 -4.40744,-10.69499 -0.45025,-2.57247 -0.41501,-7.36109 0.0781,-10.60661 1.54701,-10.18293 6.66734,-22.13265 16.05836,-37.47666 1.07111,-1.75008 3.30051,-5.36959 4.95422,-8.04334 7.15991,-11.57626 10.80865,-18.74403 13.2921,-26.11169 1.60957,-4.77513 2.77053,-10.22296 3.20853,-15.05609 0.2712,-2.99258 0.12136,-10.63867 -0.26369,-13.45621 -1.1938,-8.73526 -3.55789,-16.53395 -7.91604,-26.11357 -0.8951,-1.96751 -1.04473,-2.43576 -0.94619,-2.96101 l 0.11705,-0.62391 h 1.50601 1.50601 l 0.67342,1.45841 c 3.93421,8.52019 6.86231,18.65904 8.15574,28.24008 0.53505,3.96333 0.67002,12.84173 0.26067,17.14734 -1.49566,15.7316 -7.14302,30.43139 -19.45739,50.64652 -9.04233,14.84379 -12.84162,22.03513 -14.85376,28.11532 -1.25562,3.79419 -1.58283,5.7945 -1.57469,9.6265 0.006,2.82138 0.0639,3.50093 0.42181,4.94975 1.09279,4.42358 3.12542,8.08559 6.18779,11.14796 3.28741,3.2874 7.27377,5.36978 12.38963,6.47204 2.28496,0.49231 8.43629,0.44496 10.83459,-0.0834 7.87821,-1.73564 14.18011,-5.89218 18.14535,-11.96813 1.50395,-2.30451 2.40658,-4.36969 3.28373,-7.51301 0.44766,-1.60425 0.87234,-3.10864 0.94372,-3.34309 0.11658,-0.38287 0.24017,-0.24666 1.21385,1.33779 2.07624,3.37863 2.89508,5.43592 3.82362,9.60669 0.85938,3.8601 1.06719,6.05668 1.07035,11.31371 0.002,3.69185 -0.0717,5.39296 -0.30741,7.07107 -2.14577,15.27828 -10.01553,26.08123 -23.28917,31.96945 -4.7037,2.08658 -9.61778,3.33356 -16.51836,4.19162 -2.19417,0.27284 -11.8977,0.49756 -13.87697,0.32136 z"
       id="path4638"
       inkscape:connector-curvature="0" /><path
       style="fill:#e80000;stroke-width:0.17677669;fill-opacity:1"
       d="m 298.43049,388.74972 c -8.21348,-0.73113 -15.69278,-2.50955 -23.18675,-5.51333 -13.6638,-5.47677 -27.11646,-18.18005 -36.39779,-34.37024 -1.34525,-2.34663 -2.17184,-4.65032 -3.16425,-8.81873 -4.35696,-18.3004 -1.01641,-42.26352 8.5901,-61.6204 1.41391,-2.849 1.59245,-3.12019 2.82489,-4.29089 1.91001,-1.81432 4.76621,-4.0521 7.47543,-5.85686 1.3028,-0.86786 2.3952,-1.55147 2.42754,-1.51913 0.0324,0.0324 -0.57752,1.12692 -1.35525,2.43238 -6.90412,11.58889 -12.61592,28.03685 -14.9138,42.94646 -0.73892,4.79442 -1.00304,7.79531 -1.11247,12.63953 -0.25308,11.20348 1.32523,18.9692 5.50106,27.06677 8.09958,15.7063 24.71044,27.33975 44.1189,30.89876 4.33271,0.79448 7.31883,1.04786 12.37437,1.04996 5.03806,0.002 8.03972,-0.244 12.64545,-1.03671 11.99586,-2.06464 20.20496,-6.8791 25.73872,-15.09521 3.26276,-4.84429 6.25806,-12.62087 7.33017,-19.03104 0.39538,-2.36394 0.39999,-6.8718 0.009,-9.00328 -0.3784,-2.06401 -0.62997,-2.94728 -0.8081,-2.8372 -0.0789,0.0488 -0.52148,0.76219 -0.9835,1.58538 -4.31279,7.68427 -13.49675,12.35651 -25.51704,12.98151 -7.22096,0.37546 -13.175,-1.17089 -18.76585,-4.87377 -2.39362,-1.58532 -6.0919,-5.16268 -7.54455,-7.29786 -2.18546,-3.21232 -3.77129,-7.06046 -4.40744,-10.69499 -0.45025,-2.57247 -0.41501,-7.36109 0.0781,-10.60661 1.54701,-10.18293 6.66734,-22.13265 16.05836,-37.47666 1.07111,-1.75008 3.30051,-5.36959 4.95422,-8.04334 7.15991,-11.57626 10.80865,-18.74403 13.2921,-26.11169 1.60957,-4.77513 2.77053,-10.22296 3.20853,-15.05609 0.2712,-2.99258 0.12136,-10.63867 -0.26369,-13.45621 -1.1938,-8.73526 -3.55789,-16.53395 -7.91604,-26.11357 -0.8951,-1.96751 -1.04473,-2.43576 -0.94619,-2.96101 l 0.11705,-0.62391 h 1.50601 1.50601 l 0.67342,1.45841 c 3.93421,8.52019 6.86231,18.65904 8.15574,28.24008 0.53505,3.96333 0.67002,12.84173 0.26067,17.14734 -1.49566,15.7316 -7.14302,30.43139 -19.45739,50.64652 -9.04233,14.84379 -12.84162,22.03513 -14.85376,28.11532 -1.25562,3.79419 -1.58283,5.7945 -1.57469,9.6265 0.006,2.82138 0.0639,3.50093 0.42181,4.94975 1.09279,4.42358 3.12542,8.08559 6.18779,11.14796 3.28741,3.2874 7.27377,5.36978 12.38963,6.47204 2.28496,0.49231 8.43629,0.44496 10.83459,-0.0834 7.87821,-1.73564 14.18011,-5.89218 18.14535,-11.96813 1.50395,-2.30451 2.40658,-4.36969 3.28373,-7.51301 0.44766,-1.60425 0.87234,-3.10864 0.94372,-3.34309 0.11658,-0.38287 0.24017,-0.24666 1.21385,1.33779 2.07624,3.37863 2.89508,5.43592 3.82362,9.60669 0.85938,3.8601 1.06719,6.05668 1.07035,11.31371 0.002,3.69185 -0.0717,5.39296 -0.30741,7.07107 -2.14577,15.27828 -10.01553,26.08123 -23.28917,31.96945 -4.7037,2.08658 -9.61778,3.33356 -16.51836,4.19162 -2.19417,0.27284 -11.8977,0.49756 -13.87697,0.32136 z"
       id="path4640"
       inkscape:connector-curvature="0" /><path
       style="fill:#e80000;fill-opacity:1;stroke-width:0.354;stroke:url(#linearGradient4648);stroke-miterlimit:4;stroke-dasharray:none"
       d="m 317.74333,184.94001 c -0.1387,-1.56681 -0.18775,-2.91318 -0.109,-2.99192 0.0787,-0.0788 0.81089,1.20319 1.62701,2.84875 l 1.48384,2.99193 h -1.37484 -1.37484 z"
       id="path4642"
       inkscape:connector-curvature="0" /><path
       style="fill:#e80000;fill-opacity:1;stroke:#ff007f;stroke-width:0.12515791;stroke-miterlimit:4;stroke-dasharray:none;stroke-opacity:1"
       d="m 293.7035,388.07791 c -13.52426,-2.15441 -24.3616,-6.67013 -33.4108,-13.92167 -8.21366,-6.58198 -18.0419,-18.55178 -21.95432,-26.73812 -2.31294,-4.83961 -3.71573,-11.52927 -4.185,-19.95764 -0.89977,-16.16044 2.86318,-34.12954 10.21514,-48.78003 1.40932,-2.80841 2.16805,-3.86208 3.84206,-5.33561 2.38297,-2.09757 7.87187,-6.09202 8.08222,-5.88168 0.0772,0.0772 -0.44794,1.14416 -1.16698,2.37101 -6.65438,11.35397 -12.29122,27.97953 -14.68555,43.31427 -1.04695,6.70529 -1.12862,19.41392 -0.15889,24.72374 4.47484,24.50221 27.10184,43.20627 55.43649,45.82522 10.77478,0.99591 23.87715,-1.03903 31.5732,-4.90366 8.42584,-4.23109 13.41371,-10.06455 17.37424,-20.31967 2.00936,-5.20288 2.9541,-9.77816 2.95462,-14.30892 3.6e-4,-3.78083 -0.49812,-7.53081 -1.00111,-7.53005 -0.12973,2e-4 -0.67851,0.78847 -1.21951,1.75172 -2.35451,4.19215 -7.26458,8.18596 -12.55443,10.21164 -4.98332,1.9083 -7.74782,2.3552 -14.56942,2.3552 -5.49895,0 -6.48214,-0.0922 -8.83884,-0.82839 -9.91135,-3.09635 -17.42739,-10.79079 -19.63576,-20.10182 -0.97669,-4.11799 -0.58805,-12.11386 0.85312,-17.55186 2.73152,-10.30687 6.75352,-18.57552 18.08416,-37.17836 6.77241,-11.11907 9.67075,-16.27205 11.93157,-21.2132 3.00351,-6.56434 4.91898,-12.88775 5.92441,-19.55782 0.60303,-4.0005 0.67893,-12.40747 0.15069,-16.69068 -0.88307,-7.16031 -3.30224,-15.54709 -6.87296,-23.8272 -2.39939,-5.56392 -2.42561,-5.86201 -0.51562,-5.86201 h 1.43433 l 1.24902,2.74004 c 2.70562,5.93544 5.59495,15.5738 7.07457,23.59969 0.53232,2.88747 0.65138,5.31769 0.64956,13.25825 -0.002,10.80379 -0.31328,13.28582 -2.79516,22.32208 -2.62642,9.56253 -7.98528,21.05451 -16.29931,34.95357 -9.6233,16.08783 -13.25884,23.00622 -15.14175,28.8146 -3.29985,10.17934 -1.55236,18.68955 5.2305,25.47242 4.95771,4.95771 9.85485,6.87771 17.5422,6.87771 8.26677,0 14.92785,-2.66552 20.43428,-8.17705 3.32077,-3.32384 5.63828,-7.46678 6.94618,-12.41743 0.34676,-1.31257 0.73207,-2.38649 0.85625,-2.38649 0.47212,0 2.87996,4.66228 3.69102,7.1469 2.20793,6.76382 2.69696,17.50281 1.13964,25.02646 -3.71822,17.96334 -15.49079,28.8385 -35.03664,32.36583 -4.51252,0.81435 -18.34275,1.02156 -22.62742,0.33901 z"
       id="path4650"
       inkscape:connector-curvature="0" /><path
       style="fill:#ff007f;fill-opacity:1;stroke:#ff007f;stroke-width:0.12515791;stroke-miterlimit:4;stroke-dasharray:none;stroke-opacity:1"
       d="m 291.93573,387.58594 c -12.8743,-2.38581 -23.05615,-6.75453 -31.41593,-13.47963 -5.74249,-4.61959 -13.20555,-12.90066 -17.89281,-19.85401 -4.67718,-6.93839 -6.40941,-11.46985 -7.68063,-20.09243 -0.90577,-6.14369 -0.81984,-17.68475 0.18317,-24.60139 1.94015,-13.37902 7.68142,-30.07412 11.97745,-34.8293 1.36488,-1.51077 8.21123,-6.82639 8.46514,-6.57248 0.0819,0.0819 -1.04128,2.43709 -2.49599,5.23372 -5.73288,11.02127 -10.42942,25.38779 -12.58455,38.49559 -0.9398,5.71601 -1.31682,17.40859 -0.73347,22.7477 2.43236,22.26251 20.05402,40.8875 44.69636,47.24126 13.08112,3.37283 28.58585,2.69863 40.1058,-1.74394 6.56126,-2.53029 12.97154,-7.86096 16.44334,-13.67399 1.97222,-3.30219 4.51559,-9.38428 5.60236,-13.39718 1.27592,-4.71133 1.32525,-15.90903 0.0719,-16.3268 -0.21522,-0.0717 -0.89466,0.68761 -1.50986,1.68744 -3.19208,5.18779 -8.50563,8.94629 -15.78355,11.16436 -2.99652,0.91324 -3.5338,0.96261 -10.75548,0.98825 l -7.6014,0.027 -2.98488,-1.1492 c -7.35466,-2.83156 -12.83782,-7.63414 -16.04515,-14.05358 -1.95289,-3.9087 -2.45579,-6.36388 -2.42604,-11.84404 0.0687,-12.65317 4.07862,-22.67604 19.16641,-47.90649 11.33058,-18.9475 15.15066,-27.13347 17.33182,-37.14005 0.97705,-4.48244 1.36481,-16.57792 0.69013,-21.52694 -0.88469,-6.48948 -3.07785,-14.01063 -6.67197,-22.88071 -0.99686,-2.46018 -1.81247,-4.72734 -1.81247,-5.03813 0,-0.41137 0.34062,-0.56508 1.25222,-0.56508 1.20414,0 1.29349,0.0917 2.32667,2.38649 2.93812,6.52594 6.62683,19.6088 7.39662,26.23379 0.67397,5.80047 0.25169,21.48445 -0.6971,25.8908 -2.8285,13.13606 -8.10588,25.13839 -19.71483,44.83743 -9.08461,15.41551 -11.55848,20.25417 -13.74963,26.89298 -0.88719,2.68804 -0.98668,3.48808 -1.00833,8.1088 -0.0211,4.50528 0.077,5.41897 0.80922,7.53983 1.77312,5.13545 6.94413,11.06016 11.7528,13.46584 3.80136,1.90174 6.86538,2.43738 12.79682,2.23708 5.63124,-0.19017 7.96532,-0.69846 11.79751,-2.56913 6.82654,-3.33235 11.79628,-9.11873 14.11203,-16.43098 0.52345,-1.65286 1.06557,-3.13247 1.20471,-3.28801 0.32992,-0.36882 2.56797,3.91482 3.50592,6.71032 1.9265,5.74188 2.56192,17.3399 1.30922,23.89673 -3.39056,17.7468 -14.59878,28.79376 -33.27063,32.79194 -2.98144,0.63841 -5.03159,0.77934 -13.08147,0.89921 -8.20108,0.12211 -10.04404,0.0498 -13.08148,-0.51305 z"
       id="path4652"
       inkscape:connector-curvature="0" /></g></svg>