<?xml version="1.0" encoding="utf-8"?>
<!-- Generator: Adobe Illustrator 22.1.0, SVG Export Plug-In . SVG Version: 6.00 Build 0)  -->
<svg version="1.1" id="Layer_1" xmlns="http://www.w3.org/2000/svg" xmlns:xlink="http://www.w3.org/1999/xlink" x="0px" y="0px"
	 viewBox="0 0 500 500" style="enable-background:new 0 0 500 500;" xml:space="preserve">
<g>
	<path d="M441.7,340.2c-0.7-6.6-3.1-13.2-6.7-18.1c-3.5-4.7-7.6-7.4-11.5-7.4c-0.2,0-0.3,0-0.5,0l-3.9,0.2l-0.1,0l0.6,4
		c1,6.3-0.3,11.1-3.3,12.6c-2.5,1.2-6.2,0.2-10-2.5c2.5-2.3,4.9-4.8,6.9-7.4c13.9-17.5,17.9-40.3,11.1-64.1l-1.6-5.5l-4.3,3.8
		c-6.3,5.5-16.8,11.4-27.5,11.4c-1.4,0-2.8-0.1-4.2-0.3c-9-1.4-16.7-7.5-23-18c-0.4-0.7-0.8-1.5-1.2-2.3
		c9.5,9.1,21.6,13.2,29.4,13.2c0.8,0,1.5-0.1,2.2-0.1c0.2,0,0.5,0,0.7-0.1c21.4-1.6,32.2-12.3,32.2-31.9c0-10.5-12.2-26.7-20-26.7
		c-0.1,0-0.2,0-0.4,0l-3.9,0.2l-0.1,0l0.6,4c1.2,7.4,0.5,12.4-0.8,13.3c-1.5,1.1-3.8,1-6.4-0.4c-9.9-5-21.5-24.4-21.6-62.6
		c0-19.4-6.9-35.8-20.3-48.7c-5.9-5.7-12.9-10.6-20.8-14.6c-6.4-3.2-13.4-5.9-20.8-7.8c-12.9-3.4-23.2-3.7-26-3.7
		c-6.4-1.6-12.8-2.5-19-2.5c-14.1,0-25.4,4.3-34.5,7.7l-1.1,0.4c-4.4-4.6-9.8-10.9-13-18.9l-1.9-4.9l-3.9,3.5
		c-2.7,2.4-4.8,5.7-6.2,9.7c-3.6-4.5-6.1-8.6-7.8-13l-1.9-4.9l-3.9,3.5c-2.2,2-4.1,4.6-5.5,7.8c-0.1-0.1-0.3-0.2-0.4-0.3l-1.2-0.8
		c-0.3-0.2-0.6-0.3-0.9-0.4l-0.5-0.2c0.1-0.9,0.1-1.8,0.1-2.6l0-0.1c0-0.1,0-0.2,0-0.3l0,0c0-0.3-0.1-0.7-0.2-1l-0.2-0.6l-0.3-0.8
		c0-0.1-0.1-0.1-0.1-0.2l0,0c-0.1-0.2-0.2-0.5-0.4-0.9l-0.1-0.3c-0.2-0.3-0.4-0.7-0.6-1l-0.7-0.9l-0.1-0.1c-0.2-0.2-0.4-0.4-0.6-0.6
		l-0.2-0.2c-0.3-0.3-0.5-0.5-0.8-0.7c-0.1-0.1-0.2-0.1-0.2-0.2c-0.3-0.2-0.7-0.5-1-0.7c-0.6-0.4-1.3-0.8-2-1.2
		c-0.1-0.1-0.3-0.2-0.4-0.2l-0.1-0.3c-0.1-0.5-0.2-0.9-0.3-1.2l-0.1-0.2c0-0.1-0.1-0.2-0.1-0.2l0,0c-0.1-0.3-0.2-0.6-0.4-1
		c-0.1-0.2-0.2-0.3-0.3-0.5l0,0c-0.3-0.5-0.5-1-1-1.5c-0.1-0.1-0.2-0.3-0.3-0.4l0,0c-0.3-0.4-0.7-0.9-1.1-1.2l-0.4-0.4
		c-0.4-0.4-0.8-0.7-1.2-1l-2-1.3c-0.2-0.2-0.5-0.4-0.8-0.5l-1.5-0.7c-0.3-0.9-0.7-1.8-1.2-2.7l-0.1-0.1c-0.2-0.3-0.4-0.6-0.5-0.8
		c-0.5-0.9-1.1-1.8-1.8-2.5l-0.3-0.4c-0.7-0.9-1.5-1.9-2.4-2.7l-1.4-1.3c-0.6-0.6-1.1-1.1-1.6-1.4l-3-2.3c-0.7-0.6-1.5-1-2.2-1.5
		l0,0c-0.3-0.2-0.7-0.4-1.1-0.7c-0.4-0.2-0.7-0.4-1.1-0.7l0,0c-0.7-0.5-1.5-0.9-2.3-1.3l-5.9-2.9l-1.6-0.4c-0.2,0-0.5,0-0.8,0
		l-0.2,0c-1,0.2-1.8,0.7-2.4,1.4c-0.1,0.1-0.1,0.2-0.3,0.4c-0.1,0.2-0.2,0.4-0.3,0.6c-0.2,0.5-0.2,0.9-0.3,1.2l0,0.3l0,0.2
		c0,0.2,0.1,0.8,0.2,1.1l0.4,1.3c0.3,1.1,0.7,2.3,1,3.5l0.2,0.8c0.2,0.9,0.5,1.8,0.7,2.7c0.3,1.1,0.5,2.2,0.7,3.5
		c0.1,0.5,0.1,0.9,0.2,1.4l0,0.1c0.1,0.7,0.2,1.5,0.3,2.3c0.3,1.6,0.9,3,1.8,4.3c0.5,0.8,1.2,1.5,2.1,2.3c0,0.2,0,0.4,0,0.5l0,0.2
		c0,0.2,0,0.5,0.1,0.9l0.2,0.9l0,0.1c0.1,0.3,0.1,0.5,0.2,0.7l0.1,0.1c0.1,0.3,0.2,0.6,0.4,0.9l0.1,0.2c0.2,0.4,0.4,0.8,0.6,1
		l0.1,0.2c0.1,0.2,0.3,0.4,0.4,0.6l0.2,0.2c0.3,0.4,0.6,0.8,1,1.1c0.4,0.5,0.9,0.8,1.4,1.2c0.5,0.4,1,0.7,1.6,1.1
		c0,0.9,0,1.9,0.2,2.8c0.1,0.7,0.3,1.4,0.6,2.2c0.3,0.7,0.6,1.4,1,2c0.1,0.2,0.3,0.4,0.4,0.7l0.2,0.2c0.2,0.2,0.3,0.5,0.6,0.7l0,0
		c0.1,0.1,0.1,0.1,0.2,0.2c0.5,0.5,1,1.1,1.7,1.6l0.8,0.6l0.9,0.6c0.2,0.1,0.5,0.3,0.8,0.5c0.5,2.4,1.4,4.6,2.7,6.5
		c0.2,0.3,0.4,0.6,0.7,0.9l0.2,0.2c0.1,0.2,0.3,0.4,0.5,0.6c0.5,0.6,1.1,1.1,1.6,1.5l0.1,0.1c0.5,0.4,1,0.7,1.6,1.1
		c0.2,0.1,0.4,0.2,0.6,0.3c0,0.2,0,0.4,0.1,0.5c0,0.5,0.2,1,0.3,1.5c0,0.2,0.1,0.3,0.1,0.5c0.1,0.3,0.2,0.6,0.3,0.8l0,0
		c0,0.1,0.1,0.1,0.1,0.3l0.3,0.9l0.1,0.2c0.2,0.4,0.4,0.8,0.7,1.2l0.3,0.5l0.1,0.2c0.3,0.4,0.6,0.7,0.8,1l0.3,0.4
		c0.4,0.5,0.8,0.8,1.1,1.1l0,0c0.1,0.1,0.3,0.2,0.4,0.4l0.7,0.6l1.4,0.9c0,0.7,0,1.3,0.1,2c-7.7,1.5-14.8,3.9-21,7.1
		c-15.5,7.8-25.8,20.1-30.6,36.5c-0.5,1.6-1.3,3.9-2,5.9c-2.9,0.2-5.5-0.5-7.7-1.8c-5.2-3.3-7.1-10.5-6.5-14.5l0.7-4.7l0-0.1
		l-4.6,1.5c-6.3,2.1-12.4,10.6-14.8,20.5c-1.5,6.3-2.6,18.1,6.8,27.5c2.1,2.1,4.5,4,7,5.6c-4.3,4.2-8.8,7-12.7,7.7
		c-0.7,0.1-1.3,0.2-1.9,0.2c-1.2,0-2.8-0.3-3.8-1.5c-1.4-1.8-1.1-5.3,0.7-9.2l1.4-3l-3.1-1.1c-3.6-1.3-7.7-0.1-10.8,3.3
		c-4.8,5.1-7.6,15.6-3.5,25c2.4,5.6,9.5,15.1,29.4,16.8c-2.7,3-5.4,6.1-7.9,9c-4.8,5.6-1.5,12.1,1.4,17.8c1.2,2.4,2.5,5,3.2,7.4
		c1.3,4.4,5.7,8.5,11.8,11.2c4.1,1.8,8.4,2.7,12.5,2.7c3.2,0,6.1-0.6,8.4-1.7c3.9-2,7.8-5.3,11.5-8.5c4.1-3.6,8.8-7.6,11.7-7.6
		c0.4,0,0.9,0,1.6,0c22.4,0.4,41.2-1.5,56-5.6c-5.2,6.4-10.3,14.9-14.1,23.3c-5.1,11.3-7.9,22.4-8.4,32.9
		c-0.9,22.1,8.5,40.9,27.9,55.7c9.5,24.8,2.7,36.9-2.3,41.9c-4.2,4.3-9.3,5.8-12.7,5.8c-1.1,0-2-0.2-2.8-0.4l-5.5-2.1l-0.1,0
		l0.6,5.9c1,9,8.9,19,19.7,24.9c4.8,2.6,13.9,4.5,21.5,4.5c3.2,0,7.1-0.2,11.1-1.4c-0.7,12.2,2.4,23.1,8.7,30.8
		c6.9,8.4,17,12.7,30.2,12.9l8.8,0.1l0.1,0l-6.3-6.3c-6.5-6.5-8.8-14.2-6.4-21.6c2.6-8,10.2-14.1,19.3-15.6
		c32.4-5.2,76.7-17.3,88.1-61.7c7.7,4.6,16.8,7,21.8,7c11.1-0.1,20.4-4,27-11.3C440.6,358.9,442.5,347.8,441.7,340.2z M425.5,320.8
		c2.5,1,4.9,4.4,6.6,9.1c-1-0.1-2.2,0-3.6,0.2c-1.4,0.2-2.9,0.5-4.5,0.9C425.3,328.3,425.8,324.8,425.5,320.8z M406.7,335.8
		c-2.5,0.1-5.2,0-8-0.4c-0.9-0.1-1.8-0.3-2.8-0.5c1.7-1,3.3-2.1,4.8-3.3C402.6,333.4,404.6,334.8,406.7,335.8z M419.2,273.1l0.1,0.2
		c0.1,0.7,0.2,1.5,0.3,2.4c-0.5,2.5-0.9,5.1-1.2,7c-0.6,3.6-1.2,7.4-2,11.1c-1.2,5.3-3.2,10.7-6.5,17c-0.4,0.7-0.8,1.3-1.2,2
		c-0.4,0.6-0.8,1.2-1.2,1.8c-0.4,0.5-0.7,1.1-1.1,1.7c-0.4,0.7-0.9,1.4-1.3,2c-4.1,5.2-8.8,9.4-13.8,12.6c-0.1-1.7-0.2-3.1-0.3-4.4
		c8.1-6.5,14.4-15.2,19.3-26.8c3.8-9,7.4-18.7,7.8-28.2C418.5,272.1,418.9,272.6,419.2,273.1z M411.5,272c1.1-0.5,2-1.1,2.9-1.7
		c-0.1,9.6-4.1,19.6-7.1,27c-4.1,10.2-9.7,18.5-16.7,24.7c-0.2-1.8-0.5-3.5-0.7-5.2c8.4-8.8,14.6-19.3,18-30.1
		C409.4,281.5,410.6,276.1,411.5,272z M407.2,273.7c-0.8,3.4-1.7,7-2.7,10.9c-2.6,9.5-7.9,19-15.5,27.5c-0.4-2.2-1-4.4-1.5-6.5
		c7.8-8.8,13.6-19.3,17.2-31.2C405.6,274.2,406.4,273.9,407.2,273.7z M384.9,274.6c0.3,0.1,0.5,0.1,0.8,0.2c0.2,0,0.4,0.1,0.5,0.1
		c0.1,0,0.2,0,0.3,0c-1.6,4-3.6,7.7-6.1,11c-0.4-0.9-0.8-1.8-1.3-2.7c2.3-2.2,4.1-5.1,5.5-8.6C384.8,274.5,384.9,274.6,384.9,274.6z
		 M380.2,273.2c0.3,0.1,0.6,0.2,0.9,0.3c-1,2.4-2.2,4.4-3.6,6c-0.3-0.7-0.7-1.3-1-1.9C377.6,276.3,378.8,274.9,380.2,273.2z
		 M372.4,268.9l0.3,1.5c-0.8,1-1.6,1.9-2.4,2.9c-0.3-2.3-0.7-4.6-1.1-6.9C370.3,267.3,371.4,268.2,372.4,268.9z M363.8,260.9
		c1.1,5,2,10.5,2.8,16.6c-1.3,1.4-2.6,2.8-4,4.2c-1-11.3-2.8-20.2-5.4-28c-3.7-10.6-9.1-18.6-16.1-23.7c0.7-2.5,1.2-5.1,1.7-7.6
		c3.6,2.3,7,5.7,9.8,9.9c0.5,8.6,2.1,14.9,5.1,20C359.5,255.4,361.6,258.3,363.8,260.9z M354.1,298.6c0.7-0.6,1.5-1.2,2.3-1.8
		c6.8,10.2,10,24.7,8.6,38.8c-1.3-0.1-2.7-0.3-4-0.5C363.6,325.4,361.3,313.1,354.1,298.6z M348.3,319.8c-0.7-4.6-2.2-9.3-4.5-14
		c1.1-0.7,2.1-1.4,3.2-2.1c3,8.2,6.2,19,3.9,29.4c-1-0.2-2-0.5-3-0.8C348.8,328.6,349,324.4,348.3,319.8z M284.6,375.8
		c-0.6-2.1-1.4-4.3-2.5-6.3c0.2,0.1,0.4,0.2,0.6,0.3c1.9,0.8,3.9,1.4,6,1.9l0.1,0.1c0.1,0.1,0.2,0.2,0.2,0.3l0.7,0.9
		c0.2,0.3,0.4,0.7,0.7,1.1c0.1,0.3,0.3,0.5,0.3,0.6c0.1,0.3,0.2,0.5,0.3,0.8l0,0c0.2,0.5,0.4,0.9,0.6,1.4l0.2,0.5
		c0.1,0.2,0.1,0.4,0.2,0.6l0.3,1.2c0.2,0.8,0.3,1.7,0.4,2.3c0.1,0.8,0.2,1.5,0.2,2.3c0,0.5,0,1,0,1.4l0,0c0,0.2,0,0.4,0,0.5
		c-0.1,0.6-0.1,1.2-0.2,1.7c-0.1,0.2-0.1,0.5-0.2,0.7l0,0c0,0.2-0.1,0.5-0.2,0.7c-0.1,0.1-0.1,0.3-0.1,0.4c-2.4-0.1-4.7-0.3-6.9-0.6
		c0,0,0-0.1,0-0.1c0-0.1,0.1-0.2,0.1-0.4C286.1,384.6,285.8,380.2,284.6,375.8z M292,362.5L292,362.5c-0.8,0.2-1.6,0.3-2.4,0.3
		l-1.4,0.1l0,0c-0.8,0-1.5,0.1-2.2,0.1l-1.2-0.1c-3.3-1.5-6.3-3.5-9.1-6c0.8,0.4,1.5,0.7,2.3,1.1c1.3,0.5,2.6,0.9,3.8,1.2
		c1.4,0.3,2.8,0.4,4.1,0.4c0.6,0,1.3,0,2-0.1l1.9-0.3c0.7-0.1,1.4-0.3,1.8-0.5c0.5-0.1,1.1-0.3,1.6-0.6c0.9-0.3,1.6-0.7,2.2-1l1-0.6
		c0.5-0.3,1-0.7,1.5-1l1.2-0.9c2,0.9,4.2,1.6,6.4,2l-1,0.7c-0.2,0.1-0.3,0.2-0.5,0.4l0,0c-0.3,0.2-0.5,0.4-0.8,0.5l-1.5,0.9
		c-0.6,0.4-1.3,0.7-2,1c-0.4,0.2-0.7,0.3-1,0.5c-0.3,0.1-0.6,0.2-0.9,0.3l0,0c-0.3,0.1-0.5,0.2-0.6,0.2c-0.2,0.1-0.4,0.1-0.6,0.2
		l-0.1,0c-0.3,0.1-0.6,0.2-1,0.3l-0.5,0.1C293.9,362.1,293,362.3,292,362.5z M238,376c-0.7-0.2-1.3-0.2-2-0.2s-1.3,0.1-2,0.2
		c-2.5,0.6-4.6,2.4-5.6,4.7c0-0.1-0.1-0.1-0.1-0.2c-0.1-0.2-0.2-0.3-0.3-0.5c-0.7-0.9-1.4-1.8-2.2-2.7c1.2-1.9,2.9-3.4,5-4.3
		c1.4-0.7,2.9-1.1,4.5-1.2l0.1,0c0.2,0,0.5,0,0.7,0s0.5,0,0.7,0l0.1,0c1.6,0.1,3.1,0.5,4.5,1.2c2,1,3.7,2.5,5,4.3
		c-0.8,0.9-1.6,1.8-2.2,2.7c-0.1,0.2-0.2,0.3-0.3,0.5c0,0-0.1,0.1-0.1,0.1C242.6,378.3,240.5,376.6,238,376z M240.1,384
		c0,0,0,0.1,0,0.1c0,0,0,0,0,0c-1.3-0.1-2.7-0.2-4-0.2c-1.3,0-2.7,0.1-4,0.2c0,0,0,0,0,0c0,0,0-0.1,0-0.1c0-2.2,1.8-4.1,4.1-4.1
		C238.3,379.9,240.1,381.7,240.1,384z M317.3,111.7c-2-0.4-4-0.8-6.1-1.2c-2.8-3.7-4.3-8.3-5-14.5c1.6,0.8,3.3,1.8,5.3,3
		C312.8,102.8,314.7,106.9,317.3,111.7z M316.8,102.2c1.7,1.1,3.3,2.1,5,3.3c1.4,1,2.8,2,4.5,3.3c0.2,0.4,0.4,0.8,0.6,1.1
		c-1.6,1-3.2,1.9-4.8,2.7C319.9,108.6,318.2,105.3,316.8,102.2z M343.1,127.6c0.8,1.3,1.5,2.6,2.2,3.9l-0.3,0
		c-0.7,0.1-1.5,0.2-2.2,0.3c-20.7-9.5-42.1-14.7-63.5-15.6c0.6-0.9,1.1-1.7,1.7-2.5C302.5,114.5,323.4,119.2,343.1,127.6z
		 M328.8,114.6c0.8-0.5,1.7-1,2.6-1.5c0.8,0.8,1.6,1.5,2.3,2.3c-0.1,0-0.2,0.1-0.3,0.2c-0.2,0.1-0.4,0.2-0.6,0.3
		C331.4,115.4,330.1,115,328.8,114.6z M353.3,129.5c1,1.8,2,3.8,2.9,5.8c-0.4,0.5-0.6,1.1-0.6,1.7c0,1.3,1,2.4,2.4,2.5
		c0.5,1.3,1,2.6,1.4,3.9c-0.7,0.6-1.1,1.4-1.1,2.3c0,1.5,1.2,2.7,2.7,2.9c0.4,1.6,0.9,3.4,1.3,5.2c-0.8,0.5-1.3,1.4-1.3,2.4
		c0,0.6,0.2,1.2,0.6,1.7c-0.3,0.5-0.6,1.3-1,2.2c-0.9,0.2-1.6,0.8-1.8,1.7c-0.7-9-2.1-16.8-4.5-23.9c-2.8-8.3-6.7-15.5-11.9-21.9
		c0.4,0.2,0.8,0.3,1.2,0.3c0,0,0,0,0.1,0c0,0,0,0,0,0c3,3.1,5.7,6.6,8,10.3c-0.1,0.3-0.1,0.5-0.1,0.7
		C351.4,128.3,352.2,129.3,353.3,129.5z M362.7,160.7c0.2-0.5,0.4-1,0.6-1.4c0.3,1.5,0.5,3,0.7,4.3c-0.9,0.5-1.4,1.5-1.4,2.5
		c0,1.3,0.9,2.4,2.1,2.8c0.2,1.7,0.4,3.5,0.6,5.3c-1.2,0.4-2,1.5-2,2.7c0,1.4,1.1,2.7,2.5,2.8c0.1,1.5,0.3,3.2,0.5,5.3
		c0,0.1,0,0.2,0,0.3l0,0c-1.3,0.5-2.1,1.7-2.1,3.1c0,0.5,0.1,1.1,0.4,1.6c-0.6,0.7-1.2,1.6-1.8,2.4c-0.3-0.1-0.5-0.1-0.7-0.1
		c-1.6,0-2.9,1.3-2.9,2.9c0,0.6,0.2,1.2,0.6,1.7c-0.6,1-1.3,2.1-1.9,3.2l0-0.5c0.5-7.6,1.1-16.3,1.1-24.7h0v-0.1
		c0-3.1,1.1-7.3,2.1-10.2c1.2-0.1,2.2-1.2,2.2-2.4C363.4,161.8,363.1,161.2,362.7,160.7z M344.3,205c0-2.3,0-4.6-0.2-6.8
		c3.3,2,6.5,4.3,9.4,7.1l-0.1,1.4c-0.1,1.3-0.2,2.7-0.3,4C350.4,208.2,347.4,206.3,344.3,205z M352.8,216.2c-0.2,3.5-0.3,6.4-0.4,9
		c-2.7-3-5.8-5.5-9-7.3c0.4-2.7,0.6-5.5,0.8-8.2C347.3,211.2,350.2,213.4,352.8,216.2z M343.9,193.1c-0.1,0-0.1-0.1-0.2-0.1
		c-0.2-1.8-0.4-3.5-0.7-5.2c3.9,2.2,7.7,4.8,11.1,7.8l0,0.4c-0.1,1.2-0.1,2.4-0.2,3.5l0,0.3C350.8,197.2,347.4,195,343.9,193.1z
		 M344.1,268.2c-2.1-7.2-5.8-14-9.5-20.2c0.4-0.9,0.9-1.9,1.3-2.9c12.5,11.1,14.3,29.5,14.5,47.7c-0.2,0.2-0.4,0.4-0.7,0.5
		c-1-2-2.1-4.1-3.2-6C346.6,280.5,345.8,274.2,344.1,268.2z M335.1,311c0.3-0.2,0.6-0.3,0.9-0.5c2.1,6.1,2.5,12.4,1.1,18.5
		c-0.9-0.3-1.9-0.7-2.8-1.1C336.4,322.2,336.7,316.2,335.1,311z M314.2,314l-1-1.5c11-4.2,20.1-9.9,27.2-16.9
		c0.5,1.1,1.1,2.3,1.5,3.4C333.3,305,324,310,314.2,314z M315.6,351.7c-0.7,0.1-1.2,0.1-1.8,0.2c-0.6,0-1.1,0.1-1.7,0.1
		c-7.8,0-17.2-3.3-21.9-12.8c0,0,0,0,0,0c0.1,0,0.1,0,0.2,0c2.1,0,3.8-1.7,3.8-3.8c0-2.1-1.7-3.8-3.8-3.8c-0.9,0-1.7,0.3-2.4,0.9
		c-0.7-4.4-0.1-9.3,2-14.8l0.2-0.3l-0.1-0.1c2.5-6.7,6.9-14,11.6-21.8l0.7-1.1c0.2,4.5,1.1,9,2.7,13.4c0,0-0.1,0-0.1,0
		c-2.1,0-3.8,1.7-3.8,3.8s1.7,3.8,3.8,3.8c1.1,0,2.2-0.5,2.9-1.4c1.2,2.1,2.5,4.1,3.9,6c4.4,5.6,10.5,10.4,19.3,15
		c-1.6,0.4-2.8,1.9-2.8,3.6c0,2.1,1.7,3.8,3.8,3.8c0.6,0,1.1-0.1,1.6-0.4c-2.8,3.4-6.6,6-10.9,7.7c-0.5-1.5-2-2.5-3.5-2.5
		c-2.1,0-3.8,1.7-3.8,3.8C315.5,351.3,315.5,351.5,315.6,351.7z M239,350.7c-0.4,0.1-0.8,0.2-1.1,0.3l-1.6,0.3c0,0-0.1,0-0.1,0
		c0,0,0,0,0,0c-0.7-2.1-1.4-4.4-1.8-6.7c0.1,0,0.1,0,0.2,0c0.2,0,0.4,0,0.6-0.1c1.2-0.2,2.4-0.5,3.5-0.9c2.3-0.8,4.8-2.2,7.1-4
		c2.2-1.7,4.3-3.8,6.2-6.1c1.1-1.4,2.2-3,3.2-4.7c0.1,1.3,0.1,2.5,0.2,3.7l-0.1,0.2c-0.1,0.5-0.3,0.9-0.5,1.3
		c-0.1,0.4-0.3,0.7-0.4,1.1c-0.2,0.6-0.5,1.3-0.8,1.8c-0.2,0.4-0.4,0.7-0.6,1.1l0,0c-0.3,0.6-0.6,1.3-1,1.8c-0.2,0.3-0.5,0.7-0.7,1
		c-0.4,0.6-0.8,1.2-1.3,1.8l-1,1.3l-1.7,1.7l-1.8,1.5c-0.2,0.2-0.5,0.3-0.7,0.5c-0.6,0.4-1.1,0.8-1.7,1.1c-0.5,0.3-1.1,0.6-1.7,0.9
		l-1.1,0.5C240,350.4,239.5,350.6,239,350.7z M240.4,368.1c-1.4-0.4-2.7-0.6-4.1-0.6c0,0-0.1,0-0.1,0c-0.1,0-0.2,0-0.2,0
		c0,0-0.1,0-0.1,0c-1.4,0-2.8,0.2-4.2,0.6c-1.6,0.4-3.1,1.1-4.5,2c-1.7,1.1-3.1,2.5-4.3,4.1c-0.1-0.1-0.3-0.3-0.4-0.4l-0.1-0.1
		c-0.1-1.4-0.3-2.9-0.5-4.4c0.5-0.5,1.1-1,1.7-1.5c1.3-1.1,2.8-1.9,4.4-2.6c1.3-0.6,2.7-1,4.1-1.3c1.4-0.3,2.7-0.4,4.1-0.4
		c0.2,0,0.4,0,0.6,0c0.1,0,0.2,0,0.3,0C238.1,365.1,239.2,366.6,240.4,368.1z M234.9,261.8c1.8-0.9,3.2-1.1,4.7,0.2
		c0.9,0.7,1.4,2,0.7,3c-1.2,1.5-3.5,1.9-6.1,2.4c-2.9,0.5-6.1,1.1-8,3.4c-0.3-5.3,0.7-9.5,3.2-12.7c0.6-0.8,1.5-1.3,2.4-1.3
		c0,0,0,0,0,0c0.8,0,1.6,0.3,2,0.9C235,258.9,235.2,260.2,234.9,261.8l-0.1,0.1L234.9,261.8z M256.4,244.5c2.4-1.2,4.3-1.5,6.5,0.3
		c1.2,1,2,2.7,0.9,4c-1.6,2-4.8,2.6-8.2,3.2c-3.9,0.7-8.3,1.5-10.9,4.6c-0.5-7.2,1-12.9,4.4-17.3c0.9-1.1,2-1.8,3.3-1.8
		c0,0,0,0,0.1,0c1.1,0,2.1,0.5,2.8,1.3C256.6,240.6,257,242.4,256.4,244.5l-0.1,0.1L256.4,244.5z M276.3,230.2
		c1.8-0.9,3.2-1.1,4.7,0.2c0.9,0.7,1.4,2,0.7,2.9c-1.2,1.5-3.5,1.9-6.1,2.4c-2.9,0.5-6.1,1.1-8,3.4c-0.3-5.3,0.7-9.4,3.2-12.7
		c0.6-0.8,1.5-1.3,2.4-1.3c0,0,0,0,0,0c0.8,0,1.6,0.3,2,0.9C276.4,227.3,276.7,228.6,276.3,230.2l-0.1,0.1L276.3,230.2z M283.9,137
		c-1.1-1.1-2.3-2.3-3.5-3.4c12.4,1.9,22.9,4.8,32.2,8.8c-1.8,1-3.6,2.1-5.3,3.3C301.1,142.9,292.7,139.1,283.9,137z M284.8,149.3
		c-2.2,2.7-4.8,4.2-7.8,4.5c-0.4,0-0.8,0.1-1.2,0.1c-4.5,0-8.4-2.5-9-2.8c0.2-1.8,0.3-3.8,0.2-5.7c2,0.7,4,1,5.9,0.7
		c2.1-0.3,5.2-1.3,7.8-4.8c1.7,2.4,2.8,4.6,3.5,6.5C284.5,148.3,284.7,148.8,284.8,149.3z M308.7,303.8c-0.3-0.8-0.6-1.7-0.8-2.5
		c3.5-2,6.9-4.2,10.2-6.5c6.4-4.6,10.9-8.9,14.1-13.4c0.7,1,1.4,2.1,2.1,3.3C328.4,292.2,319.8,298.6,308.7,303.8z M336.4,288.1
		c0.8,1.3,1.5,2.7,2.2,4c-6.8,7.1-16.3,13-27.4,17.1c-0.4-0.7-0.7-1.4-1-2C321.2,302.1,330,295.6,336.4,288.1z M302.1,228
		c0.2,0.3,0.4,0.5,0.7,0.8c0.6,0.7,1.4,1.3,2.3,1.8l1.3,0.7c0.3,0.2,0.7,0.3,1,0.4l0.4,0.1c0.5,0.2,0.9,0.3,1.3,0.4l0.3,0.1
		c0.5,0.1,1.1,0.2,1.7,0.3c0.2,0,0.3,0,0.5,0c0.4,0,0.8,0.1,1.2,0.1l1.6,0c0.4,0,0.8-0.1,1.2-0.1l0,0c0.2,0,0.3,0,0.5-0.1l0.4-0.1
		c0.4-0.1,0.9-0.1,1.3-0.2l0.3-0.1c0.9-0.2,1.7-0.4,2.4-0.7c0,1.3,0,2.6-0.1,4l-0.6,0.5c-0.1,0.2-0.5,0.5-0.8,0.9
		c-0.1,0.1-0.3,0.3-0.5,0.4c-0.2,0.2-0.5,0.5-0.9,0.8c-0.5,0.4-1.1,0.9-1.8,1.3l-2.4,1.4c-1.1,0.6-2,1-2.9,1.3c-1,0.4-2.1,0.7-3.3,1
		c-1.2,0.3-2.5,0.5-3.6,0.6c-2.4,0.3-4.9,0.2-7.2-0.1c-1.4-0.2-2.7-0.6-3.9-1.1C296.3,237.8,299.5,233,302.1,228z M296.4,198.7
		c-2.1,1.1-4.5,2.4-5.5,4.7c-1.6-4.1-1.8-7.6-0.7-10.8c0.3-0.8,0.8-1.4,1.6-1.6c0.2-0.1,0.5-0.1,0.7-0.1c0.4,0,0.8,0.1,1.1,0.3
		c1.1,0.7,1.7,1.7,1.7,3l0,0.1l0.1-0.1c1.2-1.1,2.2-1.7,3.8-1c0.9,0.4,1.6,1.2,1.3,2.1C300,196.8,298.2,197.7,296.4,198.7z
		 M310.6,194.4c4.7,9.4,7.7,18.1,9.1,26.6c-0.2,0.2-0.4,0.4-0.7,0.7l-1.8,1.4c-0.4,0.4-1,0.7-1.5,1l-0.5,0.3
		c-0.2,0.1-0.4,0.2-0.6,0.3l-0.3,0.1c-0.2,0.1-0.3,0.1-0.5,0.2l0,0c-0.2,0.1-0.3,0.2-0.5,0.2l-1.2,0.4c-0.2,0.1-0.4,0.1-0.6,0.1l0,0
		c-0.2,0-0.3,0.1-0.5,0.1c-0.3,0.1-0.6,0.1-1,0.1l-0.5,0l-0.1,0c-0.1,0-0.3,0-0.5,0c-0.2,0-0.3,0-0.5,0l-0.1,0c-0.2,0-0.3,0-0.5,0
		l-1-0.2l-0.2-0.1c-0.6-0.2-1.1-0.4-1.6-0.7c-0.3-0.1-0.6-0.4-0.9-0.6c-0.1-0.1-0.1-0.1-0.2-0.2c3.1-6.8,5.2-13.7,6.1-20.7
		C310.5,200.7,310.7,197.6,310.6,194.4z M294.6,249.4L294.6,249.4c2.6,1,5.6,1.7,8.6,1.9c1.4,0.1,3,0.2,4.5,0.1
		c1.5-0.1,3-0.2,4.4-0.4c1.3-0.2,2.6-0.5,4.1-0.9l1.7-0.5c-0.8,2.8-1.9,5.7-3.2,8.6l-3.6,1c-0.4,0.1-0.9,0.2-1.4,0.3
		c-0.3,0.1-0.6,0.1-1,0.2l-1.4,0.3c-0.3,0-0.5,0.1-0.8,0.1l0,0c-0.2,0-0.4,0-0.6,0.1l-0.4,0c-0.8,0.1-1.6,0.2-2.5,0.2l-0.3,0l-1.6,0
		l-1.8-0.2c-0.8,0-1.6-0.2-2.4-0.4c-0.4-0.1-0.7-0.1-1-0.2c-0.3-0.1-0.6-0.2-1-0.3l-0.1,0c-0.2-0.1-0.4-0.1-0.6-0.2l-0.8-0.3
		c-0.2-0.1-0.3-0.1-0.5-0.2l-0.3-0.1c-0.2-0.1-0.4-0.2-0.6-0.3l0,0c-0.3-0.1-0.6-0.3-0.9-0.4l-1.6-0.9c-0.3-0.2-0.5-0.3-0.8-0.5l0,0
		c-0.2-0.1-0.4-0.2-0.5-0.4l-0.6-0.4l-0.7-0.6c-0.7-0.6-1.4-1.2-2-1.8l-0.6-0.7c-0.3-0.4-0.6-0.7-0.8-1c1.9-1.7,3.9-3.5,5.6-5.4
		c0.6,0.5,1.1,0.9,1.8,1.3C292,248.3,293.2,248.9,294.6,249.4z M310.5,280.3c4.1-4.1,7.5-8.3,10.5-13c1.1,1.2,2.2,2.5,3.3,3.7
		c-4.1,6.6-10.1,12.7-17.8,18.1l0.3-2.2C308.2,284.6,309.4,282.5,310.5,280.3z M324.2,256.8c-0.3,0.5-0.6,0.9-0.8,1.4
		c-0.8-0.8-1.7-1.6-2.6-2.4c0.1-0.2,0.1-0.5,0.2-0.7l0.1-0.2C322.1,255.4,323.1,256.1,324.2,256.8z M321.9,251.1
		c0.2-0.9,0.4-1.8,0.6-2.8c1.8,0,3.7,0.5,5.6,1.3c-0.6,1.2-1.2,2.5-1.9,3.8C324.6,252.5,323.2,251.7,321.9,251.1z M326.9,274.2
		c1,1.3,2,2.6,3,3.9c-3.9,6-9.6,10.5-14.7,14.1c-2.5,1.8-5.3,3.6-8.2,5.3c-0.2-1.2-0.4-2.4-0.4-3.7
		C315.3,288,322.1,281.4,326.9,274.2z M326.9,261.6c0.3-0.5,0.7-1.1,1.1-1.7c1.4,1.6,2.4,3.7,3.2,6.2
		C329.8,264.6,328.3,263.1,326.9,261.6z M323,244.6c0.1-0.8,0.2-1.6,0.3-2.5c2.7-0.1,5.2,0.3,7.5,1.1c-0.4,0.9-0.8,1.9-1.3,3
		C327.4,245.3,325.2,244.7,323,244.6z M323.9,238.3c-0.1,0-0.1,0-0.2,0c0,0-0.1,0-0.1,0c0.1-1.7,0.1-3.3,0.1-4.8
		c2.1-0.4,4.2-0.7,6.2-0.7c1.5,0,2.9,0.1,4.2,0.3c-0.6,2.1-1.3,4.3-2,6.5C329.5,238.8,326.7,238.3,323.9,238.3z M330,229
		c-2.1,0-4.2,0.2-6.4,0.6c-0.1-1.1-0.1-2.1-0.2-3.2c3.8-1.4,8.1-2.3,12.9-2.7c-0.3,1.9-0.7,3.8-1.1,5.7
		C333.5,229.2,331.8,229,330,229z M323,222.7c-0.2-1.2-0.4-2.5-0.6-3.8c0.4-0.2,0.7-0.4,1-0.5c4.9-2.4,9.6-4.1,14.1-4.8
		c-0.1,2.1-0.3,4.3-0.6,6.4C331.8,220.4,327.1,221.3,323,222.7z M322.5,214.6c-0.2,0.1-0.4,0.2-0.7,0.3c-0.1,0-0.2,0.1-0.3,0.1
		c-0.3-1.4-0.7-2.8-1.1-4.2l0.1-0.1c0.3-0.2,0.6-0.4,0.9-0.6c5.6-3.4,11-5.6,16.1-6.7c0.1,2,0.1,4.1,0,6.3
		C333,210.5,328.2,212,322.5,214.6z M320.5,206.4c-0.3,0.2-0.5,0.3-0.8,0.5c-0.1,0.1-0.2,0.1-0.3,0.2c-0.6-1.8-1.1-3.4-1.7-5
		c6.3-3.9,13.1-6.5,19-8.6c0.3,2.1,0.5,4.2,0.7,6.3C332.1,200.8,326.5,203,320.5,206.4z M316.2,198.6c-0.7-1.8-1.4-3.4-2.1-4.9
		c5.4-3.8,11.9-7.1,20.5-10.5c0.6,2.2,1.1,4.4,1.5,6.5C330.4,191.7,323,194.5,316.2,198.6z M312.4,190.2c-0.5-1-1-2-1.6-3.1
		c6.3-5.5,13.1-10.4,20.4-14.4c0.9,2.3,1.7,4.6,2.4,6.8C328,181.7,319.8,185.2,312.4,190.2z M309.4,183.3c-0.4-2.3-1-4.7-1.7-7.1
		c6-5.3,12.5-9.7,19.3-12.8c0.9,1.9,1.8,3.7,2.7,5.8C322.6,173.1,315.7,177.9,309.4,183.3z M306.5,172.2c-0.7-2.1-1.6-4.3-2.6-6.5
		c4.6-4.2,9.9-8.4,16.7-13.2c1.6,2.4,3.2,4.9,4.6,7.4C318.6,163.1,312.3,167.2,306.5,172.2z M302.2,162.2c-0.7-1.4-1.4-2.7-2.2-4.1
		c5.1-4.4,10.6-8.1,16.5-11.1c0.6,0.7,1.2,1.6,1.9,2.5C311.9,154.1,306.7,158.1,302.2,162.2z M303.7,148.1c-1.1,0.8-2.3,1.7-3.4,2.7
		c-2.3-1.4-4.8-2.7-7.5-3.7c-1.3-1.6-2.6-3.3-4-4.9C293.9,143.9,299.2,146.2,303.7,148.1z M288.7,209.6c0.8,1.1,1,2.2,0.6,3.4l0,0.1
		l0.1-0.1c1.5-0.7,2.6-0.9,3.9,0.3c0.7,0.6,1.2,1.6,0.5,2.4c-1,1.2-3,1.5-5,1.9c-2.4,0.4-5.1,0.8-6.7,2.7c-0.2-4.4,0.7-7.8,2.9-10.5
		c0.5-0.7,1.2-1.1,2-1.1c0,0,0,0,0,0C287.7,208.8,288.3,209.1,288.7,209.6z M285.1,260.5c0.3,0.3,0.6,0.7,1,1l1.6,1.4
		c0.4,0.3,0.8,0.6,1.2,0.9c0.2,0.1,0.4,0.3,0.6,0.4l0.3,0.2c0.2,0.1,0.4,0.3,0.7,0.4l0.9,0.5c0.2,0.1,0.4,0.2,0.6,0.3
		c0.4,0.2,0.9,0.5,1.4,0.7c0.3,0.1,0.6,0.3,0.9,0.4l0,0c1,0.4,2.1,0.9,3.2,1.2l2.2,0.6l2,0.4c1.3,0.3,2.6,0.4,3.8,0.5l0.9,0.1
		c0.5,0,0.9,0.1,1.3,0.1l0.7,0l-3.2,1.7c-0.3,0.2-0.6,0.4-1,0.7l0,0c-0.2,0.1-0.4,0.3-0.7,0.5c-0.4,0.3-0.8,0.5-1.3,0.8
		c-0.3,0.2-0.6,0.4-0.9,0.5l-0.5,0.3c-0.7,0.4-1.5,0.8-2.3,1.1l0,0c-1,0.4-2.1,0.8-3.2,1.1c-1.1,0.3-2.3,0.5-3.5,0.6
		c-1.2,0.1-2.4,0-3.6-0.2c-1.2-0.2-2.4-0.5-3.5-1c-1.1-0.5-2.2-1.1-3.2-1.8c-0.9-0.6-1.8-1.4-2.7-2.3c-0.9-0.9-1.5-1.8-2-2.5
		c-0.4-0.6-0.8-1.3-1.2-2l0.2-0.5c0.2-0.4,0.3-0.8,0.5-1.2c1.8-4.3,3.1-7.4,4.7-10.6c0,0,0,0.1,0,0.1l0.5,0.8
		C282.1,256.8,284.9,260.3,285.1,260.5z M282.7,333.7L282.7,333.7c-0.1,0.1-0.3,0.2-0.4,0.3c-0.1,0.1-0.2,0.1-0.4,0.2
		c-0.1,0.1-0.2,0.1-0.2,0.1l-0.6,0.3c-0.1,0-0.3,0.1-0.5,0.2c-0.1,0-0.2,0.1-0.2,0.1c-0.2,0-0.3,0.1-0.5,0.1c-0.2,0-0.3,0.1-0.5,0.1
		c-0.6,0.1-1.3,0-2.1-0.1c-0.9-0.2-1.8-0.4-2.6-0.8c-0.9-0.4-1.8-0.9-2.7-1.4c-4.5-2.8-7.7-6.9-8.9-8.5l-0.2-0.3
		c0-2.1,0.1-4.2,0.3-6.4c0.1-1.5,0.3-3,0.5-4.7c0.2,0.4,0.5,0.9,0.7,1.3c0.6,1,1.3,2.1,2.2,3.3c0.8,1,1.7,2.1,2.7,3.1
		c1.2,1.1,2.3,2,3.3,2.7c1.3,0.9,2.6,1.5,4,2c1.4,0.5,2.9,0.8,4.6,0.8l0.3,0c0.4,0,0.9,0,1.3-0.1
		C282.3,328.8,282.4,331.4,282.7,333.7z M281.7,316.5c-0.2,0.1-0.4,0.2-0.7,0.3c-0.1,0.1-0.4,0.1-0.6,0.2l-0.1,0
		c-0.8,0.2-1.3,0.2-2,0.1c-1.5-0.1-3.3-0.8-5.2-1.9c-0.9-0.5-1.8-1.2-2.6-1.8c-0.9-0.8-1.7-1.5-2.3-2.2c-0.7-0.8-1.4-1.6-1.9-2.4
		c-0.5-0.7-1-1.4-1.4-2.3c-0.2-0.3-0.3-0.6-0.4-0.9c0.4-2.5,0.9-4.8,1.3-6.9c0.6-2.6,1.2-5.2,1.9-7.7c0.9,2.7,2.6,6.5,5.9,9.9
		c1.2,1.2,2.1,2,3.1,2.7c1.1,0.8,2.3,1.5,3.6,2.1c1.4,0.6,2.6,1,3.7,1.3c0.6,0.2,1.2,0.3,1.8,0.4c0.6,0.1,1.2,0.2,1.7,0.2
		c0,0,0,0,0,0c-0.7,1.8-1.4,3.6-2,5.3l-0.2-0.2l-1.4,1.9c-0.1,0.1-0.3,0.3-0.4,0.4c-0.1,0.2-0.3,0.4-0.6,0.6
		C282.6,316,282.2,316.3,281.7,316.5z M287.4,298.1L287.4,298.1c-0.3,0.1-0.6,0.1-1,0.1c-0.3,0-0.5,0.1-1.1,0l-0.1,0
		c-0.6,0-1.4-0.1-2.2-0.2c-0.9-0.2-1.8-0.4-2.6-0.8c-0.9-0.3-1.8-0.8-2.5-1.3c-3.7-2.3-6-7.2-7.1-9.6c-0.4-0.9-0.8-1.9-1-2.7
		c0.2-0.6,0.2-0.8,0.4-1.1l0,0c0.1-0.2,0.2-0.5,0.3-0.9c1-3.1,2.1-6.1,3.1-8.9c0.5,1,1,1.9,1.6,2.7c0.9,1.3,1.8,2.4,2.8,3.4
		c1.1,1.1,2.4,2.2,3.8,3.1c1.4,0.9,2.9,1.6,4.6,2.3c1.7,0.6,3.4,1,5,1.2c1.7,0.2,3.4,0.3,5,0.1c1-0.1,2-0.2,3.2-0.4
		c-0.7,1.2-1.4,2.2-1.9,3.2c-1.7,2.8-3.3,5.6-4.7,8.2l-2.2,0.8c-0.3,0.1-0.6,0.2-0.9,0.3l-0.9,0.2l0,0
		C288.4,297.9,288,298,287.4,298.1z M274.8,258.2c-1.2,2.1-2.3,4.2-3.3,6.3c-0.3,0.7-0.7,1.4-1,2.1l-0.1,0.2l-1.2,1.3
		c-0.3,0.3-0.6,0.6-1,0.9l-0.3,0.3c-0.2,0.2-0.5,0.4-0.8,0.6c-0.7,0.6-1.5,1.1-2.3,1.6c-1,0.6-1.8,1-2.6,1.2
		c-1.5,0.6-3.3,0.9-4.9,0.7c-1.4-0.1-2.7-0.5-4-1.1c-0.6-0.3-1.1-0.6-1.6-0.9c0-0.1,0.1-0.1,0.1-0.2c0.1-0.1,0.2-0.3,0.3-0.4
		c6.2-4.1,11.8-6.9,15.3-8.6C269.9,261.1,272.4,259.7,274.8,258.2z M246.4,280.4c1.3,0.5,2.7,0.9,4,1.2c2.4,0.5,5,0.5,7.3,0.1
		c2.6-0.5,5.2-1.5,7.4-3c-0.1,0.3-0.2,0.6-0.3,0.9c-0.4,0.9-0.7,1.9-1.1,2.9l0,0c-1.2,1.4-2.5,2.6-3.8,3.6c-1.9,1.5-4,2.8-6.1,3.8
		c-2.1,1-4.4,1.8-6.6,2.2c-1.8,0.4-3.6,0.6-5.2,0.6c-0.2,0-0.4,0-0.5,0c-0.1,0-0.1,0-0.2,0c0,0-0.1,0-0.1,0
		C242.7,288.3,244.5,284.2,246.4,280.4z M242.2,302.4c2.5-0.4,5.1-1.3,7.5-2.4c2.6-1.2,5.2-2.7,7.5-4.4c1-0.8,2-1.6,2.9-2.5
		c-0.4,1.5-0.8,2.8-1.1,4.1c-0.4,1.6-0.8,3.1-1.1,4.6c-0.4,0.5-0.8,1-1.3,1.4c-0.8,0.8-1.8,1.8-2.9,2.7c-1.1,0.9-2.3,1.8-3.2,2.4
		c-4.8,3.3-10,5.2-13.2,5.9c-0.8,0.2-1.6,0.3-2.3,0.4c-0.1,0-0.1,0-0.2,0c0.7-3.9,1.6-7.8,2.7-11.7c0.3,0,0.7,0,1,0
		C239.9,302.8,241,302.6,242.2,302.4z M235.9,285.4c-0.6,0-1.3,0.1-1.9,0.1c1.9-1.9,4-3.9,6.1-5.7c-1,1.7-2,3.6-2.9,5.6
		c-0.3,0-0.6,0-0.8,0c0,0-0.1,0-0.1,0C236.1,285.4,236,285.4,235.9,285.4C235.9,285.4,235.9,285.4,235.9,285.4z M230.8,290.8
		c1.4-0.7,2.9-1.1,4.5-1.2h0c-0.6,1.4-1.2,2.9-1.7,4.4c-2.3,0.7-4.1,2.4-5.1,4.5c0-0.1-0.1-0.1-0.1-0.2c-0.1-0.2-0.2-0.3-0.3-0.5
		c-0.7-0.9-1.4-1.8-2.2-2.7C227,293.3,228.7,291.8,230.8,290.8z M233.6,325.2c0.1,0,0.2,0,0.2,0c1.2-0.1,2.2-0.3,3.3-0.6
		c1.3-0.4,2.4-0.8,3.4-1.2c4.9-2.1,10.1-5.7,14.4-9.9c0.4-0.4,0.8-0.8,1.2-1.2c-0.2,1.7-0.4,3.2-0.6,4.7c-0.1,0.7-0.1,1.4-0.2,2.3
		c-0.4,0.7-0.7,1.3-1.1,1.8c-0.5,0.8-1.1,1.6-2,2.7c-1.5,1.9-3.3,3.7-5.1,5.2c-1.8,1.5-3.8,2.8-5.8,3.8c-1.8,0.9-3.7,1.5-5.2,1.7
		c-0.6,0.1-1.3,0.1-1.8,0.1c-0.5,0-0.8-0.1-1-0.1c0,0,0,0,0,0c0,0,0,0-0.1,0c0,0,0,0,0,0C233.3,331.3,233.4,328.3,233.6,325.2z
		 M241.1,361.2c0.1,0,0.1,0,0.2-0.1l0.2-0.1c0.5-0.3,1.2-0.6,1.9-1c0.7-0.4,1.4-0.9,2.1-1.4l1-0.7l0,0c0.7-0.6,1.5-1.2,2.2-1.9
		c0.8-0.7,1.5-1.5,2.2-2.2l0.6-0.7c0.3-0.4,0.6-0.7,0.9-1.1l1-1.4l1.7-2.7l0.9-1.8c0.5-0.9,0.8-1.8,1.2-2.7l0-0.1
		c0.1-0.3,0.2-0.5,0.3-0.8c0.6,2.1,1.4,4,2.2,5.8l0,0c0,0.1,0,0.3,0,0.4l-0.1,1.1c0,0.2-0.1,0.5-0.1,0.7l-0.2,0.8
		c-0.1,0.7-0.3,1.4-0.6,2.2l-0.4,1.3c-0.1,0.2-0.2,0.4-0.3,0.7l-0.3,0.6c-0.3,0.7-0.7,1.4-1.1,2.1l-0.2,0.4
		c-0.1,0.2-0.3,0.4-0.5,0.7l-0.2,0.3c-0.1,0.1-0.2,0.3-0.3,0.5l0,0c-0.1,0.2-0.3,0.4-0.5,0.6c-0.6,0.7-1.1,1.3-1.7,1.9
		c-0.4,0.4-0.8,0.8-1.2,1.1c-0.2,0.2-0.4,0.3-0.5,0.4l-0.4,0.3c-0.4,0.3-0.9,0.7-1.4,0.9c-0.3,0.2-0.7,0.4-1,0.6
		c-0.2,0.1-0.3,0.2-0.3,0.2l-2.1,0.8c-0.1,0-0.3,0.1-0.4,0.2C244,365.5,242.4,363.4,241.1,361.2L241.1,361.2z M254.5,374.4
		L254.5,374.4L254.5,374.4c0.5-0.4,1-0.9,1.4-1.4c0.6-0.6,1.2-1.3,1.8-2.1l0.6-0.9c0.5-0.7,1-1.4,1.4-2.2c0.6-1,1.1-2,1.6-3.1
		c0.2-0.4,0.3-0.8,0.5-1.2c0.1-0.2,0.1-0.3,0.2-0.6l0.2-0.4l0,0c0.1-0.4,0.3-0.8,0.4-1.3l0.1-0.3c0.3-1,0.5-2.1,0.7-3.1l0.1-0.5
		c0.1-0.4,0.1-0.8,0.2-1.2l0.1-1.3c0.2,0.2,0.3,0.4,0.5,0.6c0.5,0.7,1.1,1.3,1.7,2.1c0.1,0.2,0.3,0.3,0.4,0.5l0.2,0.3l0.2,1.4
		c0.1,0.5,0.1,1,0.1,1.6l0,0.5c0.1,0.6,0,1.3,0,2.3c0,0.5-0.1,1-0.2,1.6l-0.1,0.7c-0.1,0.6-0.3,1.2-0.4,1.8l-0.1,0.5
		c-0.1,0.2-0.2,0.5-0.2,0.7l0,0.1c-0.2,0.5-0.4,1-0.6,1.5c-0.3,0.7-0.7,1.4-1,2c-0.3,0.6-0.7,1.2-1.1,1.8c-0.3,0.5-0.7,1-1.2,1.6
		c-0.2,0.3-0.5,0.6-0.7,0.8c-0.2,0.2-0.2,0.3-0.3,0.3c-0.1,0.1-0.3,0.3-0.4,0.4l0,0c-0.1,0.1-0.2,0.2-0.3,0.3l-0.7,0.7
		c-1.8-1.2-3.7-2.5-5.4-3.8L254.5,374.4z M266.6,345.1L266.6,345.1c-1.1-2.4-2-5.2-2.8-8.7c-0.3-1.3-0.5-2.7-0.6-4.1
		c1.4,2.1,2.9,4,4.5,5.7c1.1,1.1,2.1,1.9,3.1,2.7c1.1,0.8,2.4,1.6,3.8,2.2c1.4,0.6,2.8,1,4.1,1.2c0.5,0.1,1,0.1,1.6,0.2l0,0
		c0.2,0,0.3,0,0.6,0l0.2,0c0.4,0,0.8,0,1.3-0.1l0.6,0c0.5-0.1,0.9-0.1,1.4-0.2l0.4-0.1c0.4-0.1,0.8-0.2,1.2-0.3l0.3-0.1
		c1.1,1.7,2.3,3.4,3.8,4.9c-0.1,0.1-0.1,0.1-0.1,0.1c-0.1,0.1-0.3,0.2-0.4,0.4c-0.3,0.3-0.5,0.5-0.9,0.7c-0.2,0.2-0.5,0.4-0.7,0.5
		c-0.3,0.2-0.5,0.3-0.8,0.5L286,351c-0.2,0.1-0.5,0.2-0.8,0.3l-0.2,0.1c-0.7,0.2-1.6,0.3-2.5,0.3c-0.8,0-1.8,0-2.8-0.1
		c-1.8-0.2-3.7-0.8-5.7-1.6c-1.7-0.7-3.4-1.6-4.9-2.5c-0.8-0.5-1.5-1-2.2-1.5C266.8,345.7,266.7,345.4,266.6,345.1z M322.8,317.1
		c1.1-0.5,2.1-0.9,3.1-1.4c0.2,2.2-0.2,4.5-1.4,7.7c-0.8-0.4-1.6-0.8-2.3-1.3C322.9,320.3,323.1,318.6,322.8,317.1z M329.4,314
		c0.7-0.4,1.5-0.8,2.3-1.2c1.1,4.2,0.8,8.9-0.9,13.6c-1-0.5-2-0.9-3-1.4C329.6,320.5,330.1,317.3,329.4,314z M336.8,272.8
		c-0.8-7.5-3-13.1-6.6-16.7c0.7-1.2,1.4-2.4,2-3.6c2.4,4.2,5.4,9.8,7.4,16c1.2,3.6,1.9,7.4,2.3,11.5
		C340.3,277.6,338.6,275.2,336.8,272.8z M337.5,241c0.8-2.1,1.6-4.3,2.2-6.5c14.1,11.4,17.5,33.3,18.9,51.1
		c-1.3,1.3-2.7,2.5-4.1,3.7c-0.2-6.9-0.7-17-3.4-26.4C348.4,253.4,343.9,246.3,337.5,241z M324.6,143.4c1.5-0.6,3.1-1.1,4.6-1.6
		c2.9,5.3,6.3,11.3,8.6,17.6c2.6,6.7,4.4,13.6,5.3,20.4c-0.7-0.4-1.4-0.8-2.1-1.1C337.9,166,332.3,154.2,324.6,143.4z M333,140.7
		c2.3-0.6,4.6-1.1,7-1.6c0.8,2.2,1.6,4.4,2.4,6.5l0,0c1.8,4.7,3.6,9.5,4.8,14.4c2.1,9.2,2.9,16.7,2.5,23.6c-0.7-0.5-1.5-1-2.4-1.5
		c-0.7-6.9-2.5-14.1-5.4-22.8C339.6,152.7,336.1,146.3,333,140.7z M353.2,186.2c0.8-8.5-0.5-16.8-2-24.7c-1.1-6-3.3-11.7-5.4-17.2
		l0-0.1c-0.7-1.9-1.4-3.8-2.1-5.7c1.3-0.2,2.8-0.3,4.5-0.5c6.6,16.6,6.8,35,6.3,49.2c-0.1-0.1-0.3-0.2-0.4-0.3
		C353.9,186.7,353.6,186.5,353.2,186.2z M336.3,133.1c-2.9,0.7-5.8,1.5-8.5,2.5c-11.8-7-25.3-8.9-38.4-10.7c-4.6-0.7-9.4-1.3-14-2.2
		c0.5-1,1.1-1.9,1.5-2.7C296.8,120.5,316.8,124.9,336.3,133.1z M288.6,128.5L288.6,128.5L288.6,128.5L288.6,128.5
		c11.7,1.6,23.9,3.3,34.5,8.8c-2.1,0.9-4.2,1.8-6.2,2.8c-11.7-5.4-24.8-8.9-41.2-11c-0.9-0.9-1.7-1.7-2.5-2.4c0-0.1,0.1-0.2,0.1-0.3
		c0.1-0.1,0.1-0.2,0.2-0.4C278.4,127.1,283.6,127.8,288.6,128.5z M274.2,133.4c1.4,1.4,2.6,2.8,3.7,4.1c-1.5,2.4-3.4,3.8-5.5,4.1
		c-2.9,0.4-5.4-1.1-5.9-1.6c-0.3-1.4-0.6-2.9-1-4.4c1.7,0.2,3.3,0.1,4.7-0.2C271.7,135,273.1,134.3,274.2,133.4z M265.9,156.3
		c2.3,1.2,5.8,2.6,10,2.6c0.6,0,1.2,0,1.7-0.1c3.3-0.3,6.3-1.7,8.9-3.9c0.5,2.1,0.9,4.1,1.2,6.1c-4.3,3.4-8.5,5.1-12.3,5.1
		c-5.8,0-9.5-4-10.8-5.3C265,159.3,265.5,157.7,265.9,156.3z M275.4,171.6c4.1,0,8.4-1.4,12.7-4.2c0.1,3.1-0.1,6.1-0.6,9
		c-4,2.8-8,4.2-12.1,4.2c-9.2,0-15.6-7.4-16.4-8.4c1.2-2,2.2-4,3.1-6C266.3,169.8,270.7,171.6,275.4,171.6z M263.2,183.3
		c4,2.3,8.2,3.4,12.4,3.4c3.2,0,6.5-0.7,9.7-2.1c-0.8,2-1.7,4-2.7,6l-0.2,0.1c-3.4,1.8-6.9,2.7-10.3,2.7c-10.7,0-18.1-9.1-19.6-11
		c1.2-1.7,2.2-3.3,3.2-4.8C257.3,179.2,259.8,181.5,263.2,183.3z M258.3,196.4c4.4,2.5,9.1,3.7,13.8,3.7c1.4,0,2.8-0.1,4.2-0.3
		c-1.7,2-3.5,4-5.6,5.9c-2.4,0.7-4.7,1-6.9,1c-5.1,0-9.8-1.6-13.9-4.8c-4-3-5.9-6.3-6.1-6.7c0.4-0.6,0.8-1.2,1.2-1.7
		c0.8-1.2,1.7-2.4,2.5-3.6c0.4-0.6,0.8-1.1,1.2-1.7C250.4,190.5,253.7,193.8,258.3,196.4z M246.5,207.1c3.3,2.4,8.7,5.4,15.9,5.7
		c-2.3,1.8-4.8,3.6-7.8,5.7c-12.3-0.3-16.8-7.6-18.3-13.8c1.2-1.5,2.3-2.9,3.5-4.4C241.5,202.8,244,205.3,246.5,207.1z M247.8,223.3
		c-0.7,0.5-1.4,0.9-2,1.4c-0.9,0.6-1.7,1.2-2.6,1.7c-1,0.7-2,1.4-2.8,1.9c-3.6-0.6-6.4-2.1-8.3-4.6c-2.9-3.7-3.2-8.3-3.2-9.2
		c1-1.3,2-2.8,3.2-4.4C235,216.9,240.4,221.4,247.8,223.3z M234.8,231.9c-1.9,1.2-3.8,2.5-5.6,3.8c-4.6-1-6.7-6.1-7.4-8.3l-0.1-0.2
		c0.9-2.1,1.9-4.3,3.2-6.6c0.7,2.3,1.8,4.4,3.2,6.2C229.9,229,232.1,230.7,234.8,231.9z M225.1,238.9c-2.1,1.9-3.9,3.9-5.5,6.2
		c-0.6-3.9-0.5-7.6,0.2-11.4C221.2,236,223,237.7,225.1,238.9z M223.9,299.5c0.7,0.8,1.2,1.6,1.7,2.4c0.2,0.3,0.5,0.7,0.7,1.1
		c-0.6,0.1-1.2,0.3-1.8,0.5c-0.1,0-0.2,0-0.3,0.1c-0.1,0-0.3,0.1-0.4,0.1c-0.5,0.2-1.1,0.3-1.5,0.5c-0.4-0.6-0.9-1.2-1.3-1.7
		c0.7-1.3,1.4-2.5,2.2-3.7C223.5,299,223.7,299.2,223.9,299.5z M221.3,309.1c1-0.4,2.1-0.8,3.1-1.2c0.1,0,0.2-0.1,0.2-0.1
		c0.2-0.1,0.3-0.1,0.5-0.2c0.6-0.2,1.2-0.4,1.8-0.5c0.5-0.1,1-0.2,1.5-0.4c0.2-0.1,0.5-0.1,0.7-0.1l0.2,0c0.1,0,0.2,0,0.3-0.1
		c0.1,0,0.1,0,0.2,0c-0.3,1.4-0.6,2.9-0.9,4.2c-0.1,0-0.2,0-0.3,0.1c-0.3,0-0.5,0.1-0.8,0.2c-0.6,0.2-1.2,0.3-1.9,0.5
		c-0.8,0.3-1.6,0.6-2.5,0.9c-0.4,0.2-0.9,0.4-1.4,0.6c-0.8,0.4-1.6,0.8-2.4,1.3c-0.4,0.3-0.9,0.5-1.3,0.8c-0.8,0.5-1.5,1-2.2,1.5
		c-0.4,0.3-0.8,0.6-1.2,0.9c0.5-2,1.1-4.1,1.9-6.2c0.1-0.1,0.2-0.1,0.3-0.2c0.1-0.1,0.2-0.1,0.3-0.2c1-0.6,2-1.1,3-1.6
		C220.9,309.3,221.1,309.2,221.3,309.1z M215.6,322.8c0,0,0.1-0.1,0.1-0.1c0,0,0.1-0.1,0.1-0.1c0,0,0.1-0.1,0.1-0.1
		c0,0,0.1-0.1,0.1-0.1c1-1,2-1.9,3.1-2.7c0.1,0,0.1-0.1,0.2-0.1c0.1,0,0.1-0.1,0.2-0.1c1.1-0.7,2.1-1.4,3.3-2
		c0.1-0.1,0.3-0.1,0.4-0.2l0.1-0.1c1.2-0.6,2.5-1.1,3.8-1.6l0,0c0.3-0.1,0.6-0.2,0.9-0.3c0.1,0,0.1,0,0.2-0.1
		c-0.2,1.4-0.4,2.8-0.5,4.3c0,0,0,0,0,0c-0.3,0.1-0.7,0.2-1,0.4c-1,0.4-2,0.9-3,1.5c-0.5,0.3-0.9,0.5-1.3,0.8c-1,0.7-2,1.5-2.9,2.3
		c-0.1,0.1-0.2,0.2-0.3,0.3l-0.1,0.1c-1,1-1.9,2-2.8,3.1l0,0c0,0,0,0-0.1,0.1c-0.4-0.3-0.9-0.5-1.3-0.8c-0.3-0.2-0.6-0.3-0.9-0.5
		c-0.1-0.1-0.2-0.1-0.3-0.2c0.1-0.7,0.1-1.4,0.2-2.1C214.5,324,215,323.4,215.6,322.8z M219.8,330.5L219.8,330.5
		c0.6-0.8,1.2-1.5,1.8-2.1c0.4-0.4,0.7-0.7,1.2-1.1c0.2-0.2,0.5-0.4,0.7-0.6c1-0.8,2.1-1.5,3.3-2.1c0.2-0.1,0.5-0.2,0.7-0.3
		c-0.1,1.5-0.1,3.1-0.1,4.6c0,0,0,0-0.1,0c0,0-0.1,0-0.1,0.1c0,0,0,0-0.1,0c-1.3,0.9-2.5,1.9-3.5,3.1c-0.2,0.3-0.5,0.6-0.7,1
		c-0.3-0.2-0.5-0.5-0.8-0.7l-0.1-0.1C221.2,331.7,220.4,331.1,219.8,330.5C219.7,330.5,219.8,330.5,219.8,330.5z M227.5,334.2
		c0.1,1.6,0.3,3.2,0.5,4.7c-0.3-0.4-0.6-0.8-1-1.3c-0.4-0.5-0.8-0.9-1.2-1.4C226.3,335.5,226.8,334.9,227.5,334.2z M228.5,347.9
		L228.5,347.9c0.3-0.1,0.6-0.1,0.9-0.2c0.1,0,0.2,0,0.2,0c0,0,0.1,0,0.1,0c0.4,1.3,0.8,2.6,1.2,3.9c-0.1,0-0.2,0-0.3,0
		c-0.2,0-0.4,0.1-0.6,0.1c-0.7,0.1-1.3,0.3-2.1,0.5c-0.6,0.2-1.3,0.3-1.9,0.5c-0.9,0.3-1.7,0.6-2.5,0.9c-0.4,0.2-0.9,0.4-1.4,0.6
		c-0.9,0.4-1.7,0.8-2.4,1.2c-0.5,0.3-0.9,0.5-1.3,0.8c0,0,0,0,0,0c-0.4-1.3-0.9-2.5-1.4-3.8c0.2-0.1,0.4-0.2,0.5-0.3
		c1-0.6,2-1.1,3-1.6c0.2-0.1,0.3-0.1,0.5-0.2c0.1,0,0.1-0.1,0.2-0.1c1.1-0.5,2.1-0.9,3.1-1.2c0.1,0,0.3-0.1,0.4-0.1
		c0.1,0,0.2-0.1,0.3-0.1c0.5-0.2,1.1-0.3,1.8-0.5C227.5,348.1,227.9,348,228.5,347.9z M222.7,358.5c0.1-0.1,0.2-0.1,0.4-0.2
		c0.1,0,0.1-0.1,0.2-0.1c1.2-0.6,2.5-1.1,3.8-1.6l0,0c1.3-0.4,2.6-0.8,4-1c0.4-0.1,0.9-0.1,1.3-0.2l0.1,0c0.6,1.2,1.2,2.5,1.9,3.8
		c-1,0.1-1.9,0.2-2.7,0.3c-1.4,0.2-2.7,0.6-4,1.1c-0.4,0.1-0.7,0.3-1,0.4c-1,0.4-2,0.9-3,1.5c-0.4,0.2-0.8,0.5-1.3,0.8
		c-0.5,0.3-1,0.7-1.6,1.1c-0.3-1.3-0.7-2.8-1.1-4.2C220.8,359.6,221.8,359.1,222.7,358.5z M222.3,379.8c0.1,0.1,0.2,0.2,0.2,0.2
		c0.2,0.2,0.3,0.3,0.4,0.5c0.3,0.4,0.6,0.7,0.9,1.1c0.7,0.8,1.2,1.6,1.7,2.4c0.2,0.3,0.5,0.7,0.7,1.1c-0.6,0.1-1.2,0.3-1.8,0.5
		c-0.1,0-0.2,0-0.2,0.1c-0.1,0-0.3,0.1-0.4,0.1c-0.5,0.2-1.1,0.3-1.5,0.5c-0.1-0.2-0.3-0.4-0.4-0.5c-0.1-0.1-0.2-0.2-0.3-0.3
		C222,383.6,222.3,381.7,222.3,379.8z M246.5,384c0.5-0.8,1.1-1.5,1.7-2.4c0.3-0.4,0.6-0.7,0.9-1.1c0.7-0.8,1.4-1.5,1.9-2.1
		c1.2,0.9,2.2,1.7,3.2,2.4c-0.6,0.6-1.2,1.3-1.8,1.9c-0.3,0.4-0.6,0.8-0.9,1.1c-0.6,0.7-1.2,1.5-1.7,2.3c-0.4-0.2-1-0.3-1.5-0.5
		c-0.1,0-0.3-0.1-0.4-0.1c-0.1,0-0.2,0-0.3-0.1c-0.6-0.2-1.2-0.3-1.8-0.5C246,384.7,246.2,384.3,246.5,384z M254.3,387.1
		c0.7-0.9,1.5-1.8,2.3-2.6c0,0,0.1-0.1,0.1-0.1c0,0,0.1-0.1,0.1-0.1c0,0,0.1-0.1,0.1-0.1c0,0,0.1-0.1,0.1-0.1
		c0.2-0.2,0.4-0.4,0.6-0.5c0.1-0.1,0.1-0.1,0.2-0.2c1.1,0.7,2.4,1.4,3.6,2.1l0,0c-0.3,0.2-0.6,0.5-0.9,0.8c-0.1,0.1-0.2,0.2-0.3,0.3
		l-0.1,0.1c-1,1-1.9,2-2.8,3.1l0,0.1c0,0,0,0,0,0.1c-0.5-0.3-0.9-0.5-1.3-0.8c-0.8-0.4-1.5-0.8-2.2-1.2
		C253.9,387.6,254.1,387.3,254.3,387.1z M260.9,392.1L260.9,392.1L260.9,392.1c0.6-0.8,1.2-1.5,1.8-2.1c0.4-0.3,0.7-0.7,1.2-1.1
		c0.3-0.2,0.5-0.4,0.7-0.6c0.4-0.3,0.8-0.6,1.2-0.8c0,0,0,0,0.1,0c0.1,0,0.2,0.1,0.3,0.1c-0.3,1.9-0.6,3.9-1.1,5.8
		c0,0-0.1,0.1-0.1,0.1c-0.1,0.1-0.1,0.1-0.2,0.2c-0.2,0.3-0.5,0.6-0.7,1c-0.3-0.2-0.5-0.5-0.8-0.7L263,394
		C262.2,393.3,261.5,392.7,260.9,392.1C260.8,392.1,260.8,392.1,260.9,392.1z M263.4,410.6c0.5-0.2,1-0.3,1.5-0.3
		c2,0,3.7,1.6,3.7,3.7c0,2-1.6,3.7-3.7,3.7c-1.8,0-3.3-1.3-3.6-3.1C262,413.3,262.7,412,263.4,410.6z M267.8,424.5
		c2,0,3.7,1.6,3.7,3.7c0,2-1.6,3.7-3.7,3.7s-3.7-1.6-3.7-3.7C264.1,426.2,265.8,424.5,267.8,424.5z M268.7,384
		c0-0.1,0.1-0.2,0.1-0.2l0.5-1.1c0.2-0.5,0.5-1,0.6-1.5c0.4-0.8,0.7-1.8,0.9-2.5c0.3-1,0.5-1.9,0.7-2.8c0.2-1,0.4-2,0.5-3
		c0.1-0.8,0.2-1.6,0.2-2.3l0-0.9l0-0.6c0-0.8,0-1.7-0.1-2.6l-0.1-0.7c-0.1-0.7-0.2-1.5-0.4-2.2c0-0.1,0-0.2-0.1-0.3
		c1.4,1.1,2.9,2.2,4.4,3.1c0.1,0.3,0.2,0.6,0.4,0.9c1,2.8,1.6,6.3,1.5,9.4c0,1.6-0.2,3.3-0.5,4.8c-0.3,1.4-0.8,2.7-1.3,3.5
		c-0.1,0.3-0.3,0.5-0.5,0.7c-0.1,0-0.2,0.1-0.2,0.1l-0.5,0.3c0,0-0.1,0.1-0.1,0.1c0,0,0,0,0,0C272.7,385.6,270.7,384.8,268.7,384z
		 M304.5,366l2-0.6c0.4-0.1,0.9-0.3,1.3-0.5c0.2-0.1,0.4-0.2,0.6-0.3l1.9-0.8l3.2-1.7c0.4-0.2,0.7-0.4,1-0.7
		c0.1-0.1,0.3-0.2,0.4-0.3l0.8-0.6c0.5-0.4,1.1-0.8,1.7-1.2l3.7-3.2c4.5-1,8.4-2.6,11.6-4.8c-1.6,1.8-3.3,3.5-5.1,5.1
		c-1.6,1.4-3.3,2.6-5,3.7c-2,1.3-4,2.4-6,3.2c-2.1,0.9-4.5,1.7-7,2.2c-2.2,0.5-4.4,0.8-6.5,0.9C303.4,366.4,304,366.2,304.5,366z
		 M310.9,371.1L310.9,371.1c1.4-0.4,2.8-0.9,4.2-1.5l0,0c2.3,0.6,5.8,1.6,8.9,3.1c1.6,0.8,2.9,1.5,3.9,2.3c0.6,0.5,1,0.8,1.2,1.2
		c0.3,0.3,0.4,0.6,0.5,0.7l0.1,0.3l0,0.1c0,0,0,0.1,0,0.1c0,0.1,0,0.1,0,0.1c0,0.1-0.1,0.2-0.1,0.3c0,0,0,0.1,0,0.1c0,0,0,0,0,0
		c-1.5,1.5-3.2,2.9-5,4.1c-0.3-0.5-0.6-1-1-1.6c-1.9-2.7-4.9-5-9.1-7.1c-1.4-0.7-2.9-1.4-4.5-1.9
		C310.4,371.3,310.6,371.2,310.9,371.1z M326,366.3c-1.2-0.2-2.5-0.3-3.9-0.4c1.5-1,2.9-2,4.2-3.1c1.8-0.5,4.4-1,6.8-1.1l0.2,0
		c1.2,0,2.2,0.1,3,0.4c0.6,0.2,1.1,0.5,1.3,0.9c0,0,0,0,0.1,0.2c0,0,0,0,0.1,0.2c0,0,0,0.1,0,0.1l0.1,0.3c0,0.1,0,0.2,0.1,0.3
		c0,0.1,0.1,0.2,0.1,0.2c0,0,0,0,0,0c-0.4,1.2-0.9,2.2-1.3,3.2c-0.3,0.7-0.6,1.4-1,2.2c-0.3-0.2-0.6-0.4-0.9-0.6
		c-0.8-0.5-1.7-0.9-2.9-1.4C330.2,367.1,328.3,366.6,326,366.3z M336.9,353.9c-0.9,0.1-1.9,0.2-2.9,0.5c0.9-1.3,1.8-2.6,2.6-4
		c1.5-2.5,2.4-4.5,3.1-6.3c0.2-0.5,0.4-0.9,0.5-1.3c1,3.8,1.1,7.4,0.5,11.4C339.5,353.9,338.1,353.8,336.9,353.9z M340.8,329.5
		c1.6-6.8,1-14.1-1.5-20.9c0.4-0.2,0.8-0.5,1.2-0.7c4.1,8.5,5.4,16.8,3.7,23.5c-0.9-0.3-1.8-0.6-2.7-0.9L340.8,329.5z M353.6,350
		c2,0,3.7,1.6,3.7,3.7s-1.6,3.7-3.7,3.7c-2,0-3.7-1.6-3.7-3.7S351.6,350,353.6,350z M357.1,334.5c-0.9-0.2-1.8-0.3-2.6-0.5
		c2.6-11.5-0.7-22.9-4.3-32.5c0.2-0.2,0.4-0.3,0.7-0.5l0.2-0.1C357.6,314.4,359.7,325.7,357.1,334.5z M367.3,313.7
		c-1.6-7.2-4.4-13.8-8-19.2c0.5-0.4,1-0.8,1.4-1.2c6.8,10.8,10.4,25.2,10.8,43c-1-0.1-1.9-0.1-2.9-0.2
		C369.4,328.5,368.9,320.8,367.3,313.7z M367.2,344c0.5,0,1.1-0.1,1.6-0.1c1.8,0.3,3.1,1.8,3.1,3.6c0,2-1.6,3.7-3.7,3.7
		s-3.7-1.6-3.7-3.7C364.6,345.9,365.6,344.5,367.2,344z M363.6,290.7c0.5-0.5,1-0.9,1.5-1.4c7.2,15,13.7,31,13.1,47
		c-0.9,0-1.8,0-2.8,0C374.9,317.5,371,302.1,363.6,290.7z M357.2,229.6c-0.5-7.4-0.2-15.5,0.3-23.3c1.1-2.6,2.5-5.4,4.3-8.2
		c0,0,0,0,0.1,0c0.1,0,0.1,0,0.2,0c1.6,0,2.9-1.3,2.9-2.9c0-0.5-0.1-0.9-0.3-1.3c0.6-0.8,1.2-1.6,1.7-2.3c0.2,0.1,0.3,0.1,0.5,0.2
		c0.3,2.9,0.5,5.5,0.8,7.9c-1.2,0.5-2,1.7-2,3.1c0,1.7,1.2,3.1,2.9,3.3c0.4,2.3,0.8,4.3,1.2,6.1c-1.1,0.6-1.9,1.7-1.9,3
		c0,1,0.5,2,1.3,2.6c-0.9,2.2-1.5,4.2-2,6.1c-1.3,0.3-2.3,1.5-2.3,2.8c0,1,0.5,1.9,1.3,2.4c-0.2,1.5-0.2,3-0.2,4.4
		c-0.6,0.5-0.9,1.2-0.9,1.9c0,1,0.6,1.8,1.5,2.2c0.4,1.6,0.9,3.1,1.7,4.5C363.5,238.5,359.8,234.3,357.2,229.6z M395,252.7
		c-0.4,0-0.8,0-1.3,0c-5.1,0-11.6-1.9-17.8-5.3c-3.7-2.5-6.1-5.8-7.1-9.9c0.7-0.5,1.1-1.2,1.1-2c0-1.1-0.7-2-1.7-2.3
		c0-1.2,0-2.4,0.1-3.6c1.3-0.3,2.3-1.5,2.3-2.8c0-1-0.5-1.9-1.3-2.4c0.6-2.4,1.4-4.5,2-5.9c0.1,0,0.1,0,0.2,0c0.8,2.1,1.8,4,3,5.7
		c-0.6,0.6-0.9,1.4-0.9,2.3c0,1.8,1.5,3.3,3.3,3.3c0.7,0,1.3-0.2,1.9-0.6c1.2,1.1,2.5,2.1,3.9,2.9c-0.1,0.5-0.2,0.9-0.2,1.3
		c0,2.3,1.9,4.3,4.3,4.3c0.3,0,0.5,0,0.8-0.1c0.9,1.5,2.1,2.8,3.4,4.1c-0.1,0.2-0.1,0.5-0.1,0.7c0,1.6,1.3,2.9,2.9,2.9
		c0.4,0,0.9-0.1,1.3-0.3c1.4,0.9,3,1.7,4.7,2.3c0.2,1.4,1.4,2.4,2.8,2.4c0.9,0,1.7-0.4,2.3-1.1c1.2,0.2,2.4,0.3,3.8,0.3
		C405,251,400.4,252.3,395,252.7z M413,212.1c3.1,3.1,5.3,8.5,5.9,14.1c0.3,3,0.8,13.4-6.9,20.3c-2.3,0.2-4.5,0.2-6.5-0.1
		c-0.2-1.4-1.4-2.4-2.8-2.4c-0.9,0-1.7,0.4-2.3,1.1c-1.3-0.5-2.6-1.1-3.7-1.8c0.1-0.3,0.1-0.6,0.1-0.8c0-1.6-1.3-2.9-2.9-2.9
		c-0.5,0-1,0.1-1.4,0.4c-1-1-1.9-2.1-2.7-3.3c0.4-0.3,0.7-0.7,0.9-1.2c1.6,0.3,3.1,0.5,4.5,0.5c1,0,2-0.1,2.9-0.2
		c0.7,1,1.9,1.6,3.1,1.6c2.1,0,3.8-1.7,3.8-3.8c0-0.2,0-0.3,0-0.5l0,0c1.7-1.2,3.1-2.7,4.3-4.6c0.2,0,0.5,0.1,0.7,0.1
		c1.8,0,3.3-1.5,3.3-3.3c0-1.1-0.5-2.1-1.4-2.7C412.7,219.3,413,215.9,413,212.1z M391.9,222c0.6,0.4,1.2,0.8,1.8,1
		c4.5,2.3,9,2.3,12.3-0.1c3.2-2.3,4.8-6.5,4.7-11.9c0.2,4-0.2,7.6-1.1,10.7c-1.7,0.2-3,1.6-3,3.3c0,0.7,0.2,1.4,0.7,2
		c-1,1.5-2.1,2.8-3.4,3.7c-0.7-0.8-1.7-1.2-2.7-1.2c-2.1,0-3.8,1.7-3.8,3.8c0,0,0,0,0,0c-2,0.3-4.1,0.2-6.2-0.3c-0.1-2.2-2-4-4.2-4
		c-1,0-2,0.4-2.8,1.1c-1.4-0.8-2.6-1.8-3.8-2.9c0.1-0.3,0.1-0.6,0.1-0.8c0-1.8-1.5-3.3-3.3-3.3c-0.1,0-0.2,0-0.3,0c0,0,0,0-0.1,0
		c-1.2-1.7-2.2-3.6-3-5.6c0.8,0.5,1.6,0.9,2.5,1.3c0.3,1.1,1.2,1.8,2.3,1.8c0.4,0,0.9-0.1,1.3-0.4c1,0.4,2.1,0.7,3.2,0.9
		c0.4,0.8,1.2,1.3,2.1,1.3c0.6,0,1.2-0.2,1.6-0.7c1.1,0.1,2.2,0.2,3.1,0.2C390.5,222.1,391.1,222.1,391.9,222z M372.7,188.9
		c3.4,13.7,9.1,24.7,16.2,30.8c-0.5,0-1-0.1-1.5-0.1c-0.2-1.1-1.2-2-2.4-2c-0.9,0-1.7,0.5-2.1,1.2c-0.7-0.2-1.4-0.4-2.1-0.6
		c0,0,0,0,0,0c0-1.3-1.1-2.4-2.4-2.4c-0.7,0-1.3,0.3-1.8,0.8c-0.8-0.4-1.6-0.8-2.2-1.2c0,0,0-0.1,0-0.1c0-0.1,0-0.1,0-0.2
		c0-1.5-1-2.8-2.5-3.2c-0.5-2-0.9-4.1-1.2-6.4c1-0.6,1.5-1.7,1.5-2.8c0-1.5-1-2.8-2.4-3.2c-0.3-2.4-0.6-5.1-0.8-8.1
		c1.1-0.6,1.8-1.7,1.8-2.9c0-1.4-0.9-2.7-2.3-3.2c0-0.1,0-0.3,0-0.4l0-0.3c-0.1-1.7-0.3-3.6-0.5-5.3c0.2,0.3,0.4,0.7,0.6,1.2
		c0,0.2,0,0.3,0,0.5c0,0.9,0.5,1.8,1.4,2.2c0.3,0.6,0.6,1.2,0.9,1.8C371.4,186.3,372.1,187.7,372.7,188.9z M370.7,178.7
		c-0.1,0-0.3,0.1-0.4,0.1c-0.5-0.9-0.9-1.6-1.3-2.2c-0.1-0.9-0.6-1.7-1.4-2.1c-0.2-2-0.4-4-0.6-5.8c0.9-0.5,1.4-1.4,1.4-2.4
		c0-1.3-0.8-2.4-2-2.7c-0.2-1.6-0.5-3.2-0.8-5c0.8-0.5,1.2-1.4,1.2-2.3c0-1.3-0.9-2.5-2.2-2.8c-0.2-1.1-0.5-2.1-0.8-3.3
		c2.2,2.5,4,5.1,5.4,8C369.2,165.3,369.7,172.3,370.7,178.7z M362,127.6c4.3,8,6.6,16.6,7,25.6c-1.9-2.9-3.9-5.1-5.2-6.4
		c0.1-0.4,0.2-0.7,0.2-1.1c0-1.4-1-2.6-2.4-2.8c-0.5-1.6-1-3-1.5-4.3c0.3-0.4,0.5-1,0.5-1.5c0-1.3-0.9-2.3-2.2-2.5
		c-0.9-1.9-1.8-3.9-2.8-5.7c0.4-0.5,0.6-1,0.6-1.6c0-1.3-1.1-2.4-2.4-2.4c-0.2,0-0.4,0-0.6,0.1c-1.9-2.9-4-5.7-6.3-8.3
		c2.3,1.3,4.5,2.6,6.5,3.9l0,0c0,0.1,0,0.2,0,0.2c0,1.3,1.1,2.4,2.4,2.4c0.3,0,0.7-0.1,1-0.2C358.8,124.4,360.5,126,362,127.6z
		 M327.3,98.6c3.7,0.7,7.1,1.6,10.1,2.8c4.2,2.8,8.1,5.9,11.6,9.3c2.5,2.4,4.8,4.9,6.9,7.6c0,0,0,0,0,0c-0.4,0-0.7,0.1-1.1,0.3
		c-2.5-1.7-5.4-3.4-8.5-5c0,0,0,0,0-0.1c0-0.1,0-0.1,0-0.2c0-1.6-1.3-2.9-2.9-2.9c-0.7,0-1.3,0.2-1.8,0.6c-4.6-4.2-10-7.9-16.1-11.2
		C326.2,99.8,326.9,99.2,327.3,98.6z M325.4,94.7c-0.7,0-1.4,0.4-1.9,1c-2.4-0.3-4.8-0.5-7.3-0.6c-5.6-3.3-11.2-6.1-16.5-8.3
		C308.5,88.2,317.3,90.9,325.4,94.7z M299.5,92.8L299.5,92.8c0.9,0.4,1.8,0.8,2.7,1.3l0,0c0.5,6.5,1.7,11.5,3.9,15.6
		c-1.2-0.2-2.4-0.3-3.6-0.5c-3-5.4-4.6-10.5-4.5-15C298.5,93.7,299,93.2,299.5,92.8z M291.7,100.3c0.9-0.9,1.8-1.9,2.8-2.8
		c0.4,3.5,1.6,7.3,3.5,11.1c-1.5-0.2-2.9-0.3-4.3-0.4C292.3,105.8,291.6,103,291.7,100.3z M289.4,107.9c-1.4-0.1-2.7-0.1-4-0.2
		c0.9-1.2,1.9-2.4,2.9-3.5C288.5,105.4,288.9,106.7,289.4,107.9z M284.9,87.5c0.4,0.1,0.9,0.2,1.3,0.3c0.2,2.2,0.7,4.2,1.3,6
		c-0.7,0.7-1.3,1.5-2,2.2c-0.1-0.6-0.1-1.2-0.2-1.8l-0.1-0.6c-0.2-1.8-0.5-4-0.7-6.1L284.9,87.5z M280.7,86.6
		c0.2,2.6,0.5,5.2,0.8,7.4c0.2,2,0.5,4.1,0.7,6.1c-0.6,0.7-1.2,1.5-1.8,2.3c-1.6-4.8-2.4-10.2-2.6-16.3
		C278.9,86.3,279.9,86.4,280.7,86.6z M274,85.6c0.2,7.8,1.4,14.5,3.7,20.4c-0.6,0.9-1.2,1.8-1.8,2.6c-2.4-6.8-3.7-14.4-4-23.2
		C272.5,85.5,273.1,85.6,274,85.6z M268.2,85.4c0.4,10.5,2.1,19.4,5.2,27.3c-0.7,1.1-1.3,2.2-1.9,3.3c-3.5-8.7-5.3-18.7-5.7-30.5
		C266.6,85.5,267.4,85.4,268.2,85.4z M260.9,86c0.3,0,0.7-0.1,1-0.1l0.1,0c0.4,13.4,2.7,24.6,7.1,34.4c-0.2,0.5-0.5,0.9-0.7,1.4
		c-0.1,0.2-0.2,0.4-0.3,0.6c-0.8-0.7-1.6-1.4-2.6-2.2C261.7,109.4,260.1,97.6,260.9,86z M257,88.1c-0.4,9.3,0.7,19,3.2,27.9
		c-0.4-0.3-0.8-0.6-1.2-0.9C256.7,106.4,256,97.1,257,88.1z M271,130.2c-1.1,0.8-2.6,1-3.7,1c-1.6,0-3-0.3-3.6-0.5
		c-1.8-4.2-4.3-8.4-7.4-12.6C261.9,122.2,266.9,126.3,271,130.2z M252.4,106.8c0,0-0.1,0.1-0.1,0.1c-0.5,0.6-1.1,1.3-1.9,1.9
		c-0.7-0.5-1.3-0.9-1.9-1.3c1.2-0.9,2.4-1.7,3.6-2.6C252.2,105.6,252.3,106.2,252.4,106.8z M245.5,105.1l-1.7-2.8
		c2.4-1.4,5.2-3.1,7.6-5.2c0,1.1,0.1,2.3,0.2,3.4C249.5,102.3,247.5,103.8,245.5,105.1z M243.5,90.5
		C243.5,90.5,243.6,90.5,243.5,90.5C243.6,90.5,243.5,90.5,243.5,90.5C243.5,90.5,243.5,90.5,243.5,90.5z M243,95.7
		c3.1-2.2,6-4.7,8.6-7.5c-0.1,1.1-0.1,2.2-0.2,3.3c-2.4,3.2-5.7,5.3-8.8,7.1C242.7,97.7,242.9,96.7,243,95.7z M148.9,127.9
		c2.7-2.9,5.5-5.5,8.3-7.9c2.9,0,5.9,0.4,9,1.1c-4,2.4-8.2,5.2-11.8,7.6c0-0.3-0.2-0.5-0.5-0.5c-1.5-0.2-3.1-0.3-4.7-0.3
		C149,127.9,148.9,127.9,148.9,127.9z M148.9,132.4c-2.7,1.8-5.8,4-9,6.1c1.5-2,3-3.9,4.7-5.9c1.4-0.2,2.8-0.2,4.2-0.2
		C148.8,132.4,148.9,132.4,148.9,132.4z M180.6,127.6c-0.1-1.4-0.3-2.6-0.4-3.6l-0.5-2.8c1.4-0.8,2.8-1.5,4.2-2
		c0,0.2,0.1,0.4,0.1,0.6l0,0.2c0.1,0.9,0.4,3.2,0.2,5.8c-0.1,0.9-0.2,1.9-0.4,3.1c0,0,0,0,0,0.1c0,0,0,0,0,0l-0.8,0.9
		c-0.9,1.1-1.7,2.2-2.4,3.1c0-0.4,0.1-0.9,0.1-1.4C180.8,130.5,180.7,129.2,180.6,127.6z M171.3,118.3c-0.3-0.3-2.5-0.9-3.4-1.1
		c-2.2-0.6-4.2-1-5.5-1.2c4.2-3,8.4-5.2,12.3-6.5c3.5,1,6.3,2.5,8.2,4.4C179.2,114.7,175.4,116.2,171.3,118.3z M168.1,148
		c-0.7-2.6-1.7-5.5-2.5-7.9c-0.4-1.1-0.7-2-1-2.6l-0.1-0.2c0.6-1.1,1.2-2.2,1.9-3.3l0.6,1.2c1.4,2.8,2.5,5.3,3.3,7.5
		c0.5,1.2,1,2.7,1.4,4.1c-0.9,1.5-1.8,3-2.7,4.5C168.7,150.3,168.4,149.1,168.1,148z M168.1,152.7c-0.1,0.2-0.2,0.3-0.3,0.5
		c-0.1,0.2-0.3,0.5-0.4,0.7c-0.8,1.2-1.4,2.2-2,3.2c-0.2-0.9-0.5-1.7-0.7-2.5c-0.7-2.2-1.6-4.6-2.7-7.2l-1-2.2
		c0.6-1.5,1.2-3,1.8-4.4c0.1,0.1,0.1,0.2,0.2,0.3c1.2,2.2,2.5,4.9,3.5,7.4C167,150,167.6,151.4,168.1,152.7z M162.9,127.4
		c-0.1-0.1-0.1-0.1-0.2-0.2c1.6-1.1,3-2,4.2-2.8c0.5,0.9,0.3,2-0.4,2.8c-0.5,0.5-1.1,0.8-1.8,0.8
		C164.1,128.1,163.4,127.9,162.9,127.4z M169.7,134.1l-1.1-3.2c0.8-1,1.5-1.9,2.3-2.7c0.2,0.6,0.5,1.2,0.7,1.8
		c0.7,1.8,1.8,4.6,2.6,7.5c0.4,1.3,0.7,2.6,1,3.8c-0.8,1.3-1.7,2.6-2.6,4.1c-0.2-1-0.4-2.1-0.6-3.1
		C171.4,139.8,170.7,137.2,169.7,134.1z M170.4,122.3c1-0.6,2.1-1.2,3.3-1.8c0.5,0.2,1,0.3,1.5,0.4c-1.3,0.9-2.6,1.9-3.8,2.9
		C171.1,123.2,170.8,122.7,170.4,122.3z M174.3,129c-0.4-1.8-0.8-3-0.9-3.4c1.1-1,2.2-1.8,3.4-2.6l0.6,1.7c0.3,0.9,0.6,2,0.9,3.3
		c0.3,1.5,0.6,2.7,0.7,3.8c0.1,0.7,0.1,1.3,0.2,2c0,0.4,0,0.9,0,1.3v0.1c-0.7,1-1.2,1.7-1.7,2.5c-0.3,0.5-0.6,1-0.9,1.4
		c-0.1,0.2-0.2,0.3-0.3,0.5c-0.1-0.9-0.2-1.8-0.3-2.5C175.4,134,174.8,131,174.3,129z M152.3,135.8c0.5-0.5,1.1-0.8,1.9-0.9
		c0,0,0.1,0,0.1,0c0.7,0,1.3,0.2,1.8,0.7c1.1,1,1.2,2.7,0.2,3.8c-0.5,0.5-1.1,0.8-1.9,0.9c-0.7,0-1.4-0.2-1.9-0.7
		c-0.5-0.5-0.8-1.1-0.9-1.9C151.6,137.1,151.8,136.4,152.3,135.8z M156.8,131.9c-0.2-0.1-0.3-0.3-0.5-0.4l0.3-0.2c1-0.7,2-1.4,3-2.1
		c0.6,0.6,1.2,1.2,1.8,1.7c0.2,0.2,0.4,0.3,0.6,0.5c0.4,0.4,0.9,0.7,1.5,0.9c-0.9,1.2-1.8,2.5-2.6,4c-0.2-0.7-0.6-1.3-1.1-1.8
		L156.8,131.9z M158.1,153.4c0.1-0.3,0.2-0.6,0.3-1c0.4-1.1,0.7-2.2,1.1-3.3c1.3,2.2,2.5,4.3,3.4,6.2c0.5,1,1,2.1,1.4,3.2
		c-0.8,1.2-1.5,2.2-2.2,3c-0.3,0.4-0.6,0.8-1,1.2c-0.2-0.9-0.4-1.7-0.6-2.4c-0.7-2.5-1.7-4.8-2.4-6.3c0-0.1-0.1-0.2-0.1-0.3
		c0-0.1,0-0.1-0.1-0.2L158.1,153.4z M159,161L159,161c0.5,0.9,0.9,1.9,1.3,2.9c-1.3,1.5-2.6,2.7-3.8,3.6c-0.1,0.1-0.3,0.2-0.4,0.3
		l0,0c0,0,0,0,0,0c0-0.1,0-0.1,0-0.2c-0.3-2-0.8-3.9-1.3-5.4c-0.1-0.2-0.1-0.4-0.2-0.6c0-0.1-0.1-0.2-0.1-0.3
		c0.8-1.3,1.5-2.7,2.2-4.3C157.6,158.3,158.4,159.7,159,161z M154.6,168.7c-1.5,0.9-3.1,1.4-4.6,1.7c-2,0.3-4,0.1-6.1-0.5
		c-0.5-0.2-1.1-0.4-1.7-0.6c0.2,0,0.4,0,0.7,0c2.7,0,6.3-1,9.8-5.3c0.6,1.2,1.2,2.5,1.7,4C154.4,168.2,154.5,168.4,154.6,168.7z
		 M143.4,171.1c2.3,0.9,4.6,1.3,6.8,1.2c1.3-0.1,2.6-0.4,4-0.8c1.2-0.4,2.4-1.1,3.8-2c2.3-1.5,4.5-3.6,6.6-6.2
		c1.9-2.3,3.8-4.8,5.6-7.7c1.4-2.2,2.9-4.5,4.2-6.8c0.3-0.5,0.6-0.9,0.9-1.4c3.7-6.2,6.8-11.2,10.2-15.6c0.3-0.4,0.7-0.8,1-1.2
		c0.6-0.7,1.2-1.5,1.8-2.1l1.4-1.6l1.5-1.4c0.6-0.6,1.3-1.2,2-1.7c0.3-0.3,0.7-0.5,1-0.8c0.3-0.3,0.6-0.5,1-0.7
		c0.2-0.1,0.4-0.2,0.5-0.4c0.2-0.1,0.4-0.2,0.5-0.4c0.3-0.2,0.6-0.4,1-0.6c0.5-0.3,1-0.5,1.5-0.8l0.1,0c0.5-0.2,0.9-0.5,1.4-0.6
		l2.2-0.8c0.1,0,0.3-0.1,0.5-0.1c0.1,0,0.2,0,0.2-0.1c0.2,0,0.4-0.1,0.6-0.1c-8.7,4.3-12.4,13.7-15.5,22.9c-0.4,1.3-0.9,2.7-1.3,4
		c-2,6.5-4.1,13.2-9,19.6c-8.1,10.3-17.9,12.1-23.1,12.2c-0.5,0-1,0-1.4,0c-6.9,0-11.3-1.6-14.4-8.8c0,0,0.1,0,0.1,0.1
		C139.8,169.3,141.4,170.3,143.4,171.1z M186.9,118.6c0-0.2,0-0.3,0-0.5c1.1-0.3,2.1-0.6,3-0.8l0.2,0.7c0.1,0.2,0.1,0.5,0.2,0.7
		l0.2,0.8c0,0.2,0.1,0.4,0.1,0.6c0,0.1,0,0.2,0,0.3c0,0.1,0,0.2,0,0.3c0,0.2,0,0.4,0,0.7l-0.1,1c0,0.1,0,0.3-0.1,0.4
		c-0.3,0.2-0.7,0.5-1.1,0.9l-1.6,1.4l-1.9,1.9l0,0c0.1-0.3,0.2-0.5,0.2-0.8c0.5-1.9,0.9-4.2,0.9-6.3c0-0.1,0-0.2,0-0.3
		C187,119.3,187,118.9,186.9,118.6z M202.6,117.4L202.6,117.4c-0.1,0-0.2,0-0.3,0c-0.2,0-0.3,0-0.5,0.1l-0.8,0.2
		c-0.5,0.1-1.1,0.3-1.6,0.4c-0.5,0.1-1,0.3-1.5,0.5l-1.9,0.7c-0.4,0.2-0.7,0.4-1.1,0.6c-0.2,0.1-0.4,0.2-0.6,0.3
		c-0.2,0.1-0.4,0.2-0.6,0.3c-0.4,0.2-0.8,0.4-1.1,0.7c-0.1,0.1-0.2,0.1-0.2,0.2c0-0.1,0.1-0.3,0.1-0.4c0-0.1,0-0.2,0.1-0.2
		c0-0.1,0.1-0.2,0.1-0.3c0.1-0.2,0.1-0.5,0.1-0.8l0.1-1l0-0.9l0-0.7c0-0.1,0-0.1,0-0.2l0,0c1.4-0.2,2.7-0.3,4-0.3
		c2.3,0,4.6,0.3,6.8,0.8c-0.1,0-0.1,0-0.2,0C203.3,117.3,203,117.4,202.6,117.4z M192.4,112.6c-0.5,0-1,0-1.5,0
		c-2.2-0.4-3.7-1.4-5.3-3.2c-1-1.1-1.4-2.6-1.3-4.3c3,1.1,8.9,3,16.2,3c2.5,0,5-0.3,7.6-0.7c0.7,3.2,1.6,6.3,2.5,9.1
		C204.1,113.8,198.1,112.6,192.4,112.6z M207.6,104.7c-5.1,1-10.9,0.8-16.5-0.4c-4.3-0.9-7.1-2.2-7.4-2.4c-5.5-2-6.1-5.9-5.9-8
		c5.7,2,14.3,2.5,20.5,2.5c3.3,0,6-0.1,7.2-0.2c0.4,0.4,0.7,0.7,1.1,1.2C206.8,99.7,207.2,102.2,207.6,104.7z M194.4,71
		c0.4-0.5,0.8-0.9,1.2-1.4c2,4.1,6.1,10,11,15.7c-0.2,1.6-0.3,3.2-0.3,5c0,0,0,0,0-0.1c-0.1-0.1-0.1-0.2-0.2-0.3
		c-0.1-0.2-0.3-0.4-0.4-0.6c-0.3-0.4-0.5-0.8-0.8-1.2l-1.4-1.7c-0.3-0.4-0.7-0.7-1-1c-0.2-0.2-0.3-0.3-0.5-0.5
		c-0.3-0.3-0.5-0.5-0.8-0.7l-1.8-1.3c-0.2-0.2-0.4-0.3-0.6-0.4c-0.1-0.1-0.2-0.1-0.3-0.2l-1.5-0.8c-0.3-0.6-0.7-1.3-1.1-2
		c-0.1-0.2-0.3-0.5-0.5-0.7c-0.1-0.1-0.2-0.2-0.3-0.4c-0.1-0.1-0.2-0.2-0.3-0.4c-0.2-0.2-0.3-0.5-0.5-0.7l-0.8-1
		c-0.1-0.1-0.2-0.2-0.3-0.3c-0.2-0.2-0.4-0.5-0.6-0.7l-0.6-0.6C192.6,73,193.4,72,194.4,71z M145.4,40.9c-0.3-3.6-1.8-9.1-2.7-12.2
		c14.5,7.2,18.5,14.5,19.5,17.4c-3.2,0.9-6,1.3-8.3,1.3C147.3,47.5,145.6,43.9,145.4,40.9z M155.2,56.5c-4-2.2-5.3-4.2-5.6-5.4
		c-0.1-0.5-0.2-1-0.1-1.5c1.3,0.4,2.8,0.6,4.4,0.6c2.8,0,6.1-0.6,9.9-1.7c3.3,1.4,5.6,3,6.8,4.9c1,1.5,1,2.8,0.9,3.4
		C165.7,59.3,156.3,56.8,155.2,56.5z M161.6,68c-5.6-2.3-6.1-6.3-5.8-8.5c1.9,0.4,5.5,1.2,9.3,1.2c3.3,0,6-0.5,8.1-1.6
		c3.3,1.4,5.3,3.1,6,5.2c0.6,1.7,0.1,3.1-0.2,3.9c-0.3,0-0.6,0.1-0.8,0.3C172.5,69.8,162.7,68.2,161.6,68z M169.7,79.3
		c-5-1.5-6.5-5.9-7-8.4c2,0.3,5.8,0.8,9.5,0.8c2.7,0,5-0.3,6.8-0.8c7.6,2.7,11.8,8.1,13.6,11.1C186.6,82.1,176.5,81.3,169.7,79.3z
		 M170.6,82.3c7,1.8,15.4,2.4,20.6,2.4c1.3,0,2.5,0,3.5-0.1c5.1,2.1,8,6.5,9.3,9c-5.8,0.2-19.8,0.4-26.6-2.7
		C171.8,88.3,170.7,84.4,170.6,82.3z M177.1,101.2C177.1,101.2,177.1,101.2,177.1,101.2C177.1,101.2,177.1,101.2,177.1,101.2
		c0.2,0.3,0.5,0.5,0.7,0.7c0.1,0.1,0.1,0.1,0.2,0.2c0.1,0.1,0.3,0.3,0.5,0.4l0.7,0.5l0.8,0.5c0,0,0,0,0.1,0
		c-1.8,0.2-3.6,0.6-5.5,1.2c-2.1-0.5-4.5-0.9-7.2-1.2C170.5,102.6,173.8,101.8,177.1,101.2z M156.1,108.1c0.1-0.1,0.3-0.1,0.4-0.2
		c0.1,0,0.2-0.1,0.3-0.1c3.7-0.1,7.1,0,10,0.2c-3.6,1.9-7.4,4.5-11.2,7.6c-4.8,0.1-9.6,0.9-14.3,2.4
		C145.5,114.3,150.4,111,156.1,108.1z M133.6,126.6c2.2-1.4,8-4.7,16.3-6c-2.6,2.5-5.2,5.1-7.6,7.9c-5.1,0.8-9.4,2.5-12.1,3.7
		C131.2,130.3,132.3,128.4,133.6,126.6z M126.6,141.1c0.2-0.8,0.5-1.6,0.7-2.2c2-1.4,5.7-3.3,10.3-4.7c-3.1,4-5.4,7.6-6.2,9.4
		c-2.3,1.1-4.5,2-6.5,2.5C125.5,144.2,126.2,142.3,126.6,141.1z M125.1,150.4c0.1,0.8-0.1,1.6-0.6,2.1c-0.5,0.5-1.2,0.8-1.9,0.9
		c0,0,0,0-0.1,0c-0.7,0-1.4-0.3-1.9-0.8c-0.4-0.3-0.6-0.8-0.8-1.2C121.5,151.3,123.2,150.9,125.1,150.4z M98,169.9
		c-0.7-0.7-1.2-1.3-1.7-1.8l0.8-0.9c0.7-0.8,1.1-1.9,1.1-3c-0.1-1.1-0.5-2.1-1.4-2.9l-3.1-2.8c-0.6-0.6-1.5-0.9-2.3-1
		c-0.4-2.3-0.4-4.7-0.1-6.9c1-0.1,1.9-0.6,2.6-1.4l2.7-2.9c2.4-2.6,0.5-5.2-1.2-6.9c0.7-1,1.4-1.9,2.1-2.7l0.9,0.6
		c0.5,0.5,1.2,0.8,1.9,1c1.2,4.9,4.6,9,9.3,11c2.3,1,4.4,1.6,6.4,1.9c0.2,1,0.7,1.9,1.4,2.7c0,0,0,0,2.4,2.8c0.8,0.7,1.9,1.1,3,1.1
		c1.1-0.1,2.1-0.5,2.9-1.4l2.8-3.1c1.2-1.4,1.4-3.1,0.5-4.6c3.5-1.5,7.6-3.8,12.4-7.1c2.2-1.4,4.2-2.9,6.1-4.2
		c0,1.2,0.4,2.3,1.3,3.1l2.9,2.6c1.5,1.3,3.7,1.4,5.2,0.1c-1.4,2.7-2.6,5.5-3.6,7.8l-0.2,0.5c-0.7,0.2-1.5,0.7-2.1,1.4l-1.7,2.5
		c-1.2,1.3-1.9,3.5-1.6,5.1c0.1,0.3,0.1,0.6,0.3,0.9c-0.6,0.9-1.2,1.6-1.8,2.2c-1.7-1.2-4.1-1-5.5,0.6l-0.9,1c0,0-0.1,0-0.1,0
		c-0.1,0-0.2-0.1-0.3-0.1c0,0-0.1,0-0.1,0c0,0-0.1,0-0.1,0c-0.3-0.1-0.6-0.2-0.8-0.4c-0.1,0-0.2-0.1-0.3-0.2
		c-0.2-0.1-0.4-0.2-0.7-0.4l1.3-1.5c0.7-0.8,1.1-1.8,1-2.9c-0.1-1.1-0.5-2-1.3-2.7l-2.9-2.6c-1.6-1.5-4.1-1.3-5.6,0.3l-2.6,2.9
		c-1.5,1.6-1.3,4.1,0.3,5.6l2.9,2.6c0.8,0.7,1.9,1.1,3,1c0.1,0.3,0.2,0.6,0.3,0.8c0.2,0.4,0.4,0.8,0.5,1.2l0,0.1
		c0.1,0.2,0.2,0.4,0.3,0.6c0.2,0.4,0.4,0.8,0.7,1.2c0.1,0.2,0.2,0.3,0.3,0.4c0.3,0.5,0.6,0.9,0.8,1.3c0,0.1,0.1,0.1,0.1,0.2
		c0,0,0,0.1,0.1,0.1c0.9,1.2,1.9,2.3,3,3.3c0.1,0.1,0.1,0.1,0.2,0.2c0.2,0.1,0.3,0.3,0.5,0.4c0.1,0.1,0.3,0.2,0.4,0.3
		c0.1,0,0.1,0.1,0.2,0.1c0.4,0.3,0.8,0.6,1.1,0.8c0,0,0,0,0.1,0c-1,0.2-2,0.4-2.7,0.6c-0.4-1.1-1.3-1.9-2.2-2.7
		c-0.1-0.1-0.2-0.2-0.3-0.2c-2-1.8-6.5-0.5-8,1.2c0,0-1.9,2.1-1.9,2.2c-0.3,0.3-0.6,0.8-0.8,1.3c-3.4,0.1-6.5-0.2-9.5-0.8l-2-1.8
		c-1.4-1.3-3.4-1.4-5-0.3c-0.8-0.3-1.5-0.7-2.3-1.1c0.9-1.9,0.5-4.9-0.9-6.1l-1.8-1.7c-0.7-0.7-1.7-1-2.7-1c-0.1,0-0.1,0-0.2,0
		c-1.1,0.1-2,0.5-2.7,1.3L98,169.9z M134.8,162.5l-0.2-0.2l0,0l-3.2-2.6l0.8,3.2c-0.3-0.1-0.6-0.3-0.9-0.5c-1.1-1-1.2-2.7-0.2-3.8
		c0.5-0.5,1.1-0.8,1.9-0.9c0.7,0,1.4,0.2,1.9,0.7c0.5,0.5,0.8,1.1,0.9,1.9c0,0.7-0.2,1.4-0.7,1.9C135,162.2,134.9,162.3,134.8,162.5
		L134.8,162.5z M134.5,179.4c-1.4,0.2-2.6,0.4-3.6,0.5c0,0,0-0.1,0.1-0.1c0.5-0.6,1.2-0.9,2-0.9C133.4,178.9,134,179.1,134.5,179.4z
		 M110,205c-1.4,1.4-2.8,2.9-4.2,4.4c0.3-1,0.5-2,0.8-2.8c0.9-3.4,1.5-5.7,3.7-8.4c1.6-0.7,3.1-1.3,4.6-2.1c-1,0.8-2,1.8-3.1,2.9
		C109.9,200.9,109.2,203.3,110,205z M107.3,184.6c1.1,1.3,2.9,2.1,5.2,2.2c6.3,0.3,9.9-0.1,14.6-1.8c-3.3,2.3-6.4,4.2-9.4,5.9
		c-3.6-0.5-5.7-1.8-9-3.7c-0.9-0.5-1.9-1.1-3-1.8c-0.9-0.5-1.7-0.8-2.7-0.9c1.2-1.1,2.3-2.2,3.4-3.3c-0.1,0.2-0.1,0.3-0.1,0.5
		C106.2,182.7,106.5,183.7,107.3,184.6z M100.2,171.8c1-0.8,2.4-0.8,3.3,0.1c0.8,0.7,1,1.8,0.7,2.8
		C102.8,173.8,101.5,172.9,100.2,171.8z M98,188.4c0.4,2.1,2.5,3.7,5.3,4.1c4.3,0.7,7.2,0.9,10.2,0.5c-2.3,1.2-4.6,2.1-6.8,2.9
		c-3.5-0.7-5.6-2-8.7-4.1c-0.8-0.5-1.7-1.1-2.8-1.8C96.2,189.6,97.1,189,98,188.4z M87.5,192.9c0.4,2,2.4,3.5,5.1,4.1
		c2.6,0.6,4.7,0.9,6.5,1c-5.7,0.9-10.4,0-14-2.5c-1.2-0.8-2.3-1.8-3.2-3C83.5,193,85.5,193.1,87.5,192.9z M71.9,191.6
		c0-2.8,0.8-5.5,2.4-7.8c0.3,2.2,1.3,6.2,4,9.9c-1.4-0.6-3-1.2-5.1-1.8C72.9,191.8,72.5,191.7,71.9,191.6z M76.6,203.6
		c-1.2-1.2-2.2-2.7-2.9-4.2c-0.1-0.2-0.1-0.3-0.2-0.5c0-0.1,0-0.1-0.1-0.2c0.8-0.1,1.4-0.1,2.1-0.2c3.2-0.3,5.6-0.5,8.5,0.4
		c1,0.6,2.1,1.1,3.2,1.5c-2.6,0.2-5.1,0.8-8.7,2.1C77.8,202.8,77.2,203.1,76.6,203.6z M87.3,209c-1.6-0.4-3-0.8-4.3-1.3
		c0.4-0.4,0.8-0.7,1.2-1c2.8-2.4,4.6-4,8-5c0.9,0.1,1.8,0.1,2.6,0.1c0.5,0,1,0,1.6,0c-1.8,0.7-3.7,1.7-6.1,3.2
		C88.6,205.9,87.5,207.4,87.3,209z M94.4,210.2C94.4,210.2,94.5,210.1,94.4,210.2c0.1-0.1,0.2-0.2,0.2-0.2c0.7-0.9,1.3-1.7,1.9-2.5
		c2.6-3.4,4.1-5.5,8.9-7.5c0.1,0,0.1,0,0.2-0.1c0,0,0,0,0,0c-2,1.6-3.8,3.5-6,6.6c-1,1.3-1.5,2.7-1.5,4
		C96.8,210.4,95.6,210.3,94.4,210.2z M152.5,242.1c-0.7,0-1.3,0-1.7,0c-4.7,0-9.3,2-14.2,6.2c-3.3,2.9-8.5,6.8-12.1,8.6
		c-3.1,1.5-9.2,3.6-16.1,0.6c-5.3-2.3-8.7-4.3-9.6-7.4c-0.9-2.9-2.2-5.5-3.5-8.2c-0.7-1.3-1.2-2.4-1.7-3.5c0.2-0.3,0.3-0.6,0.4-1
		c0.2-0.6,0.3-1.3,0.2-2c0-0.4-0.1-0.8-0.2-1.2c-0.1-0.3-0.2-0.6-0.4-0.9c0-0.1-0.1-0.2-0.1-0.3c0-0.1-0.1-0.1-0.1-0.2
		c-0.2-0.3-0.4-0.6-0.7-0.8c-0.3-0.3-0.6-0.5-0.9-0.7c0.2-0.9,0.6-1.8,1.2-2.5c6.3-7.3,13.6-15.1,21.8-23c0.6-0.4,1.1-0.9,1.6-1.5
		c12.1-11.5,23.4-20.9,28.1-24.4c0.1,0,0.2-0.1,0.3-0.1c0.1-0.1,0.3-0.1,0.4-0.2c2.6,1.1,5.4,1.7,8.4,1.7c9.3,0,18.9-5.3,26.2-14.7
		c6.3-8,9.2-16.9,11.8-24.6c3.8-11.4,6.7-20.4,18.3-22.8l1.7-0.4c0.5,1.3,1.1,2.4,1.6,3.4l0.1,0.2l0.2-10.8v0l0,0
		c-4.7-10.1-5.7-25.3,2.5-36.4c4.6,9.6,9.5,14.2,14.1,18.1c10,8.3,13,18.6,13.7,25.7c0.8,7.7-0.8,13.5-0.8,13.6L243,133l0.2-0.3
		c4.1-6.2,5.9-12,5.4-17.7c27.4,30.6,9.4,53.3-9.7,77.2c-9.9,12.4-20.1,25.3-24,39.6C203.6,236.8,180.4,242.6,152.5,242.1z
		 M202.9,264.2c0.1-0.9,0.4-1.6,1.1-2c0.4-0.3,0.8-0.4,1.3-0.4c0.2,0,0.4,0,0.6,0.1c1.3,0.4,2.1,1.2,2.5,2.4l0,0.1l0.1-0.1
		c0.9-1.4,1.7-2.2,3.4-2c0.9,0.1,1.9,0.7,1.8,1.7c-0.1,1.6-1.6,2.9-3.1,4.4c-1.7,1.7-3.7,3.5-4,6C203.9,271,202.7,267.6,202.9,264.2
		z M204.7,321.1c-1,2.2-2.2,4.6-1.6,7c-3.7-2.4-6-5.1-7-8.3c-0.2-0.8-0.1-1.6,0.3-2.2c0.4-0.6,1-0.9,1.6-0.9c0.1,0,0.2,0,0.3,0
		c1.2,0,2.2,0.5,2.9,1.4l0.1,0.1l0-0.1c0.3-1.6,0.8-2.6,2.5-3.1c0.9-0.2,2,0,2.3,1C206.5,317.4,205.6,319.2,204.7,321.1z
		 M206.3,299.4c-2.4,2.1-5,4.5-5.5,7.7c-3.3-4.7-4.7-9.2-4.3-13.6c0.1-1.1,0.6-2,1.5-2.6c0.5-0.3,1-0.5,1.6-0.5c0.3,0,0.6,0,0.9,0.1
		c1.7,0.6,2.7,1.7,3.1,3.3l0,0.1l0.1-0.1c1.2-1.8,2.3-2.8,4.5-2.5c1.2,0.2,2.5,1,2.3,2.3C210.4,295.8,208.4,297.6,206.3,299.4z
		 M211.1,286.1c-0.2-4.4,0.7-7.8,2.9-10.5c0.5-0.7,1.2-1.1,2-1.1c0,0,0,0,0,0c0.7,0,1.3,0.3,1.7,0.8c0.8,1.1,1,2.2,0.6,3.4l0,0.1
		l0.1-0.1c1.5-0.7,2.6-0.9,3.9,0.3c0.7,0.6,1.2,1.6,0.5,2.4c-1,1.2-3,1.5-5,1.9C215.4,283.8,212.7,284.2,211.1,286.1z M213.7,336.4
		c-0.1-1.7-0.2-3.3-0.2-4.9c0,0,0.1,0,0.1,0.1c0.1,0.1,0.3,0.2,0.4,0.2c0.9,0.6,1.9,1.2,2.8,1.9c0.2,0.1,0.4,0.3,0.6,0.4l0,0
		c0.9,0.7,1.8,1.4,2.6,2.2c0.2,0.2,0.4,0.4,0.6,0.6c0.8,0.8,1.6,1.6,2.3,2.5c0.3,0.4,0.6,0.7,0.9,1.1c0.1,0.1,0.1,0.1,0.2,0.2
		c0.1,0.2,0.3,0.3,0.4,0.5c0.4,0.5,0.8,1,1.2,1.6c0.2,0.3,0.4,0.6,0.7,1.1c-0.5,0.1-1.1,0.3-1.8,0.5c-0.1,0-0.2,0-0.2,0.1
		c-0.1,0-0.3,0.1-0.4,0.1c-0.5,0.1-1,0.3-1.5,0.5c-0.5-0.8-1.1-1.6-1.7-2.3c-0.3-0.4-0.6-0.7-0.9-1.1c-0.6-0.7-1.2-1.3-1.9-2
		c-0.6-0.6-1.2-1.1-1.8-1.6c-0.5-0.4-0.9-0.7-1.4-1.1c-0.2-0.2-0.5-0.3-0.7-0.5C214,336.6,213.8,336.5,213.7,336.4z M216.1,348
		c-0.1,0-0.2,0.1-0.2,0.1c0,0-0.1,0-0.1,0.1c-0.5-2-1-3.9-1.3-5.8c0,0,0.1,0.1,0.1,0.1c0.1,0.1,0.3,0.3,0.4,0.4c0,0,0.1,0.1,0.1,0.1
		c0,0,0.1,0.1,0.1,0.1c0,0,0.1,0.1,0.1,0.1c0,0,0.1,0.1,0.1,0.1c0.8,0.8,1.6,1.7,2.3,2.6c0.2,0.2,0.4,0.5,0.6,0.8
		C217.6,347.2,216.9,347.6,216.1,348z M224.5,426.6l-0.2,0.1c-0.9-0.1-1.8-0.3-2.7-0.5c-0.1-0.1-0.2-0.2-0.3-0.4
		c-0.2-0.3-0.4-0.6-0.6-0.8c-0.3-0.4-0.6-0.7-0.9-1.1c-0.6-0.7-1.2-1.3-1.9-2c-0.6-0.6-1.2-1.1-1.8-1.6c-0.5-0.4-0.9-0.7-1.4-1.1
		c-0.7-0.5-1.4-1-2.2-1.5c-0.4-0.2-0.8-0.5-1.3-0.8c-0.8-0.5-1.6-0.9-2.4-1.3c-0.5-0.2-0.9-0.4-1.4-0.6c-0.8-0.3-1.6-0.6-2.5-0.9
		c-0.7-0.2-1.3-0.4-1.9-0.5c-0.6-0.2-1.3-0.3-2-0.4c-0.9-1.3-1.7-2.7-2.4-4.4c1,0.1,2,0.2,2.9,0.4l0.2,0c0.2,0,0.5,0.1,0.7,0.1
		c0.5,0.1,1,0.2,1.5,0.4c0.6,0.2,1.2,0.3,1.8,0.5c0.2,0.1,0.3,0.1,0.5,0.2c0.1,0,0.1,0.1,0.2,0.1c1.1,0.4,2.1,0.8,3.1,1.2
		c0.2,0.1,0.4,0.2,0.7,0.3c1,0.5,2,1,3,1.6c0.1,0,0.2,0.1,0.2,0.1c0.1,0.1,0.3,0.1,0.4,0.2c0.9,0.6,1.9,1.2,2.8,1.9
		c0.2,0.1,0.3,0.3,0.5,0.4l0.1,0.1c0.9,0.7,1.8,1.5,2.6,2.2c0.2,0.2,0.4,0.4,0.6,0.6c0.8,0.8,1.6,1.6,2.3,2.5
		c0.3,0.4,0.6,0.7,0.9,1.1c0.1,0.1,0.1,0.1,0.2,0.2c0.1,0.2,0.3,0.3,0.4,0.5c0.4,0.5,0.8,1.1,1.2,1.6c0.2,0.3,0.4,0.6,0.7,1.1
		C225.7,426.3,225,426.5,224.5,426.6z M238.9,425.1c-1.1-0.1-2-0.1-2.9-0.1c-1.3,0-2.7,0.1-4,0.2c0,0,0,0,0,0c0,0,0-0.1,0-0.1
		c0,0,0-0.1,0-0.1c0,0,0-0.1,0-0.1c0.1-2.2,1.9-3.9,4-3.9c2.1,0,3.8,1.6,4,3.6C239.7,424.8,239.3,424.9,238.9,425.1z M245.1,419.8
		c-0.4,0.5-0.7,0.9-1,1.3c-0.1,0.2-0.2,0.3-0.3,0.5c0,0.1-0.1,0.1-0.1,0.2c-0.2-0.5-0.5-1-0.8-1.4c-1.1-1.6-2.8-2.8-4.8-3.3
		c-0.7-0.2-1.3-0.2-2-0.2c-0.6,0-1.3,0.1-2,0.2c-1.9,0.5-3.6,1.6-4.8,3.3c-0.3,0.5-0.6,1-0.8,1.4c0-0.1-0.1-0.1-0.1-0.2
		c-0.1-0.2-0.2-0.3-0.3-0.5c-0.3-0.4-0.6-0.8-1-1.3c-0.4-0.5-0.8-0.9-1.2-1.4c0.6-0.9,1.3-1.8,2.2-2.5c0.8-0.7,1.8-1.4,2.8-1.9
		c1.4-0.7,2.9-1.1,4.5-1.2l0.2,0c0.2,0,0.4,0,0.6,0s0.4,0,0.6,0l0.2,0c1.6,0.1,3.1,0.5,4.5,1.2c1,0.5,2,1.1,2.8,1.9
		c0.8,0.7,1.6,1.6,2.2,2.5C245.9,418.8,245.5,419.3,245.1,419.8z M248.6,414.3c-1-1.2-2.2-2.2-3.5-3.1l-0.1,0
		c-1.4-0.9-2.9-1.6-4.5-2c-1.4-0.4-2.8-0.6-4.2-0.6c0,0-0.1,0-0.1,0c-0.1,0-0.2,0-0.2,0c0,0-0.1,0-0.1,0c-1.4,0-2.8,0.2-4.2,0.6
		c-1.6,0.4-3.1,1.1-4.5,2c0,0,0,0-0.1,0c-1.3,0.9-2.5,1.9-3.5,3.1c-0.2,0.3-0.5,0.6-0.7,1c-0.3-0.2-0.5-0.5-0.8-0.7l-0.1-0.1
		c-0.8-0.7-1.5-1.3-2.2-1.8c0,0,0.1-0.1,0.1-0.1l0.1-0.1c0.6-0.7,1.1-1.4,1.7-2c0.3-0.3,0.7-0.7,1.2-1.1c0.2-0.2,0.5-0.4,0.7-0.6
		c1-0.8,2.1-1.5,3.3-2.1c0.4-0.2,0.7-0.4,1.1-0.5c1.3-0.6,2.7-1,4.1-1.3c2.7-0.5,5.5-0.5,8.2,0c1.4,0.3,2.8,0.7,4.1,1.3
		c0.4,0.2,0.7,0.3,1.1,0.5c1.1,0.6,2.2,1.3,3.3,2.1c0.2,0.2,0.5,0.4,0.7,0.6c0.5,0.4,0.8,0.7,1.2,1.1c0.6,0.6,1.2,1.3,1.7,2
		c0,0,0.1,0.1,0.1,0.1c0,0,0,0,0,0c-0.7,0.5-1.5,1.1-2.2,1.8l-0.1,0.1c-0.3,0.2-0.5,0.4-0.8,0.7
		C249.1,414.9,248.8,414.6,248.6,414.3z M253.2,426.4c2,0,3.7,1.6,3.7,3.7c0,2-1.6,3.7-3.7,3.7c-2,0-3.7-1.6-3.7-3.7
		C249.5,428,251.2,426.4,253.2,426.4z M253.5,450.5c-2,0-3.7-1.6-3.7-3.7c0-2,1.6-3.7,3.7-3.7s3.7,1.6,3.7,3.7
		C257.2,448.8,255.6,450.5,253.5,450.5z M257.7,409.3c-0.1,0-0.1,0.1-0.2,0.1c-0.1,0-0.2,0.1-0.3,0.1c-0.4,0.2-0.9,0.5-1.3,0.8
		c0,0,0,0,0-0.1l0-0.1c-0.8-1.1-1.7-2.1-2.8-3.1c0,0-0.1-0.1-0.1-0.1c-0.1-0.1-0.2-0.2-0.3-0.3c-0.9-0.8-1.9-1.6-2.9-2.3
		c-0.4-0.3-0.8-0.5-1.3-0.8c-1-0.6-2-1.1-3-1.5c-0.4-0.2-0.7-0.3-1-0.4c-1.3-0.5-2.7-0.8-4-1.1c-1.4-0.2-2.7-0.4-4.1-0.4
		c-0.1,0-0.1,0-0.2,0c-0.1,0-0.1,0-0.2,0c-1.4,0-2.7,0.1-4.1,0.4c-1.4,0.2-2.8,0.6-4,1.1c-0.3,0.1-0.7,0.2-1,0.4c-1,0.4-2,0.9-3,1.5
		c-0.4,0.3-0.9,0.5-1.3,0.8c-1,0.7-2,1.5-2.9,2.3c-0.1,0.1-0.2,0.2-0.3,0.3l-0.1,0.1c-1,1-1.9,2-2.8,3.1l-0.1,0.1c0,0,0,0,0,0.1
		c-0.4-0.3-0.9-0.5-1.3-0.8c-0.7-0.4-1.5-0.8-2.2-1.2c0.2-0.3,0.4-0.6,0.6-0.8c0.7-0.9,1.5-1.8,2.3-2.6c0,0,0.1-0.1,0.1-0.1
		c0,0,0.1-0.1,0.1-0.1c0,0,0.1-0.1,0.1-0.1c0,0,0.1-0.1,0.1-0.1c1-1,2-1.9,3.1-2.7c0.1,0,0.1-0.1,0.2-0.1c0.1,0,0.1-0.1,0.2-0.1
		c1.1-0.7,2.1-1.4,3.3-2c0.1-0.1,0.3-0.1,0.4-0.2l0.1-0.1c1.2-0.6,2.5-1.1,3.8-1.6l0,0c1.3-0.4,2.6-0.8,4-1c1.4-0.2,2.7-0.4,4.1-0.4
		l0.2,0c0.4,0,0.9,0,1.3,0l0.2,0c1.4,0,2.8,0.2,4.1,0.4c1.3,0.2,2.7,0.6,4,1c0,0,0,0,0,0l0,0c1.3,0.4,2.6,1,3.8,1.6l0.2,0.1
		c0.1,0.1,0.3,0.1,0.4,0.2c1.1,0.6,2.2,1.3,3.3,2c0.1,0,0.1,0.1,0.2,0.1c0.1,0,0.1,0.1,0.2,0.1c1.1,0.8,2.2,1.7,3.1,2.7
		c0,0,0.1,0.1,0.1,0.1c0,0,0.1,0.1,0.1,0.1c0,0,0.1,0.1,0.1,0.1c0,0,0.1,0.1,0.1,0.1c0.8,0.8,1.6,1.7,2.3,2.6
		C258.5,408.2,258.1,408.8,257.7,409.3z M258.9,401.4c-0.6-0.6-1.2-1.1-1.8-1.6c-0.5-0.4-0.9-0.8-1.4-1.1c-0.7-0.5-1.4-1-2.2-1.5
		c-0.4-0.2-0.8-0.5-1.3-0.8c-0.8-0.5-1.6-0.9-2.4-1.3c-0.5-0.2-0.9-0.4-1.4-0.6c-0.8-0.3-1.6-0.6-2.5-0.9c-0.7-0.2-1.3-0.4-1.9-0.5
		c-0.6-0.2-1.3-0.3-2.1-0.5c-1.4-0.3-2.8-0.4-4.2-0.5c-0.7,0-1.3-0.1-1.9-0.1s-1.2,0-1.9,0.1c-1.4,0.1-2.8,0.2-4.2,0.5
		c-0.8,0.1-1.5,0.3-2.1,0.5c-0.6,0.2-1.2,0.3-1.9,0.5c-0.8,0.3-1.6,0.6-2.5,0.9c-0.4,0.2-0.9,0.4-1.4,0.6c-0.8,0.4-1.6,0.8-2.4,1.3
		c-0.4,0.3-0.9,0.5-1.3,0.8c-0.8,0.5-1.5,1-2.2,1.5c0,0-0.1,0-0.1,0.1c1.5-2,2.7-4.4,3.7-6.9c0.1,0,0.2-0.1,0.3-0.1
		c0.1-0.1,0.3-0.1,0.4-0.2c0.2-0.1,0.5-0.2,0.7-0.3c1-0.4,2.1-0.8,3.1-1.2c0.1,0,0.2-0.1,0.2-0.1c0.2-0.1,0.3-0.1,0.5-0.2
		c0.6-0.2,1.2-0.3,1.8-0.5c0.5-0.1,1-0.2,1.5-0.4c0.2,0,0.5-0.1,0.7-0.1l0.2,0c1.1-0.2,2.2-0.4,3.3-0.5c1.2-0.1,2.3-0.2,3.4-0.2
		c1.1,0,2.2,0.1,3.4,0.2c1.1,0.1,2.2,0.3,3.3,0.5l0.2,0c0.2,0,0.5,0.1,0.7,0.1c0.6,0.1,1,0.2,1.5,0.4c0.6,0.1,1.2,0.3,1.8,0.5
		c0.2,0,0.3,0.1,0.5,0.2c0.1,0,0.2,0.1,0.3,0.1c1.1,0.4,2.1,0.8,3.1,1.2c0.2,0.1,0.4,0.2,0.7,0.3c1,0.5,2,1,3,1.6
		c0.1,0,0.2,0.1,0.3,0.1c0.1,0.1,0.3,0.1,0.4,0.2c0.9,0.6,1.9,1.2,2.8,1.9c0.1,0.1,0.3,0.2,0.4,0.3l0.2,0.1c0.9,0.7,1.8,1.4,2.6,2.2
		c0.2,0.2,0.4,0.4,0.6,0.6c0.2,0.2,0.5,0.5,0.7,0.8c0.1,0.1,0.2,0.3,0.4,0.4c-0.5,1.2-1.1,2.5-1.8,3.9c0,0,0-0.1-0.1-0.1
		c-0.1-0.1-0.1-0.2-0.2-0.2C260.2,402.7,259.6,402,258.9,401.4z M264.5,461.8c-2,0-3.7-1.6-3.7-3.7c0-2,1.6-3.7,3.7-3.7
		s3.7,1.6,3.7,3.7C268.2,460.2,266.5,461.8,264.5,461.8z M270.3,445c0,0.1,0,0.1-0.1,0.2c0,0,0,0.1,0,0.1c-0.5,0.3-1.1,0.4-1.7,0.4
		c-2,0-3.7-1.6-3.7-3.7c0-2,1.6-3.7,3.7-3.7c1.7,0,3.1,1.1,3.5,2.7C271.3,442.4,270.7,443.7,270.3,445z M274.7,404.5
		c-2,0-3.7-1.6-3.7-3.7s1.6-3.7,3.7-3.7s3.7,1.6,3.7,3.7S276.7,404.5,274.7,404.5z M286.7,428.9L286.7,428.9
		c-1.9,0.9-3.6,1.8-5.3,2.8c-1.2-0.6-2-1.9-2-3.2c0-2,1.6-3.7,3.7-3.7c2,0,3.7,1.6,3.7,3.7C286.8,428.7,286.8,428.8,286.7,428.9z
		 M284.6,414.7c-2,0-3.7-1.6-3.7-3.7s1.6-3.7,3.7-3.7c2,0,3.7,1.6,3.7,3.7S286.6,414.7,284.6,414.7z M290.4,400.1
		c0-2,1.6-3.7,3.7-3.7c2,0,3.7,1.6,3.7,3.7c0,2-1.6,3.7-3.7,3.7C292,403.7,290.4,402.1,290.4,400.1z M297.4,422.7
		c-2,0-3.7-1.6-3.7-3.7c0-2,1.6-3.7,3.7-3.7c2,0,3.7,1.6,3.7,3.7C301,421.1,299.4,422.7,297.4,422.7z M302.4,389c0-0.2,0-0.3,0-0.5
		l0,0c0-0.2,0-0.5-0.1-0.7c-0.1-0.9-0.3-1.9-0.5-2.7l-0.2-0.6c-0.2-0.7-0.4-1.4-0.6-2.1c-0.3-0.9-0.7-1.9-1.1-2.9
		c-0.4-0.8-0.8-1.8-1.4-2.8l-0.8-1.3c-0.2-0.3-0.4-0.5-0.6-0.8l-0.3-0.4c-0.4-0.5-0.8-1-1.1-1.4c2.1,0.1,4.2,0.1,6.3,0
		c0.1,0,0.2,0,0.3,0l0.1,0c0.3,0.1,0.7,0.3,1.1,0.6c2.3,1.3,5,3.3,7.2,5.5c1.2,1.2,2.2,2.4,3,3.5c0.3,0.5,0.7,1,1,1.6
		c0.2,0.4,0.4,0.9,0.5,1.2c0,0.1,0.1,0.3,0.1,0.4c-0.2,0.2-0.3,0.4-0.3,0.7c0,0.2,0,0.3,0.1,0.5c-1.8,0.6-3.7,1-5.5,1.4
		C307.2,388.4,304.9,388.7,302.4,389L302.4,389z M307.6,412.1c-2,0-3.7-1.6-3.7-3.7c0-2,1.6-3.7,3.7-3.7c2,0,3.7,1.6,3.7,3.7
		C311.3,410.5,309.6,412.1,307.6,412.1z M310.9,395.3c0-0.7,0.2-1.4,0.6-2c0.1,0,0.1,0,0.2,0c0.1,0,0.1,0,0.2,0
		c1.4-0.3,2.9-0.6,4.4-1.1c1.2,0.6,1.9,1.9,1.9,3.2c0,2-1.6,3.7-3.7,3.7C312.5,399,310.9,397.3,310.9,395.3z M320.7,420.6
		c-1.6,0.5-3.3,1-5.2,1.5c-1.1-0.7-1.7-1.8-1.7-3.1c0-2,1.6-3.7,3.7-3.7c2,0,3.7,1.6,3.7,3.7C321.1,419.6,321,420.1,320.7,420.6z
		 M324.8,408.1c-2,0-3.7-1.6-3.7-3.7s1.6-3.7,3.7-3.7c2,0,3.7,1.6,3.7,3.7C328.4,406.5,326.8,408.1,324.8,408.1z M327.7,392.8
		c0-2,1.6-3.7,3.7-3.7s3.7,1.6,3.7,3.7c0,2-1.6,3.7-3.7,3.7S327.7,394.8,327.7,392.8z M332.9,416.3c0-0.2-0.1-0.4-0.1-0.5
		c0-2,1.6-3.7,3.7-3.7c1.1,0,2.1,0.5,2.8,1.3C337.2,414.4,335,415.4,332.9,416.3z M336.1,380.1c1.4-1.6,2.7-3.4,3.9-5.2
		c1.8,0.3,3,1.8,3,3.6c0,2-1.6,3.7-3.7,3.7C338,382.2,336.8,381.4,336.1,380.1z M345.2,403c-2,0-3.7-1.6-3.7-3.7
		c0-2,1.6-3.7,3.7-3.7c2,0,3.7,1.6,3.7,3.7C348.9,401.3,347.2,403,345.2,403z M347.4,367.9c0-2,1.6-3.7,3.7-3.7s3.7,1.6,3.7,3.7
		s-1.6,3.7-3.7,3.7S347.4,369.9,347.4,367.9z M351.8,387.3c0-2,1.6-3.7,3.7-3.7c2,0,3.7,1.6,3.7,3.7c0,2-1.6,3.7-3.7,3.7
		C353.4,390.9,351.8,389.3,351.8,387.3z M358.2,400.6c-0.2-0.4-0.2-0.8-0.2-1.3c0-2,1.6-3.7,3.7-3.7c0.4,0,0.9,0.1,1.3,0.2
		C361.6,397.4,360.1,398.9,358.2,400.6z M364.2,370.5c-2,0-3.7-1.6-3.7-3.7c0-2,1.6-3.7,3.7-3.7c2,0,3.7,1.6,3.7,3.7
		C367.9,368.8,366.2,370.5,364.2,370.5z M371.6,383.6c-1.9-0.1-3.5-1.7-3.5-3.6c0-2,1.6-3.7,3.7-3.7c1,0,2,0.4,2.7,1.2
		C373.6,379.6,372.7,381.7,371.6,383.6z M379.4,359.1c-0.5,1.6-1.9,2.6-3.5,2.6c-2,0-3.7-1.6-3.7-3.7c0-2,1.6-3.7,3.7-3.7
		c2,0,3.6,1.5,3.6,3.5C379.5,358.3,379.4,358.7,379.4,359.1z M382,335.5c0.2-7.8-1.2-16.1-4.2-25.4c-2.7-8.5-6.5-16.7-9.8-23.6
		c0.6-0.6,1.2-1.1,1.7-1.7c8.4,15.4,13.2,32.7,14,50C383.1,335.1,382.5,335.3,382,335.5z M383.4,292.7c-0.4-1-0.8-2-1.2-3
		c3.4-4.2,6.2-9,8.2-14.5c0.9,0.1,1.8,0.1,2.6,0.1C390.8,282.4,387.6,288.1,383.4,292.7z M397,275.4c1.2-0.1,2.3-0.1,3.4-0.3
		c-3.2,9.8-8,18.6-14.2,26.1c-0.5-1.5-0.9-3-1.5-4.5C390.3,291.2,394.4,284.1,397,275.4z M385.2,340.8c0.2-0.1,0.4-0.2,0.6-0.3
		c1.1-0.4,2.1-0.9,3.2-1.2l1.1-0.4c1.1-0.4,2.3-0.8,3.5-0.7l0.5,0.2c0.4,0.1,0.7,0.1,1.1,0c3.1,0.6,6.1,1,9,1l0.5,0
		c1.3,0,2.6-0.1,3.8-0.2l0.2,0c0.2,0,0.3,0,0.5,0c2.5,0,4.3,1.9,6.1,4l0,0c0.4,0.4,0.7,0.8,1.1,1.2c-0.5,0.1-1,0.1-1.4,0.1l-0.2,0
		c-1.8,0.2-3.6,0.4-5.4,0.7c-2,0.3-3.9,0.9-5.5,1.4c-0.5,0.1-1.1,0.2-1.6,0.5c-0.1,0-0.1,0.1-0.2,0.1l-0.1,0c-1.1,0.4-2.3,0.7-3.4,1
		c-4,1.1-7.3,1.7-10.4,1.9c-0.9,0.1-1.9,0.1-3.1,0c0-2.9-0.1-5.9-0.3-9C384.9,340.9,385.1,340.9,385.2,340.8z M385,353.5
		c1.3,0,2.6,0,4-0.1c-1.3,0.5-2.6,1-4,1.5C384.9,354.6,385,354,385,353.5z M387.3,366.1c3.2,0.1,6.2,1.3,8.7,2.6
		c0.6,0.3,1.2,0.6,1.7,0.9C394.2,368.8,390.7,367.6,387.3,366.1z M408,370.4L408,370.4C408,370.4,408,370.4,408,370.4
		c-2.2-0.6-4.2-1.7-6-2.6l-1.3-0.7l0,0c-2.3-1.2-4.7-2.5-7.3-3.4c-2.2-0.8-4.5-1.2-7.1-1.2c-0.3,0-0.6,0-1,0l1.1-0.5
		c0.6-0.3,1.3-0.6,1.9-0.8c1-0.4,1.9-0.8,2.9-1.3c0.4-0.2,0.9-0.5,1.3-0.8c3-0.2,5.7,0.3,8.3,1.3c2.3,0.9,4.4,2.2,6.5,3.7
		c0.8,0.5,1.6,1.1,2.5,1.6c1.6,1,3.1,1.7,4.8,2.4c0.5,0.2,0.9,0.4,1.4,0.6C413.5,369.6,410.8,370.2,408,370.4z M420.3,366.7
		c-2.7-1-6.2-2.4-9.4-4.4c-0.5-0.3-1-0.6-1.5-1c-2.4-1.5-4.8-3.1-7.6-4.2c-1.8-0.7-3.6-1.1-5.6-1.4c0.3-0.4,0.7-0.7,1-1.1
		c0.7-0.8,1.4-1.5,2.1-2.3c0,0,0.1-0.1,0.1-0.1l0.4-0.1c1.4-0.5,2.9-1,4.3-1.8c0.2-0.1,0.4-0.2,0.6-0.3c0,0,0.1,0,0.1-0.1
		c0.1,0,0.3,0,0.4,0c1.8,0,3.8,1,5.5,1.9c2.7,1.5,5.4,3.2,7.9,5.1c1.2,1,2.5,2,3.7,2.9c1.3,1.1,2.4,1.9,3.4,2.7
		C424.1,364.2,422.3,365.6,420.3,366.7z M428,359.8c-1.6-1.2-3.2-2.5-4.6-3.6c-2.4-1.9-5.3-4.2-8.5-6l-0.4-0.3
		c-0.9-0.5-1.9-1.1-2.8-1.6c0.6-0.1,1.2-0.1,1.7-0.2c0.6-0.1,1.3-0.1,1.9-0.2l0,0c1.7-0.2,3.5-0.4,5.3-0.6c3.8,1.5,7.4,2.4,11,2.6
		c0,0,0.1,0.1,0.1,0.1c0.3,0.2,0.6,0.3,0.8,0.5c0.1,0.1,0.2,0.1,0.3,0.2C431.7,354.1,430,357.2,428,359.8z M434,346.5
		c-0.1,0-0.2,0-0.2,0c-4,0-8.2-0.9-12.8-2.8c-1.2-0.8-2.2-1.9-3.3-3.1c-0.5-0.5-0.9-1.1-1.5-1.6c-0.4-0.4-0.9-0.9-1.3-1.2
		c0.1,0,0.3-0.1,0.4-0.1c0,0,0.1,0,0.1,0c0,0,0.1,0,0.1,0v0c1.2-0.2,2.2-0.5,3.2-1c0.3-0.1,0.5-0.3,0.8-0.5c0,0,0,0,0,0
		c1-0.4,4.4-1.5,6.3-2c2.6-0.6,4.6-0.9,6.5-0.7c0.4,0,0.7,0.1,0.9,0.2c0.6,2.2,1,4.5,1.2,6.7C434.6,341.9,434.4,344.1,434,346.5z"/>
	<path d="M219.3,180.6c-1.8-1.7-5-4.6-7.1-7c3,2.1,7.8,4.8,13.5,4.8c-3.4-1.8-7-3.2-9.4-6c3.9,1.8,11.6,2.6,16.9,0.7
		c-5.1,0.3-8.8-0.9-12.5-2.2c6.1,0.8,14.9-0.5,19.3-3.7c-3.1,0.3-9.1,1.3-13.2,0.9c5.9-1.8,11.9-3.4,14.5-8.2
		c-2.7,1.3-10.3,3.8-14.6,1.9c-6.8,0.1-9.6,3.7-14.3,5.8c-7.6,3.4-20.1,4.9-29.3,2.3c1.2,0.7,2.4,1.3,3.7,1.9
		c-0.1,1.1-2.2,0.7-3,0.5c1,0.8,2.4,1.1,4.3,0.9c-0.1,1.3-1.2,1.8-2.6,2c1.8,0.8,3.9-0.5,5-1.2c-0.6,1.7-2.2,2.6-4,3.3
		c1.9,0.3,4.5-1.2,5.9-2.2c0.1,0.8-1.2,2.7-2.2,3.5c1-0.1,2.4-2.2,3.7-3c-0.7,1.3-0.9,3.2-1.8,4.3c1.1,0.1,2.8-1.7,3.1-3.2
		c0.4,1.3,0.2,3.7,1,5.3c0.5-1.8,0.8-3.6,1.5-5.2c0.6,2,1.1,4.1,1.6,6.2c0.5-1.9-0.2-4.9,0.8-6.4c0.7,2.5,1.5,5,2.9,6.7
		c0.1-1.2-0.4-4.4-0.4-6.6c1.4,2.3,2,5.5,4.4,6.6c-0.1-1.7-1.9-4.3-2-7.1c1.7,2.7,4.1,4.8,6.7,6.5c-0.6-1.7-2.7-4.4-3.5-7
		C210.5,177.7,215.2,179.7,219.3,180.6z"/>
	<path d="M196.9,150c0.3,0.3,0.6,0.5,0.9,0.8c0.3,0.3,0.7,0.5,1.1,0.8c0.8,0.5,1.8,0.9,2.9,1.2c1.1,0.3,2.3,0.3,3.5,0.2
		c2.4-0.2,4.8-1,7-1.6c2.2-0.7,4.4-1,6.3-1.3c0.9-0.2,1.8-0.4,2.7-0.5c0.8-0.1,1.7-0.2,2.4-0.3c0.4,0,0.8,0,1.1-0.1
		c0.4,0,0.7,0,1.1,0c0.7,0,1.3,0,1.8,0c1,0.1,1.7,0.1,1.7,0.1l0.2-0.5c0,0-0.4-0.5-1.2-1.3c-0.4-0.4-1-0.8-1.6-1.2
		c-0.7-0.4-1.5-0.8-2.4-1.1c-0.9-0.3-2-0.5-3.2-0.6c-1.2-0.1-2.4,0-3.6,0.2c-2.4,0.5-4.6,1.8-6.7,2.7c-2.1,1-4.1,1.9-6,2.5
		c-1.9,0.5-3.7,0.5-5.2,0c-0.4-0.1-0.7-0.3-1.1-0.4c-0.3-0.1-0.6-0.3-0.9-0.5c-0.6-0.3-1-0.7-1.4-1c-0.8-0.7-1.2-1.1-1.2-1.1
		l-0.4,0.3c0,0,0.3,0.5,0.9,1.3C196,149,196.4,149.5,196.9,150z"/>
	<path d="M120.2,232.7c-0.7,0.1-1.5,0.3-2.3,0.8c-0.4,0.2-0.8,0.5-1.2,0.8c-0.4,0.3-0.8,0.7-1.1,1.1c-0.4,0.4-0.6,0.9-0.8,1.4
		c-0.2,0.5-0.3,1.1-0.3,1.6c0,0.3,0,0.5,0,0.8c0,0.2,0.1,0.5,0.1,0.7c0.1,0.4,0.2,0.8,0.4,1.2c0.3,0.7,0.7,1.2,0.9,1.5
		c0.3,0.3,0.5,0.5,0.5,0.5s0.1-0.3,0.1-0.7c0-0.2,0.1-0.4,0.1-0.7c0-0.3,0.1-0.6,0.2-0.9c0-0.3,0.1-0.6,0.2-0.9
		c0-0.2,0.1-0.3,0.1-0.5c0.1-0.1,0.1-0.3,0.2-0.4c0.1-0.3,0.3-0.6,0.4-0.8c0.2-0.3,0.3-0.5,0.5-0.8c0.2-0.3,0.4-0.5,0.7-0.8
		c0.3-0.2,0.5-0.5,0.8-0.8c0.5-0.5,1.1-1,1.6-1.5c0.5-0.5,0.9-0.9,1.2-1.3c0.1-0.2,0.2-0.3,0.2-0.4c0-0.1,0.1-0.2,0.1-0.2
		s-0.3,0.1-0.7,0.1C121.4,232.5,120.8,232.6,120.2,232.7z"/>
	<path d="M220.3,119.5c2.6-0.4,12.4,15,15.7,1.8s-18.7-35.5-19.7-33.2C213.4,94.7,217.7,119.9,220.3,119.5z"/>
	<path d="M305.8,339.7c-2,0-3.7,1.7-3.7,3.7c0,2,1.7,3.7,3.7,3.7c2.1,0,3.7-1.7,3.7-3.7C309.5,341.4,307.8,339.7,305.8,339.7z"/>
	<circle cx="295.2" cy="319.3" r="3.7"/>
	<path d="M319.3,335c-2,0-3.7,1.7-3.7,3.7c0,2,1.7,3.7,3.7,3.7c2.1,0,3.7-1.7,3.7-3.7C323,336.6,321.3,335,319.3,335z"/>
	<circle cx="307.6" cy="329.9" r="3.7"/>
	<path d="M106.8,155.9c1.4-1.6,1.1-4.9-0.5-6.3l-1.8-1.6c-1.6-1.5-4.6-1.8-6.1-0.2l-2.1,2.9c-1.4,1.6-1.4,3.7,0.2,5.1l2.8,2.7
		c1.6,1.4,4.6,0.7,6.1-0.9L106.8,155.9z M103.3,154.9c-1,1.1-2.6,1.1-3.7,0.2c-1.1-1-1.2-2.6-0.2-3.7c1-1.1,2.6-1.1,3.7-0.2
		C104.2,152.2,104.3,153.8,103.3,154.9z"/>
	<path d="M105.6,165.9l3.7,3.2c1.7,1.5,4.8,0.4,6.3-1.3l1.4-2.1c1.5-1.7,0.7-4.4-1-6l-2.3-2.1c-1.7-1.5-4.3-1.4-5.8,0.3l-2.5,2.2
		C103.8,161.7,103.9,164.3,105.6,165.9z M109.3,161.2c1-1.1,2.6-1.2,3.7-0.2c1.1,1,1.2,2.6,0.2,3.7c-1,1.1-2.6,1.1-3.7,0.2
		C108.4,163.9,108.3,162.3,109.3,161.2z"/>
	<path d="M117.3,174.8l2.9,2.6c1.6,1.5,3.7,1.7,5.2,0.1c0,0,2.1-2.3,2.1-2.3c3-3.3-0.5-6.3-2.6-8.7c-1.6-1.4-4.1-1.3-5.5,0.3
		l-2.6,2.9C115.3,171.2,115.7,173.3,117.3,174.8z M120.5,170.4c1-1.1,2.6-1.1,3.7-0.2c1.1,1,1.2,2.6,0.2,3.7c-1,1.1-2.6,1.1-3.7,0.2
		C119.6,173.1,119.5,171.5,120.5,170.4z"/>
	<path d="M140.3,154.4c1.6,1.5,5.7,1.6,7.1,0.1l1.9-2.8c1.1-1.6,1.7-5.7-0.2-7.5c-0.9-0.8-2.5-1.4-3.5-1.8c-1.6-0.7-2.7-0.9-4.7,0.1
		c-1.4,0.8-1.9,2-2.8,3.3c-0.9,1.4-1.8,3.1-1.3,4.8C137.3,152.5,139,153.2,140.3,154.4z M142.1,147.2c1.1-1.2,2.8-1.3,4-0.3
		c1.1,1,1.2,2.8,0.1,4c-1.1,1.2-2.8,1.3-4,0.3C141,150.1,141,148.4,142.1,147.2z"/>
</g>
</svg>
