<?xml version="1.0" encoding="UTF-8" standalone="no"?>
<!-- Generator: Adobe Illustrator 18.0.0, SVG Export Plug-In . SVG Version: 6.00 Build 0)  -->

<svg
   xmlns:dc="http://purl.org/dc/elements/1.1/"
   xmlns:cc="http://creativecommons.org/ns#"
   xmlns:rdf="http://www.w3.org/1999/02/22-rdf-syntax-ns#"
   xmlns:svg="http://www.w3.org/2000/svg"
   xmlns="http://www.w3.org/2000/svg"
   xmlns:sodipodi="http://sodipodi.sourceforge.net/DTD/sodipodi-0.dtd"
   xmlns:inkscape="http://www.inkscape.org/namespaces/inkscape"
   version="1.1"
   id="Capa_1"
   x="0px"
   y="0px"
   viewBox="0 0 59.613 59.613"
   style="enable-background:new 0 0 59.613 59.613;"
   xml:space="preserve"
   sodipodi:docname="cherries.svg"
   inkscape:version="0.92.1 r15371"><metadata
     id="metadata51"><rdf:RDF><cc:Work
         rdf:about=""><dc:format>image/svg+xml</dc:format><dc:type
           rdf:resource="http://purl.org/dc/dcmitype/StillImage" /><dc:title></dc:title></cc:Work></rdf:RDF></metadata><defs
     id="defs49"><marker
       inkscape:isstock="true"
       style="overflow:visible"
       id="marker1272"
       refX="0.0"
       refY="0.0"
       orient="auto"
       inkscape:stockid="Arrow1Lstart"><path
         transform="scale(0.8) translate(12.5,0)"
         style="fill-rule:evenodd;stroke:#000000;stroke-width:0.5pt;stroke-opacity:1;fill:#000000;fill-opacity:1"
         d="M 0.0,0.0 L 5.0,-5.0 L -12.5,0.0 L 5.0,5.0 L 0.0,0.0 z "
         id="path1270" /></marker><marker
       inkscape:isstock="true"
       style="overflow:visible"
       id="marker1232"
       refX="0.0"
       refY="0.0"
       orient="auto"
       inkscape:stockid="Arrow1Lstart"><path
         transform="scale(0.8) translate(12.5,0)"
         style="fill-rule:evenodd;stroke:#000000;stroke-width:0.5pt;stroke-opacity:1;fill:#000000;fill-opacity:1"
         d="M 0.0,0.0 L 5.0,-5.0 L -12.5,0.0 L 5.0,5.0 L 0.0,0.0 z "
         id="path1230" /></marker><marker
       inkscape:isstock="true"
       style="overflow:visible"
       id="marker1198"
       refX="0.0"
       refY="0.0"
       orient="auto"
       inkscape:stockid="Arrow1Lstart"><path
         transform="scale(0.8) translate(12.5,0)"
         style="fill-rule:evenodd;stroke:#000000;stroke-width:0.5pt;stroke-opacity:1;fill:#000000;fill-opacity:1"
         d="M 0.0,0.0 L 5.0,-5.0 L -12.5,0.0 L 5.0,5.0 L 0.0,0.0 z "
         id="path1196" /></marker><marker
       inkscape:isstock="true"
       style="overflow:visible"
       id="marker1170"
       refX="0.0"
       refY="0.0"
       orient="auto"
       inkscape:stockid="Arrow1Lstart"><path
         transform="scale(0.8) translate(12.5,0)"
         style="fill-rule:evenodd;stroke:#000000;stroke-width:0.5pt;stroke-opacity:1;fill:#000000;fill-opacity:1"
         d="M 0.0,0.0 L 5.0,-5.0 L -12.5,0.0 L 5.0,5.0 L 0.0,0.0 z "
         id="path1168" /></marker><marker
       inkscape:isstock="true"
       style="overflow:visible"
       id="marker1148"
       refX="0.0"
       refY="0.0"
       orient="auto"
       inkscape:stockid="Arrow1Lstart"><path
         transform="scale(0.8) translate(12.5,0)"
         style="fill-rule:evenodd;stroke:#000000;stroke-width:0.5pt;stroke-opacity:1;fill:#000000;fill-opacity:1"
         d="M 0.0,0.0 L 5.0,-5.0 L -12.5,0.0 L 5.0,5.0 L 0.0,0.0 z "
         id="path1146" /></marker></defs><sodipodi:namedview
     pagecolor="#ffffff"
     bordercolor="#666666"
     borderopacity="1"
     objecttolerance="10"
     gridtolerance="10"
     guidetolerance="10"
     inkscape:pageopacity="0"
     inkscape:pageshadow="2"
     inkscape:window-width="1920"
     inkscape:window-height="1001"
     id="namedview47"
     showgrid="false"
     inkscape:zoom="6.9"
     inkscape:cx="36.292713"
     inkscape:cy="16.400447"
     inkscape:window-x="-9"
     inkscape:window-y="-9"
     inkscape:window-maximized="1"
     inkscape:current-layer="Capa_1" /><path
     style="color:#000000;font-style:normal;font-variant:normal;font-weight:normal;font-stretch:normal;font-size:medium;line-height:normal;font-family:sans-serif;font-variant-ligatures:normal;font-variant-position:normal;font-variant-caps:normal;font-variant-numeric:normal;font-variant-alternates:normal;font-feature-settings:normal;text-indent:0;text-align:start;text-decoration:none;text-decoration-line:none;text-decoration-style:solid;text-decoration-color:#000000;letter-spacing:normal;word-spacing:normal;text-transform:none;writing-mode:lr-tb;direction:ltr;text-orientation:mixed;dominant-baseline:auto;baseline-shift:baseline;text-anchor:start;white-space:normal;shape-padding:0;clip-rule:nonzero;display:inline;overflow:visible;visibility:visible;opacity:1;isolation:auto;mix-blend-mode:normal;color-interpolation:sRGB;color-interpolation-filters:linearRGB;solid-color:#000000;solid-opacity:1;vector-effect:none;fill-opacity:1;fill-rule:nonzero;stroke:none;stroke-width:0.05;stroke-linecap:butt;stroke-linejoin:miter;stroke-miterlimit:4;stroke-dasharray:none;stroke-dashoffset:0;stroke-opacity:1;paint-order:markers stroke fill;color-rendering:auto;image-rendering:auto;shape-rendering:auto;text-rendering:auto;enable-background:accumulate"
     d="m 8.5518358,39.361961 c -0.7449525,0.241208 -1.1595914,1.053025 -0.9187074,1.798356 1.10098,3.392016 3.9897416,5.983554 7.5374746,6.778701 h 0.0019 c 0.102812,0.0224 0.20676,0.03533 0.310581,0.03533 0.655087,0 1.24551,-0.45712 1.392936,-1.117697 0.171521,-0.764224 -0.318714,-1.533929 -1.082406,-1.705368 -2.522345,-0.564292 -4.670149,-2.49248 -5.441559,-4.870624 C 10.110942,39.536063 9.2986305,39.12307 8.5537002,39.361957 Z m 0.2938293,0.905687 c 0.2580235,-0.08168 0.5182616,0.05041 0.6006909,0.304998 v 0.0019 c 0.883479,2.723635 3.281488,4.867384 6.138958,5.506651 0.262756,0.05899 0.419655,0.304997 0.360788,0.567216 -0.05063,0.226855 -0.245972,0.373805 -0.463073,0.373805 -0.03328,0 -0.07168,-0.005 -0.107859,-0.01293 -3.221457,-0.723519 -5.8405138,-3.081419 -6.8344956,-6.140816 -0.082843,-0.256352 0.05016,-0.518173 0.3049971,-0.600694 z"
     id="path2"
     inkscape:connector-curvature="0" /><path
     style="color:#000000;font-style:normal;font-variant:normal;font-weight:normal;font-stretch:normal;font-size:medium;line-height:normal;font-family:sans-serif;font-variant-ligatures:normal;font-variant-position:normal;font-variant-caps:normal;font-variant-numeric:normal;font-variant-alternates:normal;font-feature-settings:normal;text-indent:0;text-align:start;text-decoration:none;text-decoration-line:none;text-decoration-style:solid;text-decoration-color:#000000;letter-spacing:normal;word-spacing:normal;text-transform:none;writing-mode:lr-tb;direction:ltr;text-orientation:mixed;dominant-baseline:auto;baseline-shift:baseline;text-anchor:start;white-space:normal;shape-padding:0;clip-rule:nonzero;display:inline;overflow:visible;visibility:visible;opacity:1;isolation:auto;mix-blend-mode:normal;color-interpolation:sRGB;color-interpolation-filters:linearRGB;solid-color:#000000;solid-opacity:1;vector-effect:none;fill-opacity:1;fill-rule:nonzero;stroke:none;stroke-width:0.05;stroke-linecap:butt;stroke-linejoin:miter;stroke-miterlimit:4;stroke-dasharray:none;stroke-dashoffset:0;stroke-opacity:1;paint-order:markers stroke fill;color-rendering:auto;image-rendering:auto;shape-rendering:auto;text-rendering:auto;enable-background:accumulate"
     d="m 33.174615,46.354532 c -0.744953,0.241209 -1.159591,1.053025 -0.918707,1.798356 v 0.0019 c 1.10098,3.392019 3.98788,5.981699 7.535613,6.776843 h 0.0019 l 0.0019,0.0019 c 0.102812,0.0224 0.204899,0.03347 0.30872,0.03347 0.654204,0 1.244519,-0.456698 1.392936,-1.115836 0.171805,-0.763918 -0.316263,-1.535664 -1.080503,-1.707229 -2.522346,-0.564292 -4.670149,-2.49248 -5.44156,-4.870621 -0.241272,-0.74512 -1.053697,-1.157961 -1.798353,-0.918708 z m 0.293829,0.905688 c 0.256415,-0.08133 0.518429,0.05281 0.600691,0.306858 0.883479,2.723638 3.281488,4.867388 6.138958,5.506651 0.26222,0.05887 0.419403,0.306606 0.360788,0.56722 v 0.0019 c -0.05063,0.226855 -0.247833,0.371946 -0.464931,0.371946 -0.03328,0 -0.06981,-0.005 -0.105998,-0.01293 -3.223088,-0.723251 -5.842782,-3.07971 -6.836357,-6.140817 -0.08287,-0.256351 0.05202,-0.518173 0.306859,-0.60069 z"
     id="path4"
     inkscape:connector-curvature="0" /><path
     style="color:#000000;font-style:normal;font-variant:normal;font-weight:normal;font-stretch:normal;font-size:medium;line-height:normal;font-family:sans-serif;font-variant-ligatures:normal;font-variant-position:normal;font-variant-caps:normal;font-variant-numeric:normal;font-variant-alternates:normal;font-feature-settings:normal;text-indent:0;text-align:start;text-decoration:none;text-decoration-line:none;text-decoration-style:solid;text-decoration-color:#000000;letter-spacing:normal;word-spacing:normal;text-transform:none;writing-mode:lr-tb;direction:ltr;text-orientation:mixed;dominant-baseline:auto;baseline-shift:baseline;text-anchor:start;white-space:normal;shape-padding:0;clip-rule:nonzero;display:inline;overflow:visible;visibility:visible;opacity:1;isolation:auto;mix-blend-mode:normal;color-interpolation:sRGB;color-interpolation-filters:linearRGB;solid-color:#000000;solid-opacity:1;vector-effect:none;fill-opacity:1;fill-rule:nonzero;stroke:none;stroke-width:0.06036566;stroke-linecap:butt;stroke-linejoin:miter;stroke-miterlimit:4;stroke-dasharray:none;stroke-dashoffset:0;stroke-opacity:1;paint-order:markers stroke fill;color-rendering:auto;image-rendering:auto;shape-rendering:auto;text-rendering:auto;enable-background:accumulate"
     d="m 9.7383399,31.223798 c -0.3561317,0.08609 -0.6806785,0.307521 -0.8852297,0.641605 -0.702449,1.150546 -1.194864,2.416407 -1.4654653,3.758508 -0.1532241,0.767537 0.3510179,1.525304 1.1176968,1.681193 h 0.00379 l 0.00186,0.0019 c 0.089814,0.01735 0.1824682,0.02776 0.2789707,0.02776 0.6665674,0 1.2647056,-0.472799 1.4003736,-1.145591 v -0.0019 c 0.205593,-1.017954 0.576305,-1.970531 1.102817,-2.834226 0.408032,-0.668719 0.192563,-1.555883 -0.47609,-1.963872 -0.333922,-0.203478 -0.722507,-0.251619 -1.0786412,-0.165527 z m 0.5820941,0.978215 c 0.230199,0.140479 0.300359,0.424485 0.159943,0.654624 v 0.0019 c -0.5853334,0.960189 -0.9969437,2.017281 -1.2237009,3.141079 v 0.0019 c -0.045901,0.229 -0.2464772,0.381246 -0.4667893,0.381246 -0.028077,0 -0.058898,-0.0044 -0.094831,-0.01104 -0.2629764,-0.05357 -0.4251441,-0.297836 -0.3738044,-0.559866 v -0.0019 C 8.5706,34.574204 9.0222025,33.416234 9.6658321,32.362023 9.8067213,32.13195 10.091661,32.063966 10.320456,32.202079 Z"
     id="path6"
     inkscape:connector-curvature="0" /><path
     style="color:#000000;font-style:normal;font-variant:normal;font-weight:normal;font-stretch:normal;font-size:medium;line-height:normal;font-family:sans-serif;font-variant-ligatures:normal;font-variant-position:normal;font-variant-caps:normal;font-variant-numeric:normal;font-variant-alternates:normal;font-feature-settings:normal;text-indent:0;text-align:start;text-decoration:none;text-decoration-line:none;text-decoration-style:solid;text-decoration-color:#000000;letter-spacing:normal;word-spacing:normal;text-transform:none;writing-mode:lr-tb;direction:ltr;text-orientation:mixed;dominant-baseline:auto;baseline-shift:baseline;text-anchor:start;white-space:normal;shape-padding:0;clip-rule:nonzero;display:inline;overflow:visible;visibility:visible;opacity:1;isolation:auto;mix-blend-mode:normal;color-interpolation:sRGB;color-interpolation-filters:linearRGB;solid-color:#000000;solid-opacity:1;vector-effect:none;fill-opacity:1;fill-rule:nonzero;paint-order:markers stroke fill;color-rendering:auto;image-rendering:auto;shape-rendering:auto;text-rendering:auto;enable-background:accumulate;stroke-width:20;stroke-miterlimit:4;stroke-dasharray:none"
     d="m 30.541242,1.0701906 -1.411532,0.2175801 0.21758,1.4115325 c 0.405749,2.6368521 1.999554,4.9600097 4.446606,6.5294984 1.853867,1.1898544 4.03081,1.8243924 6.174291,1.8243924 0.03694,0 0.07123,-0.0032 0.10786,-0.0038 -0.646305,7.820802 -6.486478,14.773785 -12.307669,17.144818 -2.338331,-2.893733 -5.662916,-4.7609 -9.387902,-4.7609 h -1.904358 c -7.1231823,0 -12.8544295,6.65951 -12.8544295,14.75879 0,7.609021 6.1975885,13.806609 13.8066085,13.806609 4.591143,0 8.582228,-2.324249 11.091409,-5.785609 0.692932,6.965731 6.520647,12.45087 13.665272,12.45087 7.60902,0 13.806608,-6.197591 13.806608,-13.806612 0,-5.555347 -2.710022,-10.373312 -6.706174,-12.895343 1.888344,-6.725071 -0.240357,-12.955844 -4.600963,-20.088765 0.379483,0.05202 0.744735,0.137608 1.143732,0.137608 0.760966,0 1.53862,-0.0859 2.322798,-0.256635 2.689883,-0.586485 5.123093,-2.1393266 6.696875,-4.2866692 L 55.69217,6.314534 54.540999,5.4702178 C 50.824215,2.7464535 45.404697,3.4254694 41.772118,6.5786145 40.993839,5.0935647 39.855501,3.7674522 38.307446,2.7736155 35.990427,1.2865877 33.172252,0.66441013 30.54123,1.0701054 Z m 0.145054,0.9410206 c 2.383157,-0.3674729 4.985834,0.2021221 7.107876,1.564031 1.575,1.011134 2.729727,2.3439755 3.410739,3.8589319 l 0.27711,0.6174297 0.487251,-0.4686506 c 3.306025,-3.182405 8.579881,-3.8569917 12.008252,-1.3445833 l 0.384962,0.2826933 -0.282661,0.3831012 c -1.425584,1.9451323 -3.668202,3.3832176 -6.131517,3.9203036 -0.72027,0.15682 -1.429934,0.234332 -2.120089,0.234332 -0.649876,0 -1.284672,-0.09294 -1.913657,-0.234332 l -1.117697,-0.251052 0.611849,0.968918 c 4.741354,7.533336 6.953005,13.690541 4.915257,20.481167 l -0.10786,0.355207 0.319872,0.189693 c 3.833606,2.277859 6.503466,6.91723 6.503466,12.289074 0,7.092639 -5.761791,12.85443 -12.85443,12.85443 -7.042965,0 -12.767067,-5.684141 -12.846991,-12.707512 l -0.01861,-1.684913 -0.864774,1.446869 c -2.247391,3.754533 -6.340421,6.280295 -11.026319,6.280295 -7.092638,0 -12.8544294,-5.761791 -12.8544294,-12.85443 0,-7.651681 5.3749798,-13.806608 11.9022514,-13.806608 h 1.90436 c 3.542443,0 6.724005,1.808691 8.917388,4.693948 l 0.215718,0.284523 0.332891,-0.128334 C 34.303561,26.76157 40.651264,19.172339 41.098913,10.577107 l 0.02776,-0.533741 -0.533739,0.03533 c -0.212532,0.01388 -0.42003,0.0224 -0.624868,0.0224 -1.954701,0 -3.961385,-0.5840877 -5.65915,-1.6737518 C 32.06172,6.9860386 30.649897,4.9049953 30.288184,2.5543287 l -0.07253,-0.4705119 z m 1.238579,0.8443162 -0.637885,0.01672 0.197137,0.6062715 c 0.538175,1.6544229 1.70488,3.100553 3.33821,4.1490482 1.611128,1.0330055 3.520549,1.5818898 5.359733,1.5212563 L 40.814378,9.126425 40.619101,8.5257342 C 40.080902,6.8723618 38.912361,5.4252821 37.27903,4.3767838 35.668982,3.3428255 33.779716,2.8061878 31.924875,2.8555274 Z m 0.864771,1.0600446 c 1.382446,0.1098784 2.771154,0.4889511 3.976098,1.2627534 1.20358,0.7726255 2.007728,1.7969083 2.547823,2.9104724 C 37.940929,7.9821372 36.54304,7.599017 35.337472,6.8260444 34.133699,6.0532959 33.329716,5.0298554 32.789646,3.915572 Z M 49.91959,5.7027701 C 47.239868,5.4244934 44.315168,6.4707645 42.324466,8.5648904 l -0.444476,0.4667893 0.576517,0.2882456 c 3.181679,1.5903287 7.494255,0.6610782 10.148527,-2.1331054 L 53.047649,6.7200274 52.472994,6.4317818 C 51.677746,6.0341594 50.812829,5.795528 49.91959,5.7027701 Z m -0.102276,0.9577595 c 0.500009,0.048709 0.948166,0.2407672 1.411533,0.3942626 -2.15199,1.8146252 -5.116329,2.4411625 -7.528175,1.6421384 1.738562,-1.4650899 4.014775,-2.2412077 6.116642,-2.036401 z m -7.756922,4.5135554 -0.18597,1.292509 c -1.162137,8.08192 -7.155149,14.972165 -13.310064,17.496309 l -0.500267,0.206444 0.265942,0.468654 c 1.10616,1.954429 1.791555,4.256466 1.917377,6.735927 l 0.08556,1.701651 0.808983,-1.500801 c 2.115531,-3.929632 5.848034,-6.525779 10.090875,-6.525779 h 1.904361 c 1.313298,0 2.573449,0.259191 3.760366,0.719715 l 0.48539,0.187831 0.143192,-0.500267 c 1.622633,-5.657689 0.129658,-11.287733 -4.775778,-19.17378 z m 0.41844,2.583159 c 4.211124,7.030356 5.481067,12.047254 4.195543,17.016501 -1.130332,-0.377944 -2.297457,-0.676943 -3.537199,-0.676943 h -1.904361 c -4.230033,0 -7.899566,2.43149 -10.234074,6.032953 -0.246572,-1.993683 -0.785989,-3.870787 -1.658877,-5.528967 6.042743,-2.663951 11.576814,-9.100143 13.138968,-16.843544 z M 16.476137,25.337762 c -6.080173,0 -10.9500719,5.810686 -10.9500719,12.85443 0,6.558777 5.3434739,11.902251 11.9022509,11.902251 6.557866,0 11.903119,-5.344376 11.904109,-11.902251 0,-2.752368 -0.747347,-5.302393 -2.010365,-7.39985 l -0.18597,-0.306859 -0.347769,0.093 c -1.056268,0.286227 -2.098422,0.446334 -3.102023,0.446334 -0.268024,0 -0.476089,-0.208084 -0.476089,-0.476089 0,-0.267992 0.208084,-0.476089 0.476089,-0.476089 0.70191,0 1.415482,-0.08212 2.131248,-0.230609 l 0.790383,-0.163667 -0.526303,-0.61371 c -1.967865,-2.289882 -4.692402,-3.726888 -7.701137,-3.726888 z m 0,0.952179 h 1.904352 c 2.349713,0 4.431766,1.10228 6.148258,2.739377 -0.280075,0.02713 -0.569737,0.09111 -0.842458,0.09111 -0.783197,0 -1.428268,0.645071 -1.428268,1.428271 0,0.783197 0.645071,1.428269 1.428268,1.428269 0.967832,0 1.952889,-0.182405 2.936508,-0.420299 1.084083,1.899591 1.757443,4.165301 1.757443,6.635506 -9.15e-4,6.041371 -4.91055,10.950069 -10.95193,10.950069 -6.042371,0 -10.9500693,-4.907698 -10.9500693,-10.950069 0,-6.60671 4.5281173,-11.902251 9.9978903,-11.902251 z m 24.756678,5.713083 c -6.080171,0 -10.950069,5.810685 -10.950069,12.854429 0,6.558778 5.34347,11.902248 11.902251,11.902248 6.557862,0 11.902248,-5.343423 11.902248,-11.902248 0,-4.83761 -2.279541,-9.075914 -5.692621,-11.275524 l -0.483532,-0.310581 -0.215719,0.531884 c -0.361977,0.89557 -0.774464,1.795552 -1.285069,2.715199 -0.08931,0.16007 -0.249128,0.245468 -0.416579,0.245468 -0.07622,0 -0.155275,-0.02019 -0.230609,-0.06136 -0.232565,-0.130574 -0.316285,-0.411349 -0.18597,-0.645327 v -0.0019 h 0.0019 c 0.515913,-0.92922 0.956954,-1.842609 1.322269,-2.75054 L 47.07984,32.860299 46.633505,32.685497 C 45.53822,32.251176 44.36288,32.002976 43.13722,32.002976 Z m 0,0.952178 h 1.904361 c 0.91736,0 1.782882,0.234427 2.629653,0.515145 -0.303767,0.700023 -0.620197,1.40193 -1.02099,2.123809 -0.380224,0.684949 -0.129122,1.561617 0.554197,1.941551 h 0.0019 c 0.217422,0.120005 0.456312,0.180386 0.691817,0.180386 0.502883,0 0.988695,-0.270043 1.247879,-0.734592 0.422349,-0.760698 0.744284,-1.498855 1.060042,-2.235391 2.859296,2.081236 4.83343,5.798329 4.83343,10.111334 0,6.042323 -4.908689,10.950069 -10.950069,10.950069 -6.042374,0 -10.950069,-4.907698 -10.950069,-10.950069 0,-6.60671 4.528118,-11.902251 9.997887,-11.902251 z"
     id="path8"
     inkscape:connector-curvature="0" /><path
     style="color:#000000;font-style:normal;font-variant:normal;font-weight:normal;font-stretch:normal;font-size:medium;line-height:normal;font-family:sans-serif;font-variant-ligatures:normal;font-variant-position:normal;font-variant-caps:normal;font-variant-numeric:normal;font-variant-alternates:normal;font-feature-settings:normal;text-indent:0;text-align:start;text-decoration:none;text-decoration-line:none;text-decoration-style:solid;text-decoration-color:#000000;letter-spacing:normal;word-spacing:normal;text-transform:none;writing-mode:lr-tb;direction:ltr;text-orientation:mixed;dominant-baseline:auto;baseline-shift:baseline;text-anchor:start;white-space:normal;shape-padding:0;clip-rule:nonzero;display:inline;overflow:visible;visibility:visible;opacity:1;isolation:auto;mix-blend-mode:normal;color-interpolation:sRGB;color-interpolation-filters:linearRGB;solid-color:#000000;solid-opacity:1;vector-effect:none;fill-opacity:1;fill-rule:nonzero;stroke:none;stroke-width:0.06036566;stroke-linecap:butt;stroke-linejoin:miter;stroke-miterlimit:4;stroke-dasharray:none;stroke-dashoffset:0;stroke-opacity:1;paint-order:markers stroke fill;color-rendering:auto;image-rendering:auto;shape-rendering:auto;text-rendering:auto;enable-background:accumulate"
     d="m 20.284849,27.242123 c -0.783197,0 -1.428268,0.645071 -1.428268,1.428268 0,3.408882 2.78029,6.189172 6.189169,6.189172 0.783197,0 1.428271,-0.645071 1.428271,-1.428271 0,-0.783197 -0.645074,-1.428268 -1.428271,-1.428268 -1.842393,0 -3.332629,-1.49024 -3.332629,-3.332633 0,-0.783197 -0.645075,-1.428268 -1.428272,-1.428268 z m 0,0.952179 c 0.267993,0 0.47609,0.208084 0.47609,0.476089 0,2.358626 1.926185,4.284811 4.284811,4.284811 0.268024,0 0.476089,0.208085 0.476089,0.47609 0,0.268024 -0.208084,0.476089 -0.476089,0.476089 -2.892649,0 -5.23699,-2.344341 -5.23699,-5.23699 0,-0.268023 0.208084,-0.476089 0.476089,-0.476089 z"
     id="path10"
     inkscape:connector-curvature="0" /><path
     style="color:#000000;font-style:normal;font-variant:normal;font-weight:normal;font-stretch:normal;font-size:medium;line-height:normal;font-family:sans-serif;font-variant-ligatures:normal;font-variant-position:normal;font-variant-caps:normal;font-variant-numeric:normal;font-variant-alternates:normal;font-feature-settings:normal;text-indent:0;text-align:start;text-decoration:none;text-decoration-line:none;text-decoration-style:solid;text-decoration-color:#000000;letter-spacing:normal;word-spacing:normal;text-transform:none;writing-mode:lr-tb;direction:ltr;text-orientation:mixed;dominant-baseline:auto;baseline-shift:baseline;text-anchor:start;white-space:normal;shape-padding:0;clip-rule:nonzero;display:inline;overflow:visible;visibility:visible;opacity:1;isolation:auto;mix-blend-mode:normal;color-interpolation:sRGB;color-interpolation-filters:linearRGB;solid-color:#000000;solid-opacity:1;vector-effect:none;fill-opacity:1;fill-rule:nonzero;stroke:none;stroke-width:0.06036566;stroke-linecap:butt;stroke-linejoin:miter;stroke-miterlimit:4;stroke-dasharray:none;stroke-dashoffset:0;stroke-opacity:1;paint-order:markers stroke fill;color-rendering:auto;image-rendering:auto;shape-rendering:auto;text-rendering:auto;enable-background:accumulate"
     d="m 43.137169,33.907381 c -0.783197,0 -1.428271,0.645075 -1.428271,1.428272 0,3.408878 2.78029,6.189168 6.189172,6.189168 0.783197,0 1.428268,-0.645071 1.428268,-1.428268 0,-0.7832 -0.645071,-1.428271 -1.428268,-1.428271 -1.842393,0 -3.332629,-1.490237 -3.332629,-3.332629 0,-0.783197 -0.645075,-1.428272 -1.428272,-1.428272 z m 0,0.952182 c 0.268024,0 0.47609,0.208085 0.47609,0.47609 0,2.358626 1.926185,4.284811 4.284811,4.284811 0.268023,0 0.476089,0.208084 0.476089,0.476089 0,0.268024 -0.208084,0.476089 -0.476089,0.476089 -2.892649,0 -5.23699,-2.344341 -5.23699,-5.236989 0,-0.267993 0.208084,-0.47609 0.476089,-0.47609 z"
     id="path12"
     inkscape:connector-curvature="0" /><g
     id="g16" /><g
     id="g18" /><g
     id="g20" /><g
     id="g22" /><g
     id="g24" /><g
     id="g26" /><g
     id="g28" /><g
     id="g30" /><g
     id="g32" /><g
     id="g34" /><g
     id="g36" /><g
     id="g38" /><g
     id="g40" /><g
     id="g42" /><g
     id="g44" /></svg>