<?xml version="1.0" encoding="UTF-8" standalone="no"?>
<!-- Generator: Adobe Illustrator 18.0.0, SVG Export Plug-In . SVG Version: 6.00 Build 0)  -->

<svg
   xmlns:dc="http://purl.org/dc/elements/1.1/"
   xmlns:cc="http://creativecommons.org/ns#"
   xmlns:rdf="http://www.w3.org/1999/02/22-rdf-syntax-ns#"
   xmlns:svg="http://www.w3.org/2000/svg"
   xmlns="http://www.w3.org/2000/svg"
   xmlns:sodipodi="http://sodipodi.sourceforge.net/DTD/sodipodi-0.dtd"
   xmlns:inkscape="http://www.inkscape.org/namespaces/inkscape"
   version="1.1"
   id="Capa_1"
   x="0px"
   y="0px"
   viewBox="0 0 59.613 59.613"
   style="enable-background:new 0 0 59.613 59.613;"
   xml:space="preserve"
   sodipodi:docname="cherries-svgrepo-com.svg"
   inkscape:version="0.92.1 r15371"><metadata
     id="metadata51"><rdf:RDF><cc:Work
         rdf:about=""><dc:format>image/svg+xml</dc:format><dc:type
           rdf:resource="http://purl.org/dc/dcmitype/StillImage" /></cc:Work></rdf:RDF></metadata><defs
     id="defs49"><marker
       inkscape:isstock="true"
       style="overflow:visible"
       id="marker1272"
       refX="0.0"
       refY="0.0"
       orient="auto"
       inkscape:stockid="Arrow1Lstart"><path
         transform="scale(0.8) translate(12.5,0)"
         style="fill-rule:evenodd;stroke:#000000;stroke-width:1pt;stroke-opacity:1;fill:#000000;fill-opacity:1"
         d="M 0.0,0.0 L 5.0,-5.0 L -12.5,0.0 L 5.0,5.0 L 0.0,0.0 z "
         id="path1270" /></marker><marker
       inkscape:isstock="true"
       style="overflow:visible"
       id="marker1232"
       refX="0.0"
       refY="0.0"
       orient="auto"
       inkscape:stockid="Arrow1Lstart"><path
         transform="scale(0.8) translate(12.5,0)"
         style="fill-rule:evenodd;stroke:#000000;stroke-width:1pt;stroke-opacity:1;fill:#000000;fill-opacity:1"
         d="M 0.0,0.0 L 5.0,-5.0 L -12.5,0.0 L 5.0,5.0 L 0.0,0.0 z "
         id="path1230" /></marker><marker
       inkscape:isstock="true"
       style="overflow:visible"
       id="marker1198"
       refX="0.0"
       refY="0.0"
       orient="auto"
       inkscape:stockid="Arrow1Lstart"><path
         transform="scale(0.8) translate(12.5,0)"
         style="fill-rule:evenodd;stroke:#000000;stroke-width:1pt;stroke-opacity:1;fill:#000000;fill-opacity:1"
         d="M 0.0,0.0 L 5.0,-5.0 L -12.5,0.0 L 5.0,5.0 L 0.0,0.0 z "
         id="path1196" /></marker><marker
       inkscape:isstock="true"
       style="overflow:visible"
       id="marker1170"
       refX="0.0"
       refY="0.0"
       orient="auto"
       inkscape:stockid="Arrow1Lstart"><path
         transform="scale(0.8) translate(12.5,0)"
         style="fill-rule:evenodd;stroke:#000000;stroke-width:1pt;stroke-opacity:1;fill:#000000;fill-opacity:1"
         d="M 0.0,0.0 L 5.0,-5.0 L -12.5,0.0 L 5.0,5.0 L 0.0,0.0 z "
         id="path1168" /></marker><marker
       inkscape:isstock="true"
       style="overflow:visible"
       id="marker1148"
       refX="0.0"
       refY="0.0"
       orient="auto"
       inkscape:stockid="Arrow1Lstart"><path
         transform="scale(0.8) translate(12.5,0)"
         style="fill-rule:evenodd;stroke:#000000;stroke-width:1pt;stroke-opacity:1;fill:#000000;fill-opacity:1"
         d="M 0.0,0.0 L 5.0,-5.0 L -12.5,0.0 L 5.0,5.0 L 0.0,0.0 z "
         id="path1146" /></marker></defs><sodipodi:namedview
     pagecolor="#ffffff"
     bordercolor="#666666"
     borderopacity="1"
     objecttolerance="10"
     gridtolerance="10"
     guidetolerance="10"
     inkscape:pageopacity="0"
     inkscape:pageshadow="2"
     inkscape:window-width="1920"
     inkscape:window-height="1001"
     id="namedview47"
     showgrid="false"
     inkscape:zoom="7.9177362"
     inkscape:cx="36.292713"
     inkscape:cy="46.201751"
     inkscape:window-x="-9"
     inkscape:window-y="-9"
     inkscape:window-maximized="1"
     inkscape:current-layer="Capa_1" /><path
     inkscape:connector-curvature="0"
     id="path2"
     d="M 14.981,46.41 C 12.156,45.778 9.768,43.639 8.899,40.96 8.729,40.435 8.166,40.148 7.639,40.317 c -0.525,0.17 -0.813,0.734 -0.643,1.26 1.1,3.389 3.992,5.988 7.548,6.785 0.073,0.016 0.147,0.024 0.219,0.024 0.458,0 0.871,-0.316 0.975,-0.782 0.121,-0.539 -0.218,-1.073 -0.757,-1.194 z"
     style="stroke:#000000;stroke-opacity:1;stroke-linecap:round;paint-order:markers stroke fill;stroke-linejoin:round;stroke-width:0.2;stroke-miterlimit:4;stroke-dasharray:0.02,0.02;stroke-dashoffset:0;fill:none" /><path
     inkscape:connector-curvature="0"
     id="path4"
     d="m 40.84,53.754 c -2.825,-0.632 -5.213,-2.771 -6.082,-5.45 -0.17,-0.525 -0.734,-0.812 -1.26,-0.643 -0.525,0.17 -0.813,0.734 -0.643,1.26 1.1,3.389 3.992,5.988 7.548,6.785 0.073,0.016 0.147,0.024 0.219,0.024 0.458,0 0.871,-0.316 0.975,-0.782 0.121,-0.538 -0.218,-1.073 -0.757,-1.194 z"
     style="stroke:#000000;stroke-opacity:1;stroke-linecap:round;paint-order:markers stroke fill;stroke-linejoin:round;stroke-width:0.2;stroke-miterlimit:4;stroke-dasharray:0.02,0.02;stroke-dashoffset:0;fill:none" /><path
     inkscape:connector-curvature="0"
     id="path6"
     d="m 7.536,37.192 c 0.067,0.013 0.133,0.02 0.199,0.02 0.466,0 0.884,-0.328 0.979,-0.802 0.227,-1.125 0.638,-2.181 1.222,-3.139 0.288,-0.472 0.139,-1.087 -0.333,-1.375 -0.471,-0.287 -1.086,-0.139 -1.375,0.333 -0.707,1.158 -1.203,2.431 -1.476,3.785 -0.108,0.541 0.243,1.068 0.784,1.178 z"
     style="stroke:#000000;stroke-opacity:1;stroke-linecap:round;paint-order:markers stroke fill;stroke-linejoin:round;stroke-width:0.2;stroke-miterlimit:4;stroke-dasharray:0.02,0.02;stroke-dashoffset:0;fill:none" /><path
     inkscape:connector-curvature="0"
     id="path8"
     d="m 49.732,32.278 c 2.193,-7.308 -0.21,-13.962 -5.218,-21.919 0.685,0.154 1.388,0.258 2.118,0.258 0.762,0 1.544,-0.085 2.334,-0.257 2.706,-0.59 5.162,-2.161 6.737,-4.31 L 56.294,5.243 55.487,4.652 C 51.658,1.846 45.87,2.605 42.233,6.106 41.476,4.422 40.194,2.947 38.465,1.837 36.134,0.341 33.287,-0.285 30.654,0.121 l -0.988,0.152 0.152,0.988 c 0.403,2.619 1.982,4.933 4.447,6.514 1.865,1.197 4.061,1.837 6.213,1.837 0.231,0 0.46,-0.011 0.689,-0.026 -0.458,8.794 -7.036,16.641 -13.597,19.155 -2.384,-3.136 -5.872,-5.128 -9.763,-5.128 h -2 c -7.168,0 -13,6.729 -13,15 0,7.72 6.28,14 14,14 5.101,0 9.561,-2.751 12.008,-6.839 0.087,7.645 6.326,13.839 13.992,13.839 7.72,0 14,-6.28 14,-14 0,-5.807 -2.881,-10.843 -7.075,-13.335 z M 53.388,5.706 C 50.751,8.482 46.42,9.395 43.315,7.843 45.952,5.069 50.284,4.154 53.388,5.706 Z M 32.044,2.002 c 1.842,-0.049 3.734,0.487 5.341,1.519 1.631,1.047 2.775,2.474 3.301,4.09 C 38.866,7.671 36.953,7.124 35.345,6.093 33.714,5.046 32.57,3.619 32.044,2.002 Z m 10.931,9.664 c 5.12,8.231 6.619,13.954 4.961,19.735 -1.299,-0.504 -2.684,-0.789 -4.129,-0.789 h -2 c -4.66,0 -8.744,2.853 -11.039,7.116 -0.136,-2.68 -0.876,-5.172 -2.077,-7.294 6.652,-2.728 13.035,-10.082 14.284,-18.768 z M 16.807,50.613 c -6.617,0 -12,-5.383 -12,-12 0,-7.168 4.935,-13 11,-13 h 2 c 3.001,0 5.722,1.43 7.708,3.741 -0.723,0.15 -1.438,0.232 -2.136,0.232 -0.552,0 -1,0.448 -1,1 0,0.552 0.448,1 1,1 1.107,0 2.245,-0.176 3.389,-0.486 1.279,2.124 2.04,4.714 2.04,7.514 -0.001,6.616 -5.385,11.999 -12.001,11.999 z m 26,7 c -6.617,0 -12,-5.383 -12,-12 0,-7.168 4.935,-13 11,-13 h 2 c 1.22,0 2.391,0.246 3.488,0.681 -0.375,0.932 -0.829,1.873 -1.362,2.833 -0.269,0.483 -0.094,1.092 0.388,1.36 0.154,0.085 0.321,0.126 0.485,0.126 0.352,0 0.692,-0.186 0.875,-0.514 0.548,-0.987 0.99,-1.952 1.376,-2.907 3.423,2.206 5.75,6.498 5.75,11.421 0,6.617 -5.384,12 -12,12 z"
     style="stroke:#000000;stroke-opacity:1;stroke-linecap:round;paint-order:markers stroke fill;stroke-linejoin:round;stroke-width:0.2;stroke-miterlimit:4;stroke-dasharray:0.02,0.02;stroke-dashoffset:0;fill:none" /><path
     inkscape:connector-curvature="0"
     id="path10"
     d="m 24.807,32.613 c -2.206,0 -4,-1.794 -4,-4 0,-0.552 -0.448,-1 -1,-1 -0.552,0 -1,0.448 -1,1 0,3.309 2.691,6 6,6 0.552,0 1,-0.448 1,-1 0,-0.552 -0.448,-1 -1,-1 z"
     style="stroke:#000000;stroke-opacity:1;stroke-linecap:round;paint-order:markers stroke fill;stroke-linejoin:round;stroke-width:0.2;stroke-miterlimit:4;stroke-dasharray:0.02,0.02;stroke-dashoffset:0;fill:none" /><path
     inkscape:connector-curvature="0"
     id="path12"
     d="m 48.807,39.613 c -2.206,0 -4,-1.794 -4,-4 0,-0.552 -0.448,-1 -1,-1 -0.552,0 -1,0.448 -1,1 0,3.309 2.691,6 6,6 0.552,0 1,-0.448 1,-1 0,-0.552 -0.448,-1 -1,-1 z"
     style="stroke:#000000;stroke-opacity:1;stroke-linecap:round;paint-order:markers stroke fill;stroke-linejoin:round;stroke-width:0.2;stroke-miterlimit:4;stroke-dasharray:0.02,0.02;stroke-dashoffset:0;fill:none" /><g
     id="g16" /><g
     id="g18" /><g
     id="g20" /><g
     id="g22" /><g
     id="g24" /><g
     id="g26" /><g
     id="g28" /><g
     id="g30" /><g
     id="g32" /><g
     id="g34" /><g
     id="g36" /><g
     id="g38" /><g
     id="g40" /><g
     id="g42" /><g
     id="g44" /></svg>