<?xml version="1.0" encoding="UTF-8" standalone="no"?>
<!-- Generator: Adobe Illustrator 19.0.0, SVG Export Plug-In . SVG Version: 6.00 Build 0)  -->

<svg
   xmlns:dc="http://purl.org/dc/elements/1.1/"
   xmlns:cc="http://creativecommons.org/ns#"
   xmlns:rdf="http://www.w3.org/1999/02/22-rdf-syntax-ns#"
   xmlns:svg="http://www.w3.org/2000/svg"
   xmlns="http://www.w3.org/2000/svg"
   xmlns:sodipodi="http://sodipodi.sourceforge.net/DTD/sodipodi-0.dtd"
   xmlns:inkscape="http://www.inkscape.org/namespaces/inkscape"
   version="1.1"
   id="Layer_1"
   x="0px"
   y="0px"
   viewBox="0 0 512 512"
   style="enable-background:new 0 0 512 512;"
   xml:space="preserve"
   sodipodi:docname="clover-svgrepo-com (1).svg"
   inkscape:version="0.92.1 r15371"><metadata
     id="metadata65"><rdf:RDF><cc:Work
         rdf:about=""><dc:format>image/svg+xml</dc:format><dc:type
           rdf:resource="http://purl.org/dc/dcmitype/StillImage" /></cc:Work></rdf:RDF></metadata><defs
     id="defs63" /><sodipodi:namedview
     pagecolor="#ffffff"
     bordercolor="#666666"
     borderopacity="1"
     objecttolerance="10"
     gridtolerance="10"
     guidetolerance="10"
     inkscape:pageopacity="0"
     inkscape:pageshadow="2"
     inkscape:window-width="1920"
     inkscape:window-height="1001"
     id="namedview61"
     showgrid="false"
     inkscape:zoom="0.4609375"
     inkscape:cx="-100.88136"
     inkscape:cy="256"
     inkscape:window-x="-9"
     inkscape:window-y="-9"
     inkscape:window-maximized="1"
     inkscape:current-layer="Layer_1" /><path
     style="fill:none;opacity:0;fill-opacity:0"
     d="M368.619,255.967c55.966,48.287,76.978,77.377,78.727,105.713  c1.717,27.422-15.829,54.093-37.691,76.428c-22.334,21.86-48.991,39.393-76.408,37.67c-28.332-1.754-57.423-22.764-105.71-78.73  c-48.287,55.966-77.377,76.977-105.714,78.726c-27.423,1.717-54.093-15.828-76.428-37.69C23.534,415.751,6,389.093,7.723,361.676  c1.754-28.332,22.766-57.422,78.731-105.709C30.489,207.682,9.477,178.592,7.727,150.255C6.011,122.832,23.557,96.16,45.419,73.825  c22.334-21.86,48.991-39.393,76.408-37.671c28.332,1.754,57.423,22.765,105.71,78.73c48.287-55.966,77.377-76.977,105.714-78.726  c27.423-1.716,54.093,15.828,76.428,37.691c21.86,22.333,39.393,48.991,37.671,76.407  C445.596,178.589,424.585,207.681,368.619,255.967z"
     id="path6" /><g
     id="g884"><path
       style=""
       d="m 109.28,381.826 c -1.973,0 -3.946,-0.764 -5.435,-2.286 -18.294,-18.69 -30.454,-37.111 -36.143,-54.753 -1.289,-3.997 0.907,-8.284 4.904,-9.572 3.997,-1.294 8.283,0.906 9.573,4.904 4.959,15.378 15.905,31.792 32.536,48.781 2.938,3.002 2.887,7.817 -0.116,10.754 -1.48,1.45 -3.4,2.172 -5.319,2.172 z"
       id="path20"
       inkscape:connector-curvature="0" /><path
       style=""
       d="m 158.191,415.196 c -0.863,0 -1.74,-0.148 -2.599,-0.459 -9.123,-3.318 -18.53,-8.388 -27.957,-15.07 -3.426,-2.43 -4.236,-7.176 -1.806,-10.603 2.429,-3.428 7.176,-4.236 10.603,-1.807 8.317,5.896 16.513,10.331 24.359,13.185 3.948,1.436 5.984,5.799 4.548,9.747 -1.124,3.088 -4.041,5.007 -7.148,5.007 z"
       id="path22"
       inkscape:connector-curvature="0" /><g
       id="g889"><g
         id="g894"><g
           id="g900"
           transform="rotate(90,255.99979,256.00041)"><path
             d="m 121.357,43.744 c 3.917,0.242 7.718,0.886 11.62,1.968 0.679,0.189 1.364,0.278 2.036,0.278 3.332,0 6.391,-2.208 7.325,-5.575 1.122,-4.047 -1.249,-8.238 -5.297,-9.361 -4.866,-1.349 -9.828,-2.187 -14.746,-2.492 -4.18,-0.276 -7.801,2.929 -8.061,7.121 -0.258,4.194 2.93,7.802 7.123,8.061 z"
             id="path26"
             inkscape:connector-curvature="0" /><path
             inkscape:connector-curvature="0"
             id="path18"
             d="m 194.26172,184.91797 c -9.70965,-0.60781 -18.53184,5.41135 -25.73047,12.45703 l -0.0195,0.0195 -0.0195,0.0176 c -7.04744,7.19833 -13.07049,16.02852 -12.46289,25.74219 0.58719,9.50908 7.45811,18.79594 23.36132,32.8125 -15.90518,14.01859 -22.77364,23.30621 -23.36328,32.8125 -0.60874,9.71043 5.41087,18.5333 12.45704,25.73242 l 0.0195,0.0195 0.0176,0.0195 c 7.19825,7.04736 16.02658,13.07049 25.74024,12.46289 9.50806,-0.58719 18.79554,-7.45877 32.8125,-23.36133 14.01855,15.90436 23.30778,22.7747 32.81445,23.36328 9.70965,0.60781 18.5338,-5.41134 25.73242,-12.45703 l 0.0195,-0.0195 0.0176,-0.0195 c 7.04688,-7.19776 13.07151,-16.0254 12.46485,-25.73828 -0.58643,-9.50978 -7.45712,-18.79622 -23.36133,-32.81445 15.90298,-14.01648 22.77291,-23.30426 23.36328,-32.8125 v -0.002 c 0.60781,-9.70966 -5.4131,-18.53462 -12.45898,-25.73242 l -0.0176,-0.0195 -0.0195,-0.0176 c -7.19776,-7.04688 -16.02541,-13.0715 -25.73829,-12.46484 h -0.002 c -9.50823,0.5872 -18.79511,7.45815 -32.8125,23.36133 -14.0175,-15.90314 -23.30656,-22.77198 -32.8125,-23.36133 z m -0.31055,4.99023 h 0.002 c 7.71145,0.47744 16.29276,6.37913 31.23047,23.69141 l 1.89258,2.19336 1.89258,-2.19336 c 14.93778,-17.31236 23.51743,-23.21377 31.23047,-23.68945 l 0.002,-0.002 c 7.38535,-0.46196 15.18275,4.44806 21.91016,11.0293 6.58023,6.72737 11.48625,14.52173 11.02344,21.9043 v 0.002 c -0.47837,7.71499 -6.38107,16.29373 -23.69336,31.23047 l -2.19336,1.89258 2.19336,1.89258 c 17.31239,14.93781 23.21375,23.51632 23.68945,31.23046 v 0.002 h 0.002 c 0.46196,7.38535 -4.44805,15.18274 -11.02929,21.91015 -6.72854,6.58044 -14.52172,11.48625 -21.9043,11.02344 h -0.002 c -7.71145,-0.47744 -16.2908,-6.37913 -31.22852,-23.69141 l -1.89453,-2.19336 -1.89258,2.19336 c -14.93778,17.31236 -23.51743,23.21378 -31.23047,23.68946 h -0.002 c -7.38242,0.46178 -15.17676,-4.44224 -21.90234,-11.01953 -6.58392,-6.73015 -11.49228,-14.52694 -11.0293,-21.91211 v -0.002 c 0.47833,-7.71184 6.37818,-16.29279 23.6914,-31.23046 l 2.19336,-1.89258 -2.19336,-1.89258 c -17.31237,-14.93678 -23.2138,-23.51633 -23.6895,-31.23048 v -0.002 c -0.46178,-7.38241 4.44232,-15.17879 11.01953,-21.9043 6.73015,-6.58392 14.52694,-11.49227 21.91211,-11.0293 z"
             style="color:#000000;font-style:normal;font-variant:normal;font-weight:normal;font-stretch:normal;font-size:medium;line-height:normal;font-family:sans-serif;font-variant-ligatures:normal;font-variant-position:normal;font-variant-caps:normal;font-variant-numeric:normal;font-variant-alternates:normal;font-feature-settings:normal;text-indent:0;text-align:start;text-decoration:none;text-decoration-line:none;text-decoration-style:solid;text-decoration-color:#000000;letter-spacing:normal;word-spacing:normal;text-transform:none;writing-mode:lr-tb;direction:ltr;text-orientation:mixed;dominant-baseline:auto;baseline-shift:baseline;text-anchor:start;white-space:normal;shape-padding:0;clip-rule:nonzero;display:inline;overflow:visible;visibility:visible;opacity:1;isolation:auto;mix-blend-mode:normal;color-interpolation:sRGB;color-interpolation-filters:linearRGB;solid-color:#000000;solid-opacity:1;vector-effect:none;fill-opacity:1;fill-rule:nonzero;color-rendering:auto;image-rendering:auto;shape-rendering:auto;text-rendering:auto;enable-background:accumulate" /><path
             d="m 508.462,241.169 c -1.744,-2.664 -4.236,-4.99 -7.208,-6.727 -13.97,-8.161 -32.492,-12.299 -55.054,-12.299 -10.04,0 -20.985,0.817 -32.705,2.432 28.134,-29.131 40.039,-51.137 41.444,-73.84 1.627,-25.887 -11.773,-53.545 -39.826,-82.204 -0.039,-0.039 -0.076,-0.077 -0.116,-0.115 -28.668,-28.06 -56.328,-41.482 -82.218,-39.847 -30.19,1.864 -59.141,22.283 -105.247,74.737 -24.104,-27.402 -43.331,-45.715 -60.135,-57.319 -3.456,-2.389 -8.194,-1.52 -10.58,1.936 -2.387,3.456 -1.52,8.193 1.937,10.581 17.028,11.759 37.053,31.253 63.02,61.351 1.445,1.674 3.547,2.638 5.759,2.638 2.212,0 4.314,-0.962 5.759,-2.638 45.844,-53.135 74.001,-74.472 100.431,-76.105 21.402,-1.329 45.138,10.597 70.575,35.479 24.871,25.427 36.802,49.165 35.457,70.559 -1.636,26.423 -22.974,54.579 -76.109,100.421 -1.674,1.445 -2.638,3.547 -2.638,5.759 0,2.212 0.962,4.314 2.638,5.759 53.135,45.845 74.473,74.002 76.105,100.431 1.34,21.392 -10.599,45.138 -35.479,70.575 -25.43,24.874 -49.17,36.778 -70.56,35.459 -26.423,-1.636 -54.579,-22.974 -100.421,-76.109 -1.445,-1.674 -3.547,-2.638 -5.759,-2.638 -2.212,0 -4.314,0.962 -5.759,2.638 -45.844,53.134 -74.001,74.472 -100.43,76.105 -21.388,1.344 -45.139,-10.597 -70.578,-35.481 -24.871,-25.427 -36.8,-49.163 -35.455,-70.558 1.637,-26.423 22.975,-54.577 76.109,-100.421 1.674,-1.445 2.638,-3.547 2.638,-5.759 0,-2.212 -0.962,-4.314 -2.638,-5.759 C 38.283,204.368 16.945,176.211 15.313,149.781 13.974,128.385 25.91,104.642 50.793,79.205 65.625,64.697 80.065,54.488 93.716,48.858 97.6,47.257 99.448,42.81 97.847,38.927 96.246,35.044 91.8,33.194 87.916,34.796 72.435,41.18 56.346,52.483 40.094,68.392 c -0.04,0.038 -0.077,0.076 -0.116,0.115 -28.059,28.666 -41.465,56.33 -39.845,82.216 1.864,30.191 22.281,59.141 74.737,105.244 -52.45,46.103 -72.868,75.05 -74.738,105.232 -1.627,25.887 11.773,53.546 39.826,82.205 0.039,0.039 0.076,0.077 0.116,0.115 28.668,28.062 56.326,41.484 82.218,39.847 30.189,-1.864 59.139,-22.281 105.245,-74.735 68.128,79.905 108.04,74.871 109.453,74.871 24.663,-0.001 50.877,-13.425 77.985,-39.958 0.04,-0.038 0.077,-0.076 0.116,-0.115 28.061,-28.668 41.468,-56.334 39.847,-82.217 -1.382,-22.384 -12.98,-44.093 -40.257,-72.612 35.126,8.97 60.203,21.272 60.482,21.41 3.717,1.862 7.987,2.845 12.348,2.845 3.592,0 7.194,-0.684 10.416,-1.976 8.096,-3.249 13.267,-9.986 13.492,-17.583 1.3,-43.734 0.461,-46.906 -2.957,-52.127 z m -12.248,51.675 c -0.035,1.174 -1.271,2.841 -3.953,3.917 -3.143,1.261 -7.334,1.127 -10.316,-0.366 -1.561,-0.774 -38.788,-19.053 -87.617,-27.787 -0.034,-0.006 -0.069,-0.007 -0.103,-0.013 -4.397,-4.066 -9.067,-8.271 -14.024,-12.628 4.966,-4.365 9.642,-8.575 14.045,-12.647 19.33,-3.959 36.809,-5.967 51.955,-5.967 19.829,0 35.77,3.44 47.38,10.222 0.949,0.555 1.693,1.22 2.155,1.923 0.114,0.174 0.27,0.413 0.3,0.471 1.356,3.298 0.531,31.032 0.178,42.875 z"
             id="path28"
             inkscape:connector-curvature="0" /></g></g></g></g><g
     id="g30" /><g
     id="g32" /><g
     id="g34" /><g
     id="g36" /><g
     id="g38" /><g
     id="g40" /><g
     id="g42" /><g
     id="g44" /><g
     id="g46" /><g
     id="g48" /><g
     id="g50" /><g
     id="g52" /><g
     id="g54" /><g
     id="g56" /><g
     id="g58" /></svg>